<?xml version="1.0" encoding="UTF-8"?>
<svg version="1.1" xmlns="http://www.w3.org/2000/svg" width="1254" height="1254">
<path d="M0 0 C413.82 0 827.64 0 1254 0 C1254 413.82 1254 827.64 1254 1254 C840.18 1254 426.36 1254 0 1254 C0 840.18 0 426.36 0 0 Z " fill="#0D0D0D" transform="translate(0,0)"/>
<path d="M0 0 C2.61996355 2.27611669 5.19985108 4.58351638 7.75 6.9375 C9.72789558 8.75057094 11.75196817 10.47039014 13.8125 12.1875 C28.77554892 25.31403788 41.26670141 41.70324646 51 59 C51.41604492 59.73250977 51.83208984 60.46501953 52.26074219 61.21972656 C67.66450421 88.62267542 78.7363864 120.32419824 80 152 C80.04237793 153.02818848 80.08475586 154.05637695 80.12841797 155.11572266 C80.93509332 178.66327905 78.94194061 202.38305981 72 225 C71.75910645 225.79390137 71.51821289 226.58780273 71.27001953 227.40576172 C61.28873958 259.83116904 45.51940352 289.33000696 22 314 C21.4136377 314.61891113 20.82727539 315.23782227 20.22314453 315.87548828 C-9.49659383 347.0543162 -48.3707691 370.00160513 -91 378 C-91.71236816 378.14808105 -92.42473633 378.29616211 -93.15869141 378.44873047 C-107.09524956 381.27621737 -121.15012624 381.31674345 -135.3125 381.375 C-136.25485504 381.38285522 -137.19721008 381.39071045 -138.16812134 381.39880371 C-150.46530677 381.47846549 -161.97766159 380.59093137 -174 378 C-174.97300049 377.80664062 -175.94600098 377.61328125 -176.94848633 377.4140625 C-196.41490722 373.47449582 -214.54818739 366.39984943 -232 357 C-232.66338379 356.64824707 -233.32676758 356.29649414 -234.01025391 355.93408203 C-259.20797938 342.51820762 -281.64327489 323.72097052 -299 301 C-299.41813965 300.46358887 -299.8362793 299.92717773 -300.26708984 299.37451172 C-312.05337788 284.20842711 -321.37782965 267.60843631 -329 250 C-329.30389648 249.30648438 -329.60779297 248.61296875 -329.92089844 247.8984375 C-340.67409072 223.01805237 -346.16729859 195.30575167 -346.1875 168.25 C-346.18830566 167.23349365 -346.18911133 166.2169873 -346.18994141 165.16967773 C-345.85434173 118.90539724 -329.93607798 72.21832427 -301 36 C-300.2265625 35.02160156 -299.453125 34.04320312 -298.65625 33.03515625 C-281.60259303 11.93680795 -261.43903602 -5.42400965 -238 -19 C-237.34628418 -19.3810791 -236.69256836 -19.7621582 -236.01904297 -20.15478516 C-211.04271503 -34.52581768 -183.54735191 -42.82968787 -155 -46 C-154.1944165 -46.0942627 -153.38883301 -46.18852539 -152.55883789 -46.28564453 C-98.82727825 -52.20697363 -41.49707953 -34.55289888 0 0 Z " fill="#FCFCFC" transform="translate(760,245)"/>
<path d="M0 0 C1.21067139 0.00161133 2.42134277 0.00322266 3.66870117 0.00488281 C14.966891 0.15638684 25.58531498 1.82467533 36.5625 4.375 C37.90341364 4.65605801 39.24454286 4.93609046 40.5859375 5.21484375 C55.24385344 8.60585415 69.32861301 15.69593643 81.5625 24.375 C82.50996094 25.03886719 83.45742188 25.70273437 84.43359375 26.38671875 C116.03800201 49.27833826 138.17572034 82.57625052 144.61328125 121.31640625 C145.70365899 128.59640228 145.98741949 135.77052637 146 143.125 C146.00139984 143.79120361 146.00279968 144.45740723 146.00424194 145.14379883 C145.98122023 158.61410591 144.03602586 171.36030119 140.5625 184.375 C140.36495117 185.12152832 140.16740234 185.86805664 139.96386719 186.63720703 C134.46458594 206.6160293 123.06602445 224.86079847 109.5625 240.375 C108.76972656 241.30183594 107.97695313 242.22867188 107.16015625 243.18359375 C84.18611875 269.35149429 49.91527586 285.57449931 15.5625 289.375 C10.51709027 289.67966729 5.49144516 289.75729972 0.4375 289.75 C-0.57213806 289.74868576 -0.57213806 289.74868576 -1.60217285 289.74734497 C-39.08389092 289.58739847 -72.91284675 273.33529892 -99.4375 247.375 C-100.08847656 246.77429688 -100.73945312 246.17359375 -101.41015625 245.5546875 C-111.08203408 236.45443366 -118.33249747 225.49954561 -124.5625 213.87109375 C-125.65114422 211.84122589 -126.77955721 209.82992629 -128.00390625 207.87890625 C-129.83715074 204.67697242 -131.11278173 201.32962302 -132.375 197.875 C-132.76522339 196.80789795 -132.76522339 196.80789795 -133.16333008 195.71923828 C-133.68634459 194.27549188 -134.2055254 192.83035042 -134.72070312 191.38378906 C-135.33760941 189.65493863 -135.97183816 187.93228696 -136.609375 186.2109375 C-148.24311545 152.29410957 -143.63497985 113.81426268 -128.49926758 81.82788086 C-122.60172689 69.93337844 -115.05712963 59.44890809 -106.4375 49.375 C-105.75558594 48.56933594 -105.07367187 47.76367188 -104.37109375 46.93359375 C-86.37929531 26.12507539 -61.54432748 12.11344958 -35.3125 4.625 C-34.27536865 4.32674316 -34.27536865 4.32674316 -33.21728516 4.02246094 C-22.28048326 1.05749674 -11.3063574 -0.01597507 0 0 Z " fill="#0E0E0D" transform="translate(625.4375,267.625)"/>
<path d="M0 0 C5.85557745 1.82021625 11.32147522 3.97071304 16.8125 6.6875 C26.07522689 11.16977096 35.4630897 15.34409318 44.875 19.5 C57.37969885 25.02683841 69.83691408 30.64538585 82.25 36.375 C99.20737705 44.19897353 116.22528943 51.88285618 133.26445007 59.52685547 C139.59341522 62.36661592 145.91845847 65.21500698 152.2421875 68.06640625 C154.09268355 68.90049088 155.943188 69.73455687 157.79370117 70.56860352 C160.46845509 71.77415304 163.14309105 72.97995972 165.81729126 74.18673706 C168.26708536 75.29211876 170.71746217 76.39619889 173.16796875 77.5 C173.8900351 77.82621841 174.61210144 78.15243683 175.35604858 78.48854065 C177.23382808 79.33359903 179.11669051 80.16733868 181 81 C181.88341064 81.4228125 182.76682129 81.845625 183.67700195 82.28125 C188.81818406 83.87196362 193.40361244 81.10346506 198.0625 79 C198.75345261 78.69271469 199.44440521 78.38542938 200.15629578 78.0688324 C202.43994461 77.05119932 204.72002451 76.02583385 207 75 C208.61294145 74.27851332 210.22598029 73.55724434 211.83911133 72.83618164 C227.03893349 66.0291059 242.16552666 59.0630409 257.2893219 52.08918762 C281.40002204 40.97722652 305.61706966 30.09648559 329.83551025 19.22195435 C334.422826 17.16123039 339.00695272 15.09368498 343.58718872 13.01727295 C346.25278702 11.80916655 348.91981192 10.60423096 351.58703613 9.39971924 C353.3702715 8.59291669 355.15148605 7.78165221 356.93261719 6.97021484 C362.87977268 4.28783155 368.76737506 1.93335895 375 0 C382.16371537 13.49540586 389.04723407 27.08366875 395.57421875 40.8984375 C397.97693793 45.98050164 400.48755376 50.99711078 403.07421875 55.98828125 C404 58 404 58 404 60 C403.31115723 60.29430908 402.62231445 60.58861816 401.91259766 60.8918457 C383.62187042 68.72370815 365.46130686 76.82124055 347.34350586 85.04467773 C345.55453955 85.85664071 343.76555863 86.66857148 341.9765625 87.48046875 C341.10888748 87.87427231 340.24121246 88.26807587 339.34724426 88.67381287 C331.09651591 92.41548807 322.82150838 96.10073658 314.53833008 99.77001953 C306.18275423 103.47155075 297.83893441 107.19867166 289.5 110.9375 C288.31237061 111.46972168 287.12474121 112.00194336 285.90112305 112.55029297 C280.56740488 114.94266987 275.23597409 117.34008176 269.91015625 119.75 C269.0581665 120.13542969 268.20617676 120.52085937 267.32836914 120.91796875 C265.17134301 121.9203741 263.05102412 122.9718835 260.9375 124.0625 C258.05428558 125.53053178 255.14050013 126.76506604 252.125 127.9375 C248.70229695 129.27115598 245.44800391 130.7464769 242.1875 132.4375 C238.54206519 134.3074925 234.88247342 135.85389331 231.04296875 137.28125 C223.961176 139.97457943 217.0417227 142.97328958 210.125 146.0625 C208.95453125 146.57876953 207.7840625 147.09503906 206.578125 147.62695312 C199.6384192 150.69257628 199.6384192 150.69257628 193.0546875 154.43359375 C189.29312537 156.36247663 188.04896645 155.9697737 184 155 C181.79206886 154.14465846 179.61157247 153.2164754 177.45703125 152.234375 C176.84792404 151.95909973 176.23881683 151.68382446 175.61125183 151.40020752 C173.67524982 150.52341648 171.74387203 149.63693597 169.8125 148.75 C168.53610266 148.16992256 167.25941194 147.59049019 165.98242188 147.01171875 C163.49076989 145.88109088 161.00115791 144.74616424 158.51342773 143.60693359 C154.44610198 141.74666411 150.37106535 139.90373583 146.29443359 138.06396484 C144.10598834 137.04914846 141.95645629 135.98024219 139.8125 134.875 C137.29030337 133.5908796 134.78987805 132.5146221 132.125 131.5625 C128.99453356 130.43748862 126.08545985 129.07973568 123.125 127.5625 C119.79944612 125.8590435 116.48430045 124.34893763 113 123 C108.6850618 121.32796145 104.62310291 119.33190385 100.5078125 117.22265625 C97.19762927 115.60881302 93.79862303 114.29572762 90.3671875 112.96484375 C87.50537116 111.79839386 84.79880116 110.41223273 82.0546875 108.99609375 C79.78320642 107.89490045 77.47833214 106.97524097 75.125 106.0625 C71.64529275 104.70573341 68.32364709 103.20349937 65 101.5 C60.96905492 99.43736351 56.8943305 97.71006845 52.67480469 96.07446289 C50.15565922 95.06252795 47.69577057 93.97588578 45.23046875 92.83984375 C40.546813 90.69778246 35.84895668 88.59094383 31.140625 86.50390625 C30.43411301 86.19061371 29.72760101 85.87732117 28.99967957 85.55453491 C27.51663319 84.89702078 26.03354402 84.23960317 24.55041504 83.58227539 C6.99743738 75.80102968 -10.51320941 67.92874661 -28 60 C-26.07313533 53.72173551 -23.67689746 47.89093003 -20.76171875 42.01171875 C-20.1568438 40.77504204 -20.1568438 40.77504204 -19.53974915 39.51338196 C-18.26093792 36.90212911 -16.9743331 34.29480732 -15.6875 31.6875 C-14.83608031 29.95142103 -13.9851649 28.21509466 -13.13476562 26.47851562 C-8.79770749 17.63175028 -4.42626818 8.80250318 0 0 Z " fill="#FCFBFC" transform="translate(439,609)"/>
<path d="M0 0 C19.14 0 38.28 0 58 0 C59.65 4.95 61.3 9.9 63 15 C64.4836263 18.45539674 64.4836263 18.45539674 66.03515625 21.88037109 C67.88533473 25.94495853 69.42127406 30.13676223 71 34.3125 C71.35030273 35.23385742 71.70060547 36.15521484 72.06152344 37.10449219 C74.23905111 42.86996852 76.2538775 48.66635123 78.1484375 54.53125 C79.19276099 57.55883003 80.49002029 60.41798502 81.83374023 63.32202148 C83.21351436 66.49027402 84.41798599 69.70174941 85.62109375 72.94140625 C86.15696177 74.37949323 86.69310961 75.81747596 87.22949219 77.25537109 C87.51554321 78.02298767 87.80159424 78.79060425 88.09631348 79.58148193 C89.69273919 83.85396396 91.30580012 88.12015758 92.91796875 92.38671875 C93.43173065 93.74690376 93.43173065 93.74690376 93.95587158 95.13456726 C95.0328661 97.9856261 96.11016922 100.83656821 97.1875 103.6875 C97.56028076 104.67422699 97.93306152 105.66095398 98.31713867 106.67758179 C102.42501313 117.55077942 106.53595964 128.42278557 110.66210938 139.2890625 C112.3657532 143.77573909 114.06725157 148.26322688 115.76806641 152.75097656 C116.62107305 155.00064212 117.47497413 157.24996865 118.32958984 159.49902344 C119.61880214 162.89396482 120.9036807 166.29051618 122.1875 169.6875 C122.57486328 170.70497314 122.96222656 171.72244629 123.36132812 172.77075195 C123.88436523 174.15846802 123.88436523 174.15846802 124.41796875 175.57421875 C124.72500732 176.38463623 125.0320459 177.19505371 125.34838867 178.0300293 C126 180 126 180 126 182 C109.17 182 92.34 182 75 182 C71.04430669 172.11076672 67.51857235 162.05306386 64 152 C39.91 151.67 15.82 151.34 -9 151 C-9.99 154.63 -10.98 158.26 -12 162 C-15.465 171.9 -15.465 171.9 -19 182 C-35.17 182 -51.34 182 -68 182 C-64.62505808 170.75019359 -64.62505808 170.75019359 -62.81445312 166.00073242 C-62.20736511 164.40046455 -62.20736511 164.40046455 -61.5880127 162.76786804 C-61.15678101 161.64177628 -60.72554932 160.51568451 -60.28125 159.35546875 C-59.82327026 158.15102615 -59.36529053 156.94658356 -58.89343262 155.7056427 C-57.67763746 152.50829164 -56.45771182 149.31253288 -55.23681641 146.11712646 C-54.03570403 142.97156917 -52.83825413 139.82461914 -51.640625 136.67773438 C-50.20551285 132.907586 -48.76992862 129.13761973 -47.33239746 125.36839294 C-44.02348731 116.69231086 -40.72741152 108.0114334 -37.4375 99.328125 C-33.8807747 89.94298147 -30.30864952 80.56391065 -26.71875 71.19140625 C-17.65193385 47.51672289 -8.63281018 23.83686392 0 0 Z " fill="#FBFBFC" transform="translate(465,818)"/>
<path d="M0 0 C11.64038994 -0.04652464 23.28075743 -0.08197091 34.92122173 -0.10362434 C40.32747898 -0.11402159 45.73367218 -0.12810594 51.13989258 -0.15087891 C56.36594578 -0.17275293 61.59193773 -0.18459908 66.81803322 -0.18975449 C68.80292537 -0.19342427 70.78781451 -0.20058975 72.77268028 -0.21146011 C94.97998734 -0.32814492 116.32392856 1.57185312 133.6875 17.0625 C146.25696057 30.53841205 150.57058547 48.63836579 150.28515625 66.56640625 C149.62027323 81.99236051 141.77280651 98.28230705 130.66015625 108.9453125 C120.36039642 116.90078045 108.20490387 122.69499494 95 122 C95 122.66 95 123.32 95 124 C80.15 124 65.3 124 50 124 C50 143.47 50 162.94 50 183 C41.935625 183.020625 33.87125 183.04125 25.5625 183.0625 C23.01345947 183.071604 20.46441895 183.08070801 17.83813477 183.09008789 C15.83089246 183.09300688 13.82364957 183.09555548 11.81640625 183.09765625 C10.23708313 183.1053302 10.23708313 183.1053302 8.62585449 183.11315918 C7.13378479 183.11334045 7.13378479 183.11334045 5.61157227 183.11352539 C4.30918358 183.11685631 4.30918358 183.11685631 2.98048401 183.12025452 C1 183 1 183 0 182 C-0.09763101 179.64712707 -0.12997445 177.32365314 -0.12025452 174.97032166 C-0.12110894 174.2262607 -0.12196337 173.48219975 -0.12284368 172.71559149 C-0.12450071 170.2035182 -0.1189735 167.69151058 -0.11352539 165.17944336 C-0.11324354 163.38621523 -0.11340121 161.59298698 -0.1139679 159.79975891 C-0.11425596 154.91566635 -0.10835786 150.03159813 -0.10139394 145.14751124 C-0.09516181 140.0492342 -0.09455671 134.95095666 -0.09336853 129.85267639 C-0.0902548 120.19122841 -0.08204084 110.52979168 -0.07201904 100.86834866 C-0.06085921 89.87216377 -0.05534778 78.87597837 -0.05032361 67.87978923 C-0.03985826 45.25318657 -0.02225801 22.62659392 0 0 Z " fill="#FAF9FA" transform="translate(705,818)"/>
<path d="M0 0 C16.5 0 33 0 50 0 C50 60.06 50 120.12 50 182 C33.5 182 17 182 0 182 C0 121.94 0 61.88 0 0 Z " fill="#FBFAFB" transform="translate(616,818)"/>
<path d="M0 0 C5.28 -0.04125 10.56 -0.0825 16 -0.125 C18.475 -0.15231201 18.475 -0.15231201 21 -0.18017578 C22.33333004 -0.18602649 23.66666371 -0.19112067 25 -0.1953125 C26.00740234 -0.2106604 26.00740234 -0.2106604 27.03515625 -0.22631836 C34.9977543 -0.22919502 42.20012048 1.31758639 48 7 C52.88458512 12.69147824 52.77080092 20.05709764 52.453125 27.203125 C51.67353369 33.73556249 49.13311237 37.02296903 44.4375 41.375 C43.633125 41.91125 42.82875 42.4475 42 43 C41.46922852 43.3594873 40.93845703 43.71897461 40.39160156 44.08935547 C36.75903949 45.47251763 33.12853121 45.24431757 29.296875 45.1953125 C28.5538916 45.19329834 27.8109082 45.19128418 27.04541016 45.18920898 C24.28021029 45.17877533 21.5150987 45.15085273 18.75 45.125 C12.5625 45.08375 6.375 45.0425 0 45 C0 30.15 0 15.3 0 0 Z " fill="#0F0E0E" transform="translate(755,857)"/>
<path d="M0 0 C3.51017338 2.68842759 4.234179 6.3704518 5.375 10.4375 C6.86394157 15.4855966 8.4612653 20.35142753 10.5625 25.1875 C12.81304352 30.37292158 14.49198166 35.62052631 16.1015625 41.03515625 C17.49902599 45.64678576 19.19249586 50.09722661 21.07421875 54.53125 C21.44160156 55.4078125 21.80898438 56.284375 22.1875 57.1875 C22.53167969 57.98542969 22.87585938 58.78335938 23.23046875 59.60546875 C24 62 24 62 24 67 C8.49 67 -7.02 67 -23 67 C-21.21446574 59.85786298 -19.5095798 53.09077018 -17.0390625 46.2265625 C-16.63039444 45.06995621 -16.63039444 45.06995621 -16.21347046 43.88998413 C-15.35579896 41.46645766 -14.49058165 39.04571094 -13.625 36.625 C-13.0541834 35.01580372 -12.48386828 33.40642948 -11.9140625 31.796875 C-10.80538156 28.66805522 -9.69236678 25.54083701 -8.57519531 22.41503906 C-7.55679626 19.56535611 -6.54547851 16.71336594 -5.54199219 13.85839844 C-5.3161142 13.21832855 -5.09023621 12.57825867 -4.85751343 11.91879272 C-4.25558325 10.21249524 -3.6557823 8.50544704 -3.05615234 6.79833984 C-2.16334839 4.43280149 -1.18617386 2.22920039 0 0 Z " fill="#111111" transform="translate(492,866)"/>
<path d="M0 0 C18.81 0 37.62 0 57 0 C53.92120549 1.53939725 51.16844341 2.66508822 47.9375 3.75 C29.98722952 10.29684931 15.41618317 23.07284627 7.1875 40.4375 C4.44519337 46.45217086 2.41217769 52.53088127 1 59 C0.67 59 0.34 59 0 59 C0 39.53 0 20.06 0 0 Z " fill="#000000" transform="translate(0,0)"/>
<path d="M0 0 C1.62188005 3.24376011 2.6579652 6.0041645 3.6875 9.4375 C7.00498489 19.52561391 11.86463099 28.16849743 19 36 C19 36.66 19 37.32 19 38 C19.59296875 38.26554687 20.1859375 38.53109375 20.796875 38.8046875 C23.05722047 40.03104515 24.4442029 41.31076459 26.25 43.125 C34.90877498 50.86125129 46.72792778 55.70737514 58 58 C58 58.33 58 58.66 58 59 C38.86 59 19.72 59 0 59 C0 39.53 0 20.06 0 0 Z " fill="#000000" transform="translate(0,1195)"/>
<path d="M0 0 C0.33 0 0.66 0 1 0 C1 19.47 1 38.94 1 59 C-18.14 59 -37.28 59 -57 59 C-53.73400268 57.36700134 -50.95980875 56.34021201 -47.5 55.3125 C-40.73589302 53.09354295 -34.9624963 49.85060216 -29 46 C-28.26910156 45.53851562 -27.53820313 45.07703125 -26.78515625 44.6015625 C-11.94879047 34.43644852 -3.97424488 16.96897977 0 0 Z " fill="#000000" transform="translate(1253,1195)"/>
<path d="M0 0 C19.14 0 38.28 0 58 0 C58 19.47 58 38.94 58 59 C57.67 59 57.34 59 57 59 C56.84760864 58.17338867 56.84760864 58.17338867 56.69213867 57.33007812 C55.55394243 51.66257109 53.82118018 46.69804755 51.3125 41.5 C50.95728271 40.75878906 50.60206543 40.01757812 50.23608398 39.25390625 C47.43820633 33.57708918 44.31115334 28.66195383 40 24 C39.34644531 23.25621094 38.69289063 22.51242188 38.01953125 21.74609375 C28.10036125 11.06808014 14.40221122 3.51509203 0 1 C0 0.67 0 0.34 0 0 Z " fill="#000000" transform="translate(1196,0)"/>
<path d="M0 0 C1 4 1 4 0 6 C14.19 6 28.38 6 43 6 C43.33 5.01 43.66 4.02 44 3 C45 4 45 4 45 9 C29.49 9 13.98 9 -2 9 C-1.34 6.03 -0.68 3.06 0 0 Z " fill="#292A29" transform="translate(471,924)"/>
<path d="M0 0 C0.66 0 1.32 0 2 0 C3.5317165 1.86430037 4.95881788 3.73800791 6.375 5.6875 C13.74091038 15.54965832 22.20452099 24.40441824 31 33 C30.67 33.99 30.34 34.98 30 36 C27.05837714 33.08746667 24.1224386 30.16926768 21.1875 27.25 C20.35412109 26.425 19.52074219 25.6 18.66210938 24.75 C17.45844727 23.55117188 17.45844727 23.55117188 16.23046875 22.328125 C15.49207764 21.5949707 14.75368652 20.86181641 13.99291992 20.10644531 C9 14.82910695 9 14.82910695 9 12 C8.34 12 7.68 12 7 12 C5.2734375 10.13671875 5.2734375 10.13671875 3.375 7.6875 C2.74335938 6.88699219 2.11171875 6.08648438 1.4609375 5.26171875 C0 3 0 3 0 0 Z " fill="#161515" transform="translate(455,539)"/>
<path d="M0 0 C2 3 2 3 3 8 C-11.52 8 -26.04 8 -41 8 C-41 7.67 -41 7.34 -41 7 C-28.13 6.67 -15.26 6.34 -2 6 C-1.34 4.02 -0.68 2.04 0 0 Z " fill="#F4F4F4" transform="translate(588,992)"/>
<path d="M0 0 C0.66 0 1.32 0 2 0 C3.72682185 2.04967534 5.34312715 4.10116271 6.9375 6.25 C7.38029297 6.83652344 7.82308594 7.42304687 8.27929688 8.02734375 C9.52562052 9.68044068 10.76387607 11.33926934 12 13 C12.89912109 14.19882812 12.89912109 14.19882812 13.81640625 15.421875 C14.20699219 15.94265625 14.59757812 16.4634375 15 17 C14.34 17.66 13.68 18.32 13 19 C9 14.25 9 14.25 9 12 C8.34 12 7.68 12 7 12 C5.2734375 10.13671875 5.2734375 10.13671875 3.375 7.6875 C2.74335938 6.88699219 2.11171875 6.08648438 1.4609375 5.26171875 C0 3 0 3 0 0 Z " fill="#212121" transform="translate(455,539)"/>
<path d="M0 0 C0.66 0.33 1.32 0.66 2 1 C-0.99068325 4.33576209 -3.80831589 6.3746531 -8 8 C-10.875 7.6875 -10.875 7.6875 -13 7 C-10.34222951 4.34222951 -7.45695173 3.43046279 -4 2 C-3.236875 1.5875 -2.47375 1.175 -1.6875 0.75 C-1.130625 0.5025 -0.57375 0.255 0 0 Z " fill="#2E2E2E" transform="translate(692,735)"/>
<path d="M0 0 C0.66 0.33 1.32 0.66 2 1 C-0.38179263 4.74281699 -2.74475735 7.97727468 -6 11 C-6.99 10.67 -7.98 10.34 -9 10 C-6.03 6.7 -3.06 3.4 0 0 Z " fill="#272727" transform="translate(527,308)"/>
<path d="M0 0 C0.66 2.31 1.32 4.62 2 7 C1.34 6.67 0.68 6.34 0 6 C0 5.01 0 4.02 0 3 C-6.27 2.67 -12.54 2.34 -19 2 C-19 1.67 -19 1.34 -19 1 C-16.20837429 0.83262201 -13.41670379 0.66606598 -10.625 0.5 C-9.8309375 0.45230469 -9.036875 0.40460937 -8.21875 0.35546875 C-2.2265625 0 -2.2265625 0 0 0 Z " fill="#2D2D2D" transform="translate(530,970)"/>
<path d="M0 0 C0.66 0.33 1.32 0.66 2 1 C-0.97 4.3 -3.94 7.6 -7 11 C-7.99 10.34 -8.98 9.68 -10 9 C-9.44570313 8.51789062 -8.89140625 8.03578125 -8.3203125 7.5390625 C-7.59585938 6.90742187 -6.87140625 6.27578125 -6.125 5.625 C-5.40570312 4.99851562 -4.68640625 4.37203125 -3.9453125 3.7265625 C-2.5923402 2.52573166 -1.2791655 1.2791655 0 0 Z " fill="#1C1C1C" transform="translate(841,920)"/>
<path d="M0 0 C0 0.66 0 1.32 0 2 C-1.65 2.33 -3.3 2.66 -5 3 C-5 3.66 -5 4.32 -5 5 C-8.73567172 5.76411467 -11.34811918 6.07174763 -15 5 C-12.8765984 4.16260219 -10.7512272 3.33019717 -8.625 2.5 C-7.44164062 2.0359375 -6.25828125 1.571875 -5.0390625 1.09375 C-2 0 -2 0 0 0 Z " fill="#CFCFCF" transform="translate(689,543)"/>
<path d="M0 0 C1.9451 2.91765 2.45276317 4.62537285 3 8 C-0.3 8 -3.6 8 -7 8 C-7 7.67 -7 7.34 -7 7 C-5.35 6.67 -3.7 6.34 -2 6 C-1.34 4.02 -0.68 2.04 0 0 Z " fill="#E0E1E0" transform="translate(588,992)"/>
<path d="M0 0 C0.66 0.33 1.32 0.66 2 1 C1.67 1.99 1.34 2.98 1 4 C-2.5625 5.1875 -2.5625 5.1875 -6 6 C-6.33 5.01 -6.66 4.02 -7 3 C-4.69631264 1.93347808 -2.35981813 0.93578995 0 0 Z " fill="#2D2D2D" transform="translate(726,720)"/>
<path d="M0 0 C2 4 2 4 2 7 C1.34 7 0.68 7 0 7 C-0.33 9.31 -0.66 11.62 -1 14 C-1.66 14 -2.32 14 -3 14 C-2.01 9.38 -1.02 4.76 0 0 Z " fill="#DFDEDF" transform="translate(767,443)"/>
<path d="M0 0 C0.33 0.99 0.66 1.98 1 3 C-1.31 4.65 -3.62 6.3 -6 8 C-6 5 -6 5 -4.6875 3.61328125 C-3.125 2.40885417 -1.5625 1.20442708 0 0 Z " fill="#1A1B1B" transform="translate(538,299)"/>
<path d="M0 0 C0 0.99 0 1.98 0 3 C-2.31 3.66 -4.62 4.32 -7 5 C-7.66 4.34 -8.32 3.68 -9 3 C-2.25 0 -2.25 0 0 0 Z " fill="#313231" transform="translate(652,754)"/>
<path d="M0 0 C0.8353125 0.556875 0.8353125 0.556875 1.6875 1.125 C-1.94673209 3.45090854 -5.08338331 3.28765833 -9.3125 3.125 C-6.49583292 0.30833292 -3.93207852 -1.48781349 0 0 Z " fill="#242424" transform="translate(679.3125,742.875)"/>
<path d="M0 0 C-1.6415049 3.2830098 -4.82902851 4.27037919 -8 6 C-8 5.34 -8 4.68 -8 4 C-8.66 3.67 -9.32 3.34 -10 3 C-3.375 0 -3.375 0 0 0 Z " fill="#343434" transform="translate(760,706)"/>
<path d="M0 0 C0.66 0.99 1.32 1.98 2 3 C1.01 3.33 0.02 3.66 -1 4 C-1.73323796 6.01508358 -1.73323796 6.01508358 -2 8 C-3.32 8.33 -4.64 8.66 -6 9 C-4.02 6.03 -2.04 3.06 0 0 Z " fill="#232323" transform="translate(799,537)"/>
<path d="M0 0 C3 1 3 1 5 4 C5.125 6.6875 5.125 6.6875 5 9 C0.57142857 3.85714286 0.57142857 3.85714286 0 0 Z " fill="#1D1D1D" transform="translate(501,480)"/>
<path d="M0 0 C0.86625 0.3403125 0.86625 0.3403125 1.75 0.6875 C0.5625 2.25 0.5625 2.25 -1.25 3.6875 C-3.9375 3.375 -3.9375 3.375 -6.25 2.6875 C-2.80384615 -0.38942308 -2.80384615 -0.38942308 0 0 Z " fill="#2E2F2E" transform="translate(703.25,731.3125)"/>
<path d="M0 0 C0.99 0.33 1.98 0.66 3 1 C-0.465 3.97 -0.465 3.97 -4 7 C-4.66 6.67 -5.32 6.34 -6 6 C-4.02 4.02 -2.04 2.04 0 0 Z " fill="#181718" transform="translate(787,553)"/>
<path d="M0 0 C0.99 0.33 1.98 0.66 3 1 C1.35 2.65 -0.3 4.3 -2 6 C-2.99 5.34 -3.98 4.68 -5 4 C-2.6875 1.9375 -2.6875 1.9375 0 0 Z " fill="#1E1E1E" transform="translate(544,294)"/>
<path d="M0 0 C0.99 0.495 0.99 0.495 2 1 C2.75 4.4375 2.75 4.4375 3 8 C2.34 8.66 1.68 9.32 1 10 C0 3.375 0 3.375 0 0 Z " fill="#F1F1F1" transform="translate(535,980)"/>
<path d="M0 0 C0.66 0.66 1.32 1.32 2 2 C1.34 4.31 0.68 6.62 0 9 C-0.66 8.34 -1.32 7.68 -2 7 C-1.43181818 1.43181818 -1.43181818 1.43181818 0 0 Z " fill="#ECECED" transform="translate(470,922)"/>
<path d="M0 0 C0 0.66 0 1.32 0 2 C-4.43076923 4.09230769 -4.43076923 4.09230769 -7.3125 3.625 C-7.869375 3.41875 -8.42625 3.2125 -9 3 C-3.375 0 -3.375 0 0 0 Z " fill="#383838" transform="translate(713,727)"/>
<path d="M0 0 C-1 2 -1 2 -4 4 C-6.6875 4.125 -6.6875 4.125 -9 4 C-3.7826087 0 -3.7826087 0 0 0 Z " fill="#333333" transform="translate(780,697)"/>
<path d="M0 0 C-1 2 -1 2 -4 4 C-6.6875 4.125 -6.6875 4.125 -9 4 C-3.7826087 0 -3.7826087 0 0 0 Z " fill="#343435" transform="translate(791,692)"/>
<path d="M0 0 C0.99 0.99 1.98 1.98 3 3 C2.34 4.98 1.68 6.96 1 9 C0.67 9 0.34 9 0 9 C0 6.03 0 3.06 0 0 Z " fill="#D1D0D2" transform="translate(415,388)"/>
<path d="M0 0 C0 0.33 0 0.66 0 1 C-4.79137588 2.6290678 -8.05632546 3.20577428 -13 2 C-13 1.67 -13 1.34 -13 1 C-8.59085217 -0.10228696 -4.51617599 -0.07654536 0 0 Z " fill="#565758" transform="translate(612,269)"/>
</svg>
