<svg width="662" height="178" viewBox="0 0 662 178" fill="none" xmlns="http://www.w3.org/2000/svg">
<g clip-path="url(#clip0_336_87)">
<path d="M661.62 0H0V177.63H661.62V0Z" fill="#3C494F"/>
<path d="M61.1194 36.5596H42.3594V130.34H131.259V111.59H61.1194V36.5596Z" fill="white"/>
<path d="M178.201 36.5596L140.691 130.34H162.081L187.581 64.6896L205.751 111.59H174.581L167.581 130.34H234.471L196.951 36.5596H178.201Z" fill="white"/>
<path d="M260.941 69.3796L237.501 36.5596H214.051L251.561 92.8296V130.34H270.321V92.8296L307.831 36.5596H284.681L260.941 69.3796Z" fill="white"/>
<path d="M315.922 51.3296V55.3196V74.0696V96.9496V130.34H404.822V111.59H334.682V96.9496V92.8296H388.572V74.0696H334.682V55.3196H404.822V36.5596H315.922V51.3296Z" fill="white"/>
<path d="M435.28 54.4396H483.39V73.9996H440.48L440.66 91.8796H453.53L487.53 130.39H510.68L476.68 91.8796H490C491.913 91.8809 493.807 91.5053 495.575 90.7741C497.343 90.043 498.949 88.9707 500.302 87.6186C501.655 86.2664 502.728 84.6609 503.461 82.8938C504.193 81.1266 504.57 79.2325 504.57 77.3196V51.1196C504.57 49.2067 504.193 47.3125 503.461 45.5454C502.728 43.7782 501.655 42.1727 500.302 40.8206C498.949 39.4684 497.343 38.3961 495.575 37.665C493.807 36.9339 491.913 36.5583 490 36.5596H417V130.34H435.76L435.28 54.4396Z" fill="white"/>
<path d="M615.899 36.96H578.969V54.75H615.899V36.96Z" fill="#00B39F"/>
<path d="M619.258 96.8898V89.5098C619.258 81.0298 612.118 74.1498 603.258 74.1498H543.718V69.2998H521.898V90.2998H597.438V96.8698L619.258 96.8898Z" fill="#00B39F"/>
<path d="M543.718 63.49V54.75H572.938V36.96H521.898V63.49H543.718Z" fill="#00D3A9"/>
<path d="M597.439 102.61V113H568.219V130.79H604.219C608.128 130.852 611.901 129.361 614.713 126.645C617.525 123.929 619.145 120.209 619.219 116.3V102.61H597.439Z" fill="#00D3A9"/>
<path d="M541.999 103.57V113H562.219V130.79H536.219C532.31 130.852 528.536 129.361 525.724 126.645C522.913 123.929 521.292 120.209 521.219 116.3V103.57H541.999Z" fill="#00B39F"/>
</g>
<defs>
<clipPath id="clip0_336_87">
<rect width="661.62" height="177.63" fill="white"/>
</clipPath>
</defs>
</svg>
