<svg width="191" height="63" viewBox="0 0 191 63" fill="none" xmlns="http://www.w3.org/2000/svg">
<path fill-rule="evenodd" clip-rule="evenodd" d="M184.281 27.9814V6.13087V5.91016H184.502H187.353C188.303 5.91016 189.014 6.14926 189.493 6.62747C189.977 7.11181 190.216 7.82299 190.216 8.76715V27.9753V28.196H189.995H184.502H184.281V27.9814Z" fill="#007BAC"/>
<path fill-rule="evenodd" clip-rule="evenodd" d="M184.272 4.51847V0.220713V0H184.492H187.343H187.466C188.373 0.0183927 189.054 0.269764 189.514 0.741844C189.973 1.21392 190.2 1.89445 190.2 2.78343V2.89992V4.51235V4.73306H189.98H184.486H184.266V4.51847H184.272Z" fill="#E09400"/>
<path fill-rule="evenodd" clip-rule="evenodd" d="M42.7522 19.8789V28.4254C41.3912 26.2305 39.6806 24.2748 37.7188 22.4661C39.2208 21.571 40.9007 20.7004 42.7522 19.8789Z" fill="#E09400"/>
<path fill-rule="evenodd" clip-rule="evenodd" d="M33.29 18.89C36.5332 16.0391 39.2921 14.5554 42.7377 13.0656V3.29297C34.0441 7.088 28.8389 11.9559 27.625 15.1195C29.5992 16.3518 31.5059 17.5902 33.29 18.89Z" fill="#E09400"/>
<path fill-rule="evenodd" clip-rule="evenodd" d="M0 13.9178V3.29297C13.9969 19.4295 38.0913 23.3165 42.7447 41.0716C42.6527 44.413 42.0151 47.3742 40.8441 49.9492C33.7323 29.9072 1.77796 26.1797 0 13.9178Z" fill="#007BAC"/>
<path fill-rule="evenodd" clip-rule="evenodd" d="M37.2698 55.3847C35.6328 57.0339 33.0027 59.1429 30.8998 60.1913C22.4514 45.0418 2.57498 46.0718 0 34.7542V25.3555C13.347 40.744 24.26 34.3495 37.2698 55.3847Z" fill="#007BAC"/>
<path fill-rule="evenodd" clip-rule="evenodd" d="M22.7079 62.3808C22.2665 62.4053 21.819 62.4237 21.3653 62.4237C11.2983 62.4237 2.86219 55.4713 0.59375 46.1094C9.04827 55.6 17.932 53.1599 22.7079 62.3808Z" fill="#007BAC"/>
<path d="M190.579 47.9297H54.9453V48.739H190.579V47.9297Z" fill="#007BAC"/>
<path fill-rule="evenodd" clip-rule="evenodd" d="M176.362 6.45526C176.853 6.09967 177.46 5.92188 178.189 5.92188H182.444H182.751L182.646 6.21617L174.922 28.0667L174.872 28.2138H174.719H168.895H168.742L168.693 28.0667L161.011 6.21617L160.906 5.928H161.213H167.282H167.448L167.491 6.0874L171.697 20.679L175.289 8.03091V8.02477C175.516 7.33198 175.878 6.81085 176.362 6.45526Z" fill="#007BAC"/>
<path fill-rule="evenodd" clip-rule="evenodd" d="M154.075 11.3922C153.585 11.1347 152.837 11.006 151.831 11.006C150.973 11.006 150.323 11.1102 149.863 11.3248C149.471 11.5087 149.226 11.7723 149.127 12.1341L149.035 12.459H148.698H143.481H142.96L143.046 11.944C143.377 9.90242 144.272 8.36969 145.731 7.34583C147.159 6.34036 149.121 5.84375 151.604 5.84375C154.553 5.84375 156.791 6.34035 158.324 7.33969C159.906 8.37582 160.727 9.92693 160.795 12.0053V12.0176V19.0742C160.795 22.0722 159.881 24.2487 158.22 25.7385C156.576 27.21 154.228 27.9825 151.328 28.1848C150.948 28.2154 150.587 28.2277 150.231 28.2277C148.054 28.2277 146.197 27.682 144.842 26.6275C143.462 25.5607 142.61 23.9851 142.445 21.9435C142.426 21.7105 142.414 21.4714 142.414 21.2323V21.2201C142.475 18.5592 143.481 16.8671 145.179 15.7697C146.822 14.7029 149.097 14.2247 151.782 13.9672C152.837 13.8385 153.621 13.6239 154.13 13.3173C154.547 13.066 154.762 12.741 154.762 12.3487C154.707 11.9195 154.48 11.6007 154.075 11.3922ZM149.029 22.5689C149.379 22.8877 149.906 23.0471 150.617 23.0471C151.948 23.0471 153.008 22.6608 153.732 21.9374C154.443 21.2262 154.835 20.1655 154.835 18.829V17.566C154.388 17.7377 153.916 17.8971 153.431 18.0442C152.732 18.2527 151.997 18.4428 151.218 18.6022H151.212C150.255 18.78 149.544 19.0865 149.084 19.5157C148.655 19.908 148.441 20.423 148.441 21.0607C148.49 21.7473 148.686 22.2501 149.029 22.5689Z" fill="#007BAC"/>
<path fill-rule="evenodd" clip-rule="evenodd" d="M98.8169 21.108H94.8134C94.0777 21.108 93.4646 21.3532 92.9742 21.8866C91.9135 22.9043 90.7302 23.4377 89.4611 23.4377C86.8065 23.4377 85.378 21.764 85.1756 18.4533H99.1418C99.5526 9.99878 96.3216 5.79297 89.4611 5.79297C82.8888 5.83589 79.5781 9.5083 79.5781 16.8593C79.5781 24.2102 82.8459 28.0052 89.3814 28.2137C94.6969 28.2137 97.6336 25.6816 98.8169 21.108ZM89.3876 10.244C91.7173 10.244 93.06 11.7154 93.3911 14.5724H85.2676C85.6722 11.7154 87.0578 10.244 89.3876 10.244Z" fill="#007BAC"/>
<path fill-rule="evenodd" clip-rule="evenodd" d="M121.969 27.7479V8.68078C121.969 7.93894 122.269 7.24614 122.754 6.73728C123.232 6.23454 123.894 5.92188 124.636 5.92188H126.867H127.333V6.38783V13.9043H135.169V6.38783V5.92188H135.635H140.061H140.527V6.38783V27.7479V28.2138H140.061H135.635H135.169V27.7479V18.76H127.327V27.7479V28.2138H126.861H122.435H121.969V27.7479Z" fill="#007BAC"/>
<path fill-rule="evenodd" clip-rule="evenodd" d="M103.722 5.92188H109.877C113.415 5.92188 115.959 6.94573 117.639 8.8647C119.306 10.7714 120.079 13.5487 120.079 17.0679C120.079 19.8084 119.478 22.1994 118.325 24.051C117.185 25.8841 115.511 27.1777 113.359 27.754C112.795 27.9012 112.115 28.0177 111.318 28.0974C110.545 28.1709 109.681 28.2138 108.712 28.2138H101.521H101.055V27.7479V8.68078C101.055 7.81633 101.282 7.14192 101.735 6.66371C102.189 6.19163 102.845 5.94027 103.709 5.92188H103.722ZM113.5 21.8745C114.346 20.82 114.69 19.2137 114.69 17.074C114.69 15.0263 114.383 13.3771 113.617 12.2612C112.881 11.1883 111.686 10.5936 109.877 10.5936H106.29V23.4256H109.313C111.33 23.4195 112.673 22.8983 113.5 21.8745Z" fill="#007BAC"/>
<path fill-rule="evenodd" clip-rule="evenodd" d="M55.2874 27.6809V8.68741C55.2874 8.31342 55.361 7.95169 55.4958 7.62062C55.6368 7.27729 55.8392 6.96461 56.0905 6.70098C56.3419 6.43735 56.6423 6.22891 56.9734 6.08177C57.2922 5.94076 57.6478 5.86719 58.0156 5.86719H62.2398H62.4606H62.6506L62.6997 6.05111L62.7548 6.26569L66.5192 20.4955L70.1732 6.27183L70.2284 6.05724L70.2775 5.86719H70.4675H70.6882H77.1686H77.4567H77.7081V6.11856V6.40671V27.6871V27.9752V28.2266H77.4567H77.1686H73.067H72.7789H72.5275V27.9752V27.6871V14.806L69.2352 27.8158L69.18 28.0365L69.131 28.2266H68.9348H68.7141H64.2692H64.0485H63.8584L63.8093 28.0365L63.7542 27.8158L60.4619 14.806V27.6871V27.9752V28.2266H60.2105H59.9224H55.8208H55.5326H55.2812V27.9752V27.6809H55.2874Z" fill="#007BAC"/>
<path fill-rule="evenodd" clip-rule="evenodd" d="M108.592 37.9599C108.592 38.199 108.641 38.432 108.739 38.6405C108.837 38.855 108.972 39.0451 109.137 39.2045C109.303 39.3639 109.493 39.4927 109.707 39.5846C109.922 39.6766 110.155 39.7256 110.394 39.7256C110.633 39.7256 110.866 39.6766 111.075 39.5846C111.289 39.4927 111.485 39.3639 111.651 39.2045C111.816 39.0451 111.951 38.855 112.049 38.6405C112.148 38.4259 112.197 38.199 112.197 37.9599V32.2214H114.391V37.9599C114.391 38.5117 114.287 39.0267 114.079 39.5049C113.87 39.9831 113.582 40.4 113.22 40.7618C112.859 41.1174 112.436 41.3994 111.951 41.6078C111.467 41.8163 110.946 41.9205 110.394 41.9205C110.026 41.9205 109.677 41.8715 109.333 41.7795C108.996 41.6875 108.677 41.5526 108.383 41.381C108.089 41.2093 107.819 41.0009 107.574 40.7618C107.329 40.5227 107.12 40.2529 106.942 39.9586C106.771 39.6643 106.636 39.3517 106.538 39.0145C106.44 38.6773 106.391 38.3217 106.391 37.9599V32.2214H108.585V37.9599H108.592ZM125.495 41.8285H123.318L118.726 35.1826V41.8285H116.543V32.2214H118.701C118.916 32.2214 119.106 32.2521 119.272 32.3134C119.437 32.3747 119.566 32.4728 119.652 32.6015L123.012 37.5247C123.061 37.5982 123.103 37.6718 123.14 37.7576C123.177 37.8434 123.208 37.9232 123.232 37.9967C123.257 38.0703 123.281 38.1377 123.294 38.1868C123.306 38.242 123.312 38.2726 123.312 38.2849V32.2153H125.495V41.8285ZM130.289 41.8285H128.088V32.2214H130.289V41.8285ZM139.111 33.0736C139.166 32.9387 139.246 32.8222 139.338 32.718C139.43 32.6138 139.534 32.5218 139.651 32.4483C139.767 32.3747 139.896 32.3195 140.031 32.2766C140.166 32.2398 140.307 32.2214 140.454 32.2214H141.876L137.683 41.8347H135.794L131.601 32.2214H133.017C133.158 32.2214 133.293 32.2398 133.434 32.2827C133.575 32.3256 133.704 32.387 133.82 32.4667C133.943 32.5464 134.053 32.6322 134.145 32.7364C134.243 32.8406 134.317 32.951 134.366 33.0736L136.549 38.0948C136.579 38.1684 136.604 38.242 136.628 38.3339C136.647 38.4197 136.665 38.5056 136.683 38.5792C136.702 38.6711 136.714 38.7569 136.732 38.8489C136.739 38.7631 136.751 38.6773 136.763 38.5914C136.775 38.5179 136.794 38.432 136.818 38.3523C136.843 38.2665 136.867 38.1868 136.904 38.1132L139.111 33.0736ZM149.325 41.8285H142.925V32.2214H149.325V34.2753H145.126V35.9613H148.541V38.009H145.126V39.7808H149.325V41.8285ZM153.519 41.8285H151.318V32.2214H155.082C155.444 32.2214 155.781 32.2705 156.088 32.3624C156.394 32.4544 156.67 32.5831 156.922 32.7425C157.167 32.9019 157.387 33.092 157.578 33.3066C157.768 33.5212 157.927 33.7541 158.056 34.0055C158.185 34.2507 158.276 34.5082 158.344 34.7719C158.411 35.0355 158.442 35.2991 158.442 35.5566C158.442 35.8141 158.418 36.0655 158.362 36.3169C158.307 36.5682 158.215 36.8135 158.099 37.0587C157.976 37.3039 157.823 37.5308 157.633 37.7515C157.443 37.9722 157.21 38.1806 156.934 38.3707L159.497 41.8285H157.67H157.627C157.584 41.8285 157.522 41.8224 157.424 41.8101C157.326 41.7979 157.216 41.7672 157.099 41.7182C156.977 41.6691 156.854 41.5956 156.719 41.4975C156.584 41.3994 156.456 41.2645 156.339 41.0867L154.733 38.9102H153.537V41.8285H153.519ZM155.205 36.697C155.34 36.697 155.469 36.6602 155.591 36.5989C155.714 36.5314 155.824 36.4456 155.922 36.3353C156.02 36.231 156.094 36.1023 156.155 35.9674C156.216 35.8325 156.241 35.6976 156.241 35.5566C156.241 35.4156 156.21 35.2807 156.155 35.1459C156.1 35.011 156.02 34.8884 155.922 34.7841C155.824 34.6799 155.714 34.5879 155.591 34.5205C155.469 34.4531 155.334 34.4224 155.205 34.4224H153.519V36.7031H155.205V36.697ZM163.531 34.3243C163.414 34.3243 163.304 34.3366 163.193 34.355C163.083 34.3734 162.985 34.404 162.899 34.4531C162.813 34.496 162.746 34.5511 162.697 34.6186C162.648 34.686 162.617 34.7657 162.617 34.8577C162.617 35.0048 162.654 35.1152 162.721 35.1949C162.795 35.2746 162.905 35.342 163.046 35.4033C163.193 35.4647 163.371 35.526 163.592 35.5811C163.807 35.6425 164.064 35.7222 164.352 35.8203C164.72 35.9429 165.063 36.1023 165.37 36.2801C165.676 36.464 165.94 36.6724 166.155 36.9177C166.369 37.1629 166.541 37.4327 166.657 37.7392C166.78 38.0458 166.835 38.383 166.835 38.757C166.835 39.2229 166.737 39.6521 166.541 40.0383C166.345 40.4246 166.081 40.7556 165.756 41.0315C165.425 41.3136 165.045 41.522 164.622 41.6814C164.193 41.8347 163.751 41.9144 163.292 41.9144C162.899 41.9144 162.525 41.8531 162.17 41.7427C161.814 41.6262 161.489 41.4607 161.189 41.2584C160.894 41.0499 160.631 40.7986 160.41 40.5104C160.189 40.2222 160.012 39.9096 159.889 39.5662L160.588 39.1616C160.698 39.1003 160.821 39.0512 160.95 39.0145C161.078 38.9777 161.207 38.9531 161.336 38.9531C161.526 38.9531 161.704 38.9961 161.857 39.0758C162.01 39.1555 162.163 39.2413 162.311 39.3394C162.458 39.4314 162.611 39.5172 162.764 39.603C162.924 39.6827 163.102 39.7256 163.304 39.7256C163.439 39.7256 163.586 39.7011 163.745 39.6582C163.905 39.6153 164.052 39.554 164.187 39.4743C164.322 39.3946 164.432 39.2904 164.524 39.1739C164.616 39.0574 164.659 38.9164 164.659 38.7631C164.659 38.6159 164.622 38.4933 164.536 38.4014C164.456 38.3094 164.34 38.2297 164.199 38.1561C164.058 38.0887 163.892 38.0213 163.715 37.9661C163.531 37.9109 163.341 37.8373 163.138 37.7576C162.807 37.635 162.482 37.494 162.157 37.3468C161.839 37.1997 161.55 37.0158 161.293 36.8012C161.035 36.5866 160.833 36.323 160.674 36.0103C160.514 35.6976 160.435 35.3114 160.435 34.8516C160.435 34.4163 160.527 34.03 160.698 33.6928C160.876 33.3556 161.109 33.0675 161.397 32.8345C161.685 32.6015 162.022 32.4237 162.39 32.3011C162.764 32.1785 163.144 32.1172 163.537 32.1172C163.825 32.1172 164.101 32.1662 164.371 32.2643C164.64 32.3624 164.898 32.485 165.137 32.6383C165.376 32.7916 165.603 32.9694 165.811 33.1656C166.02 33.3618 166.21 33.5641 166.382 33.7725L165.707 34.3427C165.572 34.4592 165.437 34.5389 165.29 34.5941C165.143 34.6431 164.984 34.6676 164.806 34.6676C164.665 34.6676 164.536 34.6493 164.432 34.6125C164.328 34.5757 164.223 34.5328 164.131 34.4898C164.04 34.4469 163.941 34.4101 163.849 34.3672C163.745 34.3427 163.641 34.3243 163.531 34.3243ZM170.937 41.8285H168.736V32.2214H170.937V41.8285ZM172.623 34.2691V32.2153H180.164V34.2691H177.497V41.8285H175.296V34.2691H172.623ZM186.632 41.8285H184.431V37.7515C184.431 37.6595 184.4 37.5676 184.345 37.4633C184.284 37.3591 184.222 37.2549 184.143 37.1445L180.495 32.2153H182.285C182.616 32.2153 182.904 32.2827 183.156 32.4115C183.401 32.5402 183.609 32.7241 183.781 32.9571L185.308 35.0232C185.351 35.0845 185.387 35.1459 185.412 35.201C185.436 35.2562 185.461 35.3114 185.479 35.3604C185.498 35.4156 185.516 35.4647 185.528 35.5137C185.541 35.4647 185.559 35.4156 185.577 35.3604C185.596 35.3114 185.62 35.2562 185.645 35.201C185.669 35.1459 185.706 35.0845 185.749 35.0232L187.263 32.9694C187.429 32.7119 187.637 32.5218 187.889 32.3992C188.14 32.2766 188.434 32.2091 188.759 32.2091H190.562L186.908 37.1507C186.828 37.261 186.761 37.3591 186.705 37.4572C186.65 37.5492 186.62 37.6473 186.62 37.7454V41.8285H186.632Z" fill="#E09400"/>
<path fill-rule="evenodd" clip-rule="evenodd" d="M92.9291 34.4136C92.8126 34.4136 92.7023 34.4259 92.5919 34.4443C92.4816 34.4627 92.3835 34.4933 92.2976 34.5424C92.2118 34.5853 92.1444 34.6405 92.0953 34.7079C92.0463 34.7753 92.0156 34.855 92.0156 34.947C92.0156 35.0942 92.0524 35.2045 92.1198 35.2842C92.1934 35.3639 92.3038 35.4314 92.4448 35.4927C92.5919 35.554 92.7697 35.6153 92.9904 35.6705C93.205 35.7318 93.4564 35.8115 93.7507 35.9096C94.1185 36.0322 94.4619 36.1916 94.7684 36.3694C95.0749 36.5472 95.3386 36.7618 95.5532 37.007C95.7677 37.2522 95.9394 37.522 96.0559 37.8285C96.1785 38.1351 96.2398 38.4723 96.2398 38.8463C96.2398 39.3122 96.1417 39.7414 95.9455 40.1276C95.7494 40.5139 95.4857 40.8449 95.1608 41.127C94.8297 41.409 94.4496 41.6236 94.0266 41.7769C93.5974 41.9301 93.1499 42.0098 92.69 42.0098C92.2977 42.0098 91.9237 41.9546 91.5681 41.8381C91.2125 41.7217 90.8875 41.5561 90.5871 41.3538C90.2928 41.1454 90.0292 40.894 89.8024 40.6058C89.5816 40.3177 89.4039 40.005 89.2812 39.6617L89.9802 39.257C90.0905 39.1957 90.2131 39.1467 90.3419 39.1099C90.4706 39.0731 90.5933 39.0547 90.7281 39.0547C90.9182 39.0547 91.096 39.0976 91.2493 39.1773C91.4025 39.257 91.5558 39.3429 91.7029 39.441C91.8501 39.5329 92.0034 39.6188 92.1566 39.7046C92.3099 39.7843 92.4938 39.8272 92.69 39.8272C92.8249 39.8272 92.9721 39.8027 93.1315 39.7598C93.2909 39.7169 93.438 39.6555 93.5729 39.5758C93.7078 39.4961 93.8181 39.398 93.9101 39.2754C94.002 39.1589 94.045 39.0179 94.045 38.8647C94.045 38.7175 94.002 38.5949 93.9223 38.5029C93.8426 38.411 93.7262 38.3313 93.5851 38.2577C93.4441 38.1903 93.2847 38.1228 93.1008 38.0676C92.9169 38.0125 92.7268 37.9389 92.5245 37.8592C92.1934 37.7366 91.8685 37.5956 91.5435 37.4484C91.2247 37.3013 90.9366 37.1174 90.6791 36.9028C90.4216 36.6882 90.2193 36.4246 90.0599 36.1119C89.9005 35.7992 89.8208 35.413 89.8208 34.9531C89.8208 34.5179 89.9127 34.1316 90.0844 33.7944C90.2622 33.4572 90.4952 33.169 90.7833 32.9361C91.0715 32.7031 91.4087 32.5253 91.7827 32.4027C92.1566 32.2801 92.5368 32.2188 92.9291 32.2188C93.2173 32.2188 93.4932 32.2678 93.7629 32.3659C94.0327 32.464 94.2902 32.5866 94.5293 32.7399C94.7684 32.8932 94.9952 33.071 95.2037 33.2671C95.4121 33.4633 95.6022 33.6657 95.7739 33.8741L95.0995 34.4443C94.9646 34.5608 94.8236 34.6405 94.6826 34.6895C94.5354 34.7386 94.376 34.7631 94.1982 34.7631C94.0572 34.7631 93.9285 34.7447 93.8242 34.7079C93.7139 34.6711 93.6158 34.6282 93.5238 34.5853C93.4319 34.5424 93.3338 34.5056 93.2418 34.4627C93.1376 34.432 93.0395 34.4136 92.9291 34.4136Z" fill="#E09400"/>
<path fill-rule="evenodd" clip-rule="evenodd" d="M82.6094 41.9258V32.3125H84.8104V39.8719H88.6054V41.9258H82.6094Z" fill="#E09400"/>
<path fill-rule="evenodd" clip-rule="evenodd" d="M75.1875 41.9219V32.3086H77.3885V39.868H81.1774V41.9219H75.1875Z" fill="#E09400"/>
<path d="M72.6167 32.3125H70.4219V41.9258H72.6167V32.3125Z" fill="#E09400"/>
<path fill-rule="evenodd" clip-rule="evenodd" d="M63.265 36.5674L65.5764 33.0605C65.6377 32.9685 65.7112 32.8765 65.7971 32.7846C65.8829 32.6926 65.9749 32.619 66.073 32.5455C66.1711 32.478 66.2753 32.4167 66.3856 32.3738C66.496 32.3309 66.6063 32.3125 66.7228 32.3125H68.6909L65.8093 36.69C65.748 36.7819 65.6745 36.8494 65.5947 36.8984C65.5089 36.9475 65.4599 36.972 65.4415 36.9781C65.4476 36.9781 65.466 36.9842 65.4905 36.9965C65.5212 37.0088 65.5518 37.0272 65.5886 37.0517C65.6254 37.0762 65.6622 37.1069 65.7051 37.1436C65.748 37.1804 65.7787 37.2233 65.8155 37.2663L68.8993 41.9135H66.9313C66.6677 41.9135 66.4469 41.846 66.2691 41.705C66.0913 41.5702 65.9258 41.3862 65.7725 41.1533L63.2711 37.3889C63.2221 37.3153 63.1669 37.2479 63.1117 37.1927C63.0565 37.1375 63.0014 37.0946 62.9462 37.064C62.8971 37.0333 62.8481 37.0088 62.8113 36.9965C62.7745 36.9781 62.7561 36.972 62.75 36.9659C62.7561 36.9659 62.7745 36.9597 62.8113 36.9475C62.8481 36.9352 62.891 36.9107 62.9462 36.88C62.9952 36.8494 63.0504 36.8064 63.1117 36.7513C63.1669 36.7145 63.2159 36.6471 63.265 36.5674Z" fill="#E09400"/>
<path fill-rule="evenodd" clip-rule="evenodd" d="M58.9308 34.4136C58.8143 34.4136 58.704 34.4259 58.5936 34.4443C58.4833 34.4627 58.3852 34.4933 58.2993 34.5424C58.2135 34.5853 58.1461 34.6405 58.097 34.7079C58.048 34.7753 58.0173 34.855 58.0173 34.947C58.0173 35.0942 58.0541 35.2045 58.1277 35.2842C58.2012 35.3639 58.3055 35.4314 58.4526 35.4927C58.5997 35.554 58.7775 35.6153 58.9983 35.6705C59.2128 35.7318 59.4642 35.8115 59.7585 35.9096C60.1263 36.0322 60.4697 36.1916 60.7762 36.3694C61.0828 36.5472 61.3464 36.7618 61.561 37.007C61.7756 37.2522 61.9472 37.522 62.0637 37.8285C62.1863 38.1351 62.2476 38.4723 62.2476 38.8463C62.2476 39.3122 62.1495 39.7414 61.9534 40.1276C61.7572 40.5139 61.4935 40.8449 61.1686 41.127C60.8375 41.409 60.4635 41.6236 60.0344 41.7769C59.6052 41.9301 59.1638 42.0098 58.6978 42.0098C58.3055 42.0098 57.9315 41.9546 57.5759 41.8381C57.2203 41.7217 56.8953 41.5561 56.5949 41.3538C56.3006 41.1454 56.037 40.894 55.8102 40.6058C55.5895 40.3177 55.4117 40.005 55.2891 39.6617L55.988 39.257C56.0983 39.1957 56.2209 39.1467 56.3497 39.1099C56.4784 39.0731 56.6072 39.0547 56.7359 39.0547C56.926 39.0547 57.1038 39.0976 57.2571 39.1773C57.4104 39.257 57.5636 39.3429 57.7108 39.441C57.8579 39.5329 58.0112 39.6188 58.1645 39.7046C58.3177 39.7843 58.5017 39.8272 58.6978 39.8272C58.8327 39.8272 58.9799 39.8027 59.1393 39.7598C59.2987 39.7169 59.4458 39.6555 59.5807 39.5758C59.7156 39.4961 59.8321 39.398 59.9179 39.2754C60.0099 39.1589 60.0528 39.0179 60.0528 38.8647C60.0528 38.7175 60.0098 38.5949 59.9301 38.5029C59.8504 38.411 59.734 38.3313 59.593 38.2577C59.4519 38.1903 59.2925 38.1228 59.1086 38.0676C58.9247 38.0125 58.7346 37.9389 58.5323 37.8592C58.2012 37.7366 57.8763 37.5956 57.5514 37.4484C57.2326 37.3013 56.9444 37.1174 56.6869 36.9028C56.4355 36.6882 56.2271 36.4246 56.0677 36.1119C55.9083 35.7992 55.8286 35.413 55.8286 34.9531C55.8286 34.5179 55.9205 34.1316 56.0922 33.7944C56.27 33.4572 56.503 33.169 56.7911 32.9361C57.0793 32.7031 57.4165 32.5253 57.7905 32.4027C58.1644 32.2801 58.5446 32.2188 58.9369 32.2188C59.2251 32.2188 59.501 32.2678 59.7708 32.3659C60.0405 32.464 60.298 32.5866 60.5371 32.7399C60.7762 32.8932 61.0031 33.071 61.2115 33.2671C61.42 33.4633 61.61 33.6657 61.7817 33.8741L61.1073 34.4443C60.9724 34.5608 60.8314 34.6405 60.6904 34.6895C60.5432 34.7386 60.3838 34.7631 60.206 34.7631C60.065 34.7631 59.9363 34.7447 59.832 34.7079C59.7278 34.6711 59.6236 34.6282 59.5316 34.5853C59.4397 34.5424 59.3416 34.5056 59.2496 34.4627C59.1454 34.432 59.0412 34.4136 58.9308 34.4136Z" fill="#E09400"/>
<path fill-rule="evenodd" clip-rule="evenodd" d="M58.3603 55.0407C58.2254 54.9427 58.0844 54.863 57.9495 54.8078C57.8085 54.7465 57.6798 54.7219 57.5572 54.7219C57.3916 54.7219 57.2384 54.7465 57.0974 54.7894C56.9564 54.8323 56.8276 54.8997 56.7172 54.9794C56.6069 55.0591 56.5211 55.1572 56.4597 55.2615C56.3923 55.3718 56.3616 55.4883 56.3616 55.6171C56.3616 55.7642 56.3862 55.8929 56.4352 55.9972C56.4843 56.1014 56.564 56.1934 56.6682 56.2731C56.7785 56.3528 56.9134 56.4325 57.0851 56.506C57.2568 56.5796 57.4652 56.6593 57.7105 56.739C57.8331 56.7881 57.9557 56.831 58.0783 56.8739C58.2009 56.9168 58.3235 56.9659 58.44 57.0149C58.5565 57.0639 58.673 57.1191 58.7895 57.1804C58.906 57.2417 59.0163 57.3092 59.1206 57.3889C59.6478 57.7874 59.9053 58.3269 59.9053 59.0074C59.9053 59.3508 59.8379 59.6573 59.6969 59.9393C59.5559 60.2214 59.3719 60.4666 59.1328 60.6689C58.8999 60.8712 58.624 61.0307 58.3174 61.141C58.0109 61.2514 57.6859 61.3127 57.3487 61.3127C56.6805 61.3127 56.1164 61.1103 55.6627 60.7118C55.5708 60.6321 55.4911 60.5524 55.4236 60.4666C55.3562 60.3869 55.2949 60.3072 55.2458 60.2275C55.1968 60.1539 55.1539 60.0804 55.1171 60.019C55.0803 59.9577 55.0558 59.9026 55.0312 59.8658L55.2826 59.737C55.4175 59.6573 55.5524 59.6144 55.6934 59.6144C55.9202 59.6144 56.1103 59.6941 56.2635 59.8597L56.3494 59.9271C56.4843 60.0374 56.6253 60.1233 56.7908 60.1846C56.9502 60.2459 57.1403 60.2765 57.3487 60.2765C57.5204 60.2765 57.6921 60.2459 57.876 60.1907C58.0538 60.1355 58.2193 60.0558 58.3665 59.9455C58.5136 59.8412 58.6362 59.7064 58.7343 59.547C58.8324 59.3876 58.8753 59.2036 58.8753 58.9952C58.8753 58.7929 58.8324 58.6273 58.7404 58.4986C58.6485 58.3637 58.532 58.2533 58.391 58.1614C58.25 58.0694 58.0844 57.9897 57.9066 57.9223C57.7289 57.8548 57.551 57.7874 57.3794 57.72C57.1219 57.6219 56.8705 57.5176 56.6253 57.4073C56.3801 57.3031 56.1593 57.1682 55.9693 57.0149C55.7792 56.8616 55.6198 56.6716 55.5033 56.4447C55.3868 56.2179 55.3317 55.942 55.3317 55.6109C55.3317 55.3044 55.393 55.0346 55.5217 54.7955C55.6505 54.5564 55.816 54.3541 56.0245 54.1886C56.2329 54.023 56.472 53.9004 56.7356 53.8084C57.0054 53.7226 57.2752 53.6797 57.5572 53.6797C57.7595 53.6797 57.9679 53.7165 58.1641 53.7839C58.3665 53.8514 58.5565 53.9433 58.7343 54.0475C58.9121 54.1579 59.0715 54.2744 59.2125 54.4031C59.3535 54.5319 59.4762 54.6545 59.5681 54.7649L59.3045 54.961C59.1574 55.0837 58.9918 55.1511 58.8018 55.1511C58.6362 55.1634 58.4891 55.1205 58.3603 55.0407Z" fill="#007BAC"/>
<path fill-rule="evenodd" clip-rule="evenodd" d="M63.0397 58.0957L64.413 56.2381C64.5111 56.0787 64.6399 55.9622 64.7932 55.8886C64.9464 55.8089 65.1242 55.7721 65.3266 55.7721H66.0377L64.1923 58.2735C64.1556 58.3226 64.1188 58.3594 64.0881 58.3839C64.0575 58.4084 64.0391 58.4207 64.0329 58.4207C64.0391 58.4268 64.0575 58.4391 64.0881 58.4636C64.1188 58.482 64.1556 58.5188 64.1923 58.5678L66.1787 61.247H65.4676C65.2652 61.247 65.0874 61.2102 64.9342 61.1305C64.7809 61.0508 64.6522 60.9343 64.5541 60.7749L63.0459 58.7456C63.0029 58.6843 62.9539 58.6352 62.911 58.5985C62.8681 58.5555 62.8251 58.5249 62.7884 58.5004C62.7516 58.4759 62.7209 58.4574 62.6964 58.4452C62.6719 58.4329 62.6596 58.4268 62.6535 58.4207C62.6596 58.4207 62.6719 58.4145 62.6964 58.4023C62.7209 58.39 62.7516 58.3716 62.7884 58.3532C62.8251 58.3287 62.8619 58.298 62.911 58.2551C62.9478 58.2061 62.9907 58.157 63.0397 58.0957ZM62.3347 61.2409H61.3047V53.7734H62.3347V61.2409Z" fill="#007BAC"/>
<path fill-rule="evenodd" clip-rule="evenodd" d="M68.2122 61.2391H67.1822V55.7642H68.2122V61.2391ZM66.9922 54.3909C66.9922 54.2928 67.0106 54.2008 67.0474 54.115C67.0841 54.0291 67.1332 53.9556 67.2006 53.8881C67.2619 53.8268 67.3416 53.7716 67.4275 53.7349C67.5133 53.6981 67.6053 53.6797 67.7034 53.6797C67.8015 53.6797 67.8934 53.6981 67.9793 53.7349C68.0651 53.7716 68.1387 53.8207 68.2061 53.8881C68.2735 53.9556 68.3226 54.0291 68.3594 54.115C68.3962 54.2008 68.4145 54.2928 68.4145 54.3909C68.4145 54.489 68.3962 54.5809 68.3594 54.6668C68.3226 54.7526 68.2735 54.8262 68.2061 54.8936C68.1387 54.9611 68.0651 55.0101 67.9793 55.0469C67.8934 55.0837 67.8015 55.1021 67.7034 55.1021C67.6053 55.1021 67.5133 55.0837 67.4275 55.0469C67.3416 55.0101 67.2681 54.9611 67.2006 54.8936C67.1393 54.8262 67.0841 54.7526 67.0474 54.6668C67.0106 54.5809 66.9922 54.489 66.9922 54.3909Z" fill="#007BAC"/>
<path d="M71.0456 53.7734H70.0156V61.2409H71.0456V53.7734Z" fill="#007BAC"/>
<path d="M73.8581 53.7734H72.8281V61.2409H73.8581V53.7734Z" fill="#007BAC"/>
<path fill-rule="evenodd" clip-rule="evenodd" d="M79.6328 57.4672C79.6328 57.2219 79.6819 56.9951 79.7738 56.7805C79.8658 56.5659 79.9945 56.3758 80.1539 56.2164C80.3133 56.057 80.5034 55.9283 80.718 55.8363C80.9326 55.7444 81.1655 55.6953 81.4046 55.6953C81.6499 55.6953 81.8767 55.7382 82.0913 55.8363C82.3059 55.9283 82.4959 56.057 82.6553 56.2164C82.8147 56.3758 82.9435 56.5659 83.0355 56.7805C83.1274 56.9951 83.1765 57.228 83.1765 57.4672C83.1765 57.7063 83.1336 57.9392 83.0355 58.1538C82.9435 58.3684 82.8147 58.5584 82.6553 58.7178C82.4959 58.8772 82.3059 59.006 82.0913 59.098C81.8767 59.1899 81.6437 59.239 81.4046 59.239C81.1594 59.239 80.9326 59.1899 80.718 59.098C80.5034 59.006 80.3133 58.8772 80.1539 58.7178C79.9945 58.5584 79.8658 58.3684 79.7738 58.1538C79.6757 57.9392 79.6328 57.7063 79.6328 57.4672Z" fill="#007BAC"/>
<path fill-rule="evenodd" clip-rule="evenodd" d="M93.5853 61.2409H88.9688V53.7734H93.5853V54.8034H89.9987V56.9554H92.8987V57.9915H89.9987V60.2109H93.5853V61.2409Z" fill="#007BAC"/>
<path fill-rule="evenodd" clip-rule="evenodd" d="M98.8708 56.7621C98.9382 56.572 99.0363 56.4126 99.1589 56.2778C99.2877 56.1429 99.4287 56.0325 99.5942 55.9467C99.7536 55.8608 99.9253 55.7934 100.109 55.7566C100.293 55.7198 100.471 55.6953 100.655 55.6953C100.986 55.6953 101.274 55.7628 101.507 55.9038C101.74 56.0448 101.93 56.2287 102.077 56.4555C102.224 56.6824 102.329 56.946 102.396 57.2403C102.463 57.5346 102.5 57.835 102.5 58.1415V61.2438H101.446V58.1477C101.446 58.0005 101.433 57.835 101.415 57.6633C101.391 57.4917 101.348 57.3323 101.286 57.1913C101.219 57.0502 101.133 56.9276 101.023 56.8357C100.912 56.7376 100.765 56.6947 100.581 56.6947C100.403 56.6947 100.238 56.7192 100.079 56.7682C99.9192 56.8173 99.7843 56.8847 99.6617 56.9767C99.539 57.0625 99.441 57.1606 99.3674 57.2771C99.2938 57.3875 99.2509 57.5101 99.2448 57.6327V61.2438H98.1902V58.1477C98.1902 58.0005 98.178 57.835 98.1535 57.6633C98.1289 57.4917 98.086 57.3323 98.0247 57.1913C97.9573 57.0502 97.8714 56.9276 97.7611 56.8357C97.6507 56.7376 97.5036 56.6947 97.3197 56.6947C97.1419 56.6947 96.9763 56.7192 96.8169 56.7682C96.6575 56.8173 96.5165 56.8847 96.4 56.9767C96.2774 57.0625 96.1793 57.1606 96.1057 57.2771C96.0322 57.3875 95.9892 57.5101 95.9831 57.6327V61.2438H94.9531V55.7689H95.8298C95.8605 55.8118 95.885 55.8547 95.9034 55.8976C95.9218 55.9344 95.9402 55.9835 95.9586 56.0325C95.977 56.0877 95.9831 56.1429 95.9831 56.2042V56.4249C96.0444 56.3023 96.1303 56.1919 96.2284 56.1C96.3265 56.008 96.4429 55.9283 96.5656 55.8731C96.6882 55.8118 96.8231 55.7689 96.9641 55.7382C97.1051 55.7076 97.2522 55.6953 97.3994 55.6953C97.614 55.6953 97.804 55.7198 97.9634 55.7689C98.1228 55.8179 98.2638 55.8854 98.3864 55.9835C98.5029 56.0754 98.601 56.1858 98.6807 56.3207C98.7543 56.4433 98.8217 56.5965 98.8708 56.7621Z" fill="#007BAC"/>
<path fill-rule="evenodd" clip-rule="evenodd" d="M106.574 60.3147C106.825 60.3147 107.052 60.2656 107.261 60.1736C107.469 60.0755 107.647 59.9468 107.8 59.7874C107.953 59.6218 108.07 59.4318 108.15 59.2172C108.235 58.9965 108.272 58.7635 108.272 58.5122C108.272 58.2608 108.229 58.0278 108.15 57.8071C108.064 57.5864 107.947 57.3963 107.8 57.2369C107.647 57.0714 107.469 56.9427 107.261 56.8507C107.052 56.7526 106.825 56.7097 106.574 56.7097C106.304 56.7097 106.047 56.7649 105.795 56.8691C105.544 56.9733 105.329 57.1204 105.145 57.3044V59.7322C105.323 59.9161 105.544 60.0633 105.795 60.1675C106.047 60.2595 106.31 60.3147 106.574 60.3147ZM104.992 55.7655C105.023 55.8084 105.047 55.8514 105.066 55.8881C105.084 55.9249 105.103 55.974 105.121 56.023C105.139 56.0782 105.145 56.1334 105.145 56.1947V56.4093C105.158 56.3173 105.188 56.2315 105.244 56.1579C105.299 56.0843 105.366 56.023 105.452 55.9678C105.538 55.9127 105.63 55.8697 105.734 55.833C105.838 55.7962 105.936 55.7655 106.041 55.7471C106.145 55.7226 106.243 55.7103 106.335 55.6981C106.427 55.6858 106.507 55.6797 106.574 55.6797C106.96 55.6797 107.316 55.7532 107.647 55.9004C107.978 56.0475 108.266 56.2499 108.505 56.5074C108.744 56.7649 108.934 57.0653 109.075 57.4025C109.21 57.7458 109.284 58.1075 109.284 58.4938C109.284 58.88 109.216 59.2417 109.075 59.5851C108.941 59.9284 108.75 60.2288 108.505 60.4802C108.266 60.7377 107.978 60.94 107.647 61.0872C107.316 61.2343 106.954 61.3079 106.574 61.3079C106.451 61.3079 106.329 61.3017 106.206 61.2833C106.084 61.2649 105.961 61.2343 105.838 61.1975C105.716 61.1546 105.599 61.0994 105.477 61.0258C105.36 60.9523 105.25 60.8664 105.139 60.7561V63H104.109V55.7594H104.992V55.7655Z" fill="#007BAC"/>
<path fill-rule="evenodd" clip-rule="evenodd" d="M111.248 58.5094C111.248 58.7608 111.297 58.9937 111.389 59.2144C111.487 59.4352 111.616 59.6252 111.775 59.7846C111.94 59.9502 112.131 60.0789 112.345 60.1709C112.566 60.269 112.799 60.3119 113.05 60.3119C113.302 60.3119 113.534 60.2628 113.755 60.1709C113.976 60.0728 114.166 59.944 114.325 59.7846C114.491 59.6191 114.62 59.429 114.712 59.2144C114.81 58.9937 114.853 58.7608 114.853 58.5094C114.853 58.258 114.804 58.0251 114.712 57.8043C114.614 57.5836 114.485 57.3936 114.325 57.2342C114.16 57.0686 113.97 56.9399 113.755 56.8479C113.534 56.7498 113.302 56.7069 113.05 56.7069C112.799 56.7069 112.566 56.756 112.345 56.8479C112.124 56.946 111.934 57.0748 111.775 57.2342C111.609 57.3997 111.481 57.5898 111.389 57.8043C111.297 58.0251 111.248 58.258 111.248 58.5094ZM110.242 58.5094C110.242 58.1231 110.316 57.7614 110.463 57.4181C110.61 57.0748 110.812 56.7744 111.07 56.523C111.327 56.2655 111.622 56.0632 111.965 55.916C112.308 55.7689 112.67 55.6953 113.056 55.6953C113.443 55.6953 113.804 55.7689 114.148 55.916C114.491 56.0632 114.791 56.2655 115.043 56.523C115.3 56.7805 115.496 57.0748 115.65 57.4181C115.797 57.7614 115.87 58.1231 115.87 58.5094C115.87 58.8956 115.797 59.2574 115.65 59.6007C115.503 59.944 115.3 60.2445 115.043 60.4958C114.785 60.7533 114.491 60.9556 114.148 61.1028C113.804 61.2499 113.443 61.3235 113.056 61.3235C112.67 61.3235 112.308 61.2499 111.965 61.1028C111.622 60.9556 111.327 60.7533 111.07 60.4958C110.812 60.2383 110.61 59.944 110.463 59.6007C110.316 59.2574 110.242 58.8956 110.242 58.5094Z" fill="#007BAC"/>
<path fill-rule="evenodd" clip-rule="evenodd" d="M120.931 58.0547C120.924 58.0608 120.458 59.1276 119.539 61.2427H118.533L116.148 55.7678H116.743C116.903 55.7678 117.05 55.8108 117.191 55.8966C117.332 55.9824 117.43 56.0989 117.485 56.246L118.944 59.5935C118.975 59.661 118.999 59.7407 119.012 59.8265C119.024 59.9123 119.036 60.0043 119.042 60.1024C119.048 59.9001 119.079 59.7345 119.14 59.5997L120.599 56.246C120.661 56.0989 120.759 55.9824 120.894 55.8966C121.029 55.8108 121.176 55.7678 121.335 55.7678H121.93L121.329 57.1412L122.408 59.5997C122.433 59.6671 122.451 59.7345 122.469 59.8081C122.488 59.8817 122.494 59.9675 122.506 60.0534C122.518 59.8756 122.549 59.7223 122.604 59.5935L124.063 56.2399C124.125 56.0928 124.223 55.9763 124.358 55.8905C124.493 55.8046 124.64 55.7617 124.799 55.7617H125.394L123.009 61.2366H122.003L121.041 59.0233C120.931 58.7781 120.881 58.5574 120.881 58.3612C120.875 58.257 120.894 58.1528 120.931 58.0547Z" fill="#007BAC"/>
<path fill-rule="evenodd" clip-rule="evenodd" d="M127.107 57.8144H130.172C130.105 57.6488 130.013 57.5017 129.902 57.3607C129.792 57.2258 129.663 57.1032 129.516 57.0051C129.375 56.907 129.216 56.8273 129.038 56.7721C128.866 56.7169 128.682 56.6863 128.498 56.6863C128.296 56.6863 128.1 56.7169 127.91 56.7844C127.726 56.8518 127.554 56.9377 127.401 57.0541C127.248 57.1706 127.119 57.3055 127.008 57.4649C126.898 57.6243 126.818 57.796 126.763 57.986C126.788 57.9492 126.831 57.9125 126.886 57.8696C126.947 57.8389 127.015 57.8144 127.107 57.8144ZM131.239 58.0412C131.239 58.1638 131.214 58.2742 131.171 58.3662C131.122 58.4643 131.067 58.544 131 58.6114C130.932 58.6788 130.852 58.7279 130.767 58.7708C130.681 58.8076 130.601 58.826 130.521 58.826H126.714C126.745 59.0406 126.812 59.2368 126.923 59.4145C127.033 59.5923 127.162 59.7517 127.321 59.8866C127.48 60.0215 127.664 60.1257 127.861 60.2054C128.063 60.279 128.271 60.3219 128.492 60.3219C128.651 60.3219 128.805 60.3035 128.952 60.2606C129.099 60.2177 129.24 60.1625 129.369 60.089C129.436 60.0522 129.504 60.0215 129.571 60.0031C129.639 59.9847 129.712 59.9786 129.792 59.9786C129.902 59.9786 130.006 59.997 130.092 60.0399C130.184 60.0828 130.27 60.1441 130.35 60.2238L130.546 60.42C130.282 60.6959 129.982 60.9166 129.626 61.0822C129.277 61.2416 128.897 61.3274 128.486 61.3274C128.1 61.3274 127.738 61.2538 127.395 61.1067C127.051 60.9595 126.757 60.7572 126.5 60.4997C126.242 60.2422 126.04 59.9479 125.893 59.6046C125.745 59.2613 125.672 58.8995 125.672 58.5133C125.672 58.1271 125.745 57.7653 125.893 57.422C126.04 57.0787 126.242 56.7783 126.5 56.5269C126.757 56.2694 127.051 56.0732 127.395 55.9199C127.738 55.7728 128.1 55.6992 128.486 55.6992C128.811 55.6992 129.117 55.7544 129.412 55.8586C129.706 55.969 129.976 56.1161 130.215 56.3C130.454 56.4901 130.662 56.7108 130.834 56.9683C131.006 57.2258 131.128 57.5078 131.208 57.8083C131.22 57.845 131.226 57.8879 131.226 57.9309C131.233 57.9615 131.233 58.0044 131.239 58.0412Z" fill="#007BAC"/>
<path fill-rule="evenodd" clip-rule="evenodd" d="M133.352 55.7677C133.382 55.8107 133.407 55.8536 133.425 55.8904C133.444 55.9272 133.462 55.9762 133.48 56.0252C133.499 56.0804 133.505 56.1356 133.505 56.1969V56.577C133.566 56.4544 133.652 56.3379 133.768 56.2276C133.879 56.1172 134.001 56.0252 134.142 55.9455C134.284 55.8658 134.431 55.7984 134.596 55.7493C134.756 55.7003 134.921 55.6758 135.087 55.6758C135.369 55.6758 135.632 55.7248 135.884 55.8291L135.804 56.2705C135.779 56.4176 135.712 56.528 135.614 56.6138C135.516 56.6935 135.399 56.7364 135.252 56.7364C135.234 56.7364 135.228 56.7364 135.222 56.7364C135.215 56.7364 135.209 56.7364 135.203 56.7364C135.197 56.7364 135.179 56.7364 135.166 56.7364C135.148 56.7364 135.117 56.7364 135.074 56.7364C134.866 56.7364 134.67 56.7671 134.48 56.8284C134.296 56.8897 134.13 56.9694 133.989 57.0675C133.848 57.1656 133.738 57.2759 133.646 57.3986C133.56 57.5212 133.511 57.6438 133.499 57.7726V61.2427H132.469V55.7677H133.352Z" fill="#007BAC"/>
<path fill-rule="evenodd" clip-rule="evenodd" d="M140.664 57.4672C140.664 57.2219 140.713 56.9951 140.805 56.7805C140.897 56.5659 141.02 56.3758 141.185 56.2164C141.345 56.057 141.535 55.9283 141.749 55.8363C141.964 55.7444 142.197 55.6953 142.436 55.6953C142.681 55.6953 142.908 55.7382 143.123 55.8363C143.337 55.9283 143.527 56.057 143.687 56.2164C143.846 56.3758 143.975 56.5659 144.067 56.7805C144.159 56.9951 144.208 57.228 144.208 57.4672C144.208 57.7063 144.159 57.9392 144.067 58.1538C143.975 58.3684 143.846 58.5584 143.687 58.7178C143.527 58.8772 143.337 59.006 143.123 59.098C142.908 59.1899 142.675 59.239 142.436 59.239C142.191 59.239 141.964 59.1899 141.749 59.098C141.535 59.006 141.345 58.8772 141.185 58.7178C141.026 58.5584 140.897 58.3684 140.805 58.1538C140.713 57.9392 140.664 57.7063 140.664 57.4672Z" fill="#007BAC"/>
<path fill-rule="evenodd" clip-rule="evenodd" d="M150 61.2409V53.7734H151.03V60.2109H154.261V61.2409H150Z" fill="#007BAC"/>
<path fill-rule="evenodd" clip-rule="evenodd" d="M156.448 61.2391H155.418V55.7642H156.448V61.2391ZM155.234 54.3909C155.234 54.2928 155.253 54.2008 155.29 54.115C155.326 54.0291 155.375 53.9556 155.443 53.8881C155.51 53.8268 155.584 53.7716 155.67 53.7349C155.756 53.6981 155.847 53.6797 155.946 53.6797C156.044 53.6797 156.136 53.6981 156.221 53.7349C156.307 53.7716 156.381 53.8207 156.448 53.8881C156.516 53.9556 156.565 54.0291 156.602 54.115C156.638 54.2008 156.657 54.2928 156.657 54.3909C156.657 54.489 156.638 54.5809 156.602 54.6668C156.565 54.7526 156.516 54.8262 156.448 54.8936C156.381 54.9611 156.307 55.0101 156.221 55.0469C156.136 55.0837 156.044 55.1021 155.946 55.1021C155.847 55.1021 155.756 55.0837 155.67 55.0469C155.584 55.0101 155.51 54.9611 155.443 54.8936C155.382 54.8262 155.326 54.7526 155.29 54.6668C155.253 54.5809 155.234 54.489 155.234 54.3909Z" fill="#007BAC"/>
<path fill-rule="evenodd" clip-rule="evenodd" d="M160.677 60.3213C160.929 60.3213 161.155 60.2722 161.364 60.1802C161.572 60.0821 161.75 59.9534 161.903 59.794C162.057 59.6285 162.173 59.4384 162.253 59.2238C162.339 59.0031 162.375 58.7701 162.375 58.5188C162.375 58.2674 162.333 58.0344 162.253 57.8137C162.167 57.593 162.051 57.4029 161.903 57.2435C161.75 57.078 161.572 56.9492 161.364 56.8573C161.155 56.7592 160.929 56.7163 160.677 56.7163C160.407 56.7163 160.15 56.7714 159.899 56.8757C159.647 56.9799 159.433 57.1271 159.249 57.311V59.7388C159.427 59.9227 159.647 60.0699 159.899 60.1741C160.15 60.2661 160.407 60.3213 160.677 60.3213ZM158.219 61.2409V53.7734H159.249V56.2503C159.353 56.14 159.463 56.0541 159.58 55.9806C159.696 55.907 159.819 55.8518 159.942 55.815C160.064 55.7721 160.187 55.7415 160.309 55.7231C160.432 55.7047 160.555 55.6986 160.677 55.6986C161.063 55.6986 161.419 55.7721 161.756 55.9193C162.087 56.0664 162.375 56.2687 162.615 56.5262C162.854 56.7837 163.044 57.078 163.185 57.4213C163.32 57.7647 163.393 58.1264 163.393 58.5126C163.393 58.8989 163.326 59.2606 163.185 59.6039C163.05 59.9473 162.86 60.2477 162.615 60.499C162.375 60.7565 162.087 60.9589 161.756 61.106C161.425 61.2532 161.063 61.3267 160.677 61.3267C160.432 61.3267 160.187 61.2899 159.942 61.2102C159.69 61.1305 159.463 60.9834 159.249 60.7688V60.8056C159.243 60.8669 159.236 60.9282 159.218 60.9773C159.206 61.0324 159.187 61.0754 159.169 61.1183C159.151 61.1612 159.12 61.2041 159.089 61.2409H158.219Z" fill="#007BAC"/>
<path fill-rule="evenodd" clip-rule="evenodd" d="M165.794 57.8144H168.859C168.792 57.6488 168.7 57.5017 168.59 57.3607C168.479 57.2258 168.351 57.1032 168.203 57.0051C168.062 56.907 167.903 56.8273 167.725 56.7721C167.554 56.7169 167.37 56.6863 167.186 56.6863C166.983 56.6863 166.787 56.7169 166.597 56.7844C166.413 56.8518 166.242 56.9377 166.094 57.0541C165.941 57.1706 165.812 57.3055 165.702 57.4649C165.592 57.6243 165.512 57.796 165.457 57.986C165.481 57.9492 165.524 57.9125 165.579 57.8696C165.635 57.8389 165.702 57.8144 165.794 57.8144ZM169.926 58.0412C169.926 58.1638 169.902 58.2742 169.859 58.3662C169.81 58.4643 169.755 58.544 169.687 58.6114C169.62 58.6788 169.54 58.7279 169.454 58.7708C169.368 58.8076 169.289 58.826 169.209 58.826H165.402C165.432 59.0406 165.5 59.2368 165.61 59.4145C165.72 59.5923 165.849 59.7517 166.009 59.8866C166.168 60.0215 166.352 60.1257 166.548 60.2054C166.75 60.279 166.959 60.3219 167.18 60.3219C167.339 60.3219 167.492 60.3035 167.639 60.2606C167.787 60.2177 167.928 60.1625 168.056 60.089C168.124 60.0522 168.191 60.0215 168.259 60.0031C168.326 59.9847 168.4 59.9786 168.479 59.9786C168.59 59.9786 168.688 59.997 168.78 60.0399C168.872 60.0828 168.958 60.1441 169.037 60.2238L169.233 60.42C168.97 60.6959 168.669 60.9166 168.314 61.0822C167.964 61.2416 167.584 61.3274 167.173 61.3274C166.787 61.3274 166.425 61.2538 166.082 61.1067C165.739 60.9595 165.445 60.7572 165.187 60.4997C164.93 60.2422 164.733 59.9479 164.58 59.6046C164.433 59.2613 164.359 58.8995 164.359 58.5133C164.359 58.1271 164.433 57.7653 164.58 57.422C164.727 57.0787 164.93 56.7783 165.187 56.5269C165.445 56.2694 165.739 56.0732 166.082 55.9199C166.425 55.7728 166.787 55.6992 167.173 55.6992C167.498 55.6992 167.805 55.7544 168.099 55.8586C168.393 55.969 168.663 56.1161 168.902 56.3C169.141 56.4901 169.35 56.7108 169.522 56.9683C169.693 57.2258 169.816 57.5078 169.896 57.8083C169.908 57.845 169.914 57.8879 169.914 57.9309C169.92 57.9615 169.92 58.0044 169.926 58.0412Z" fill="#007BAC"/>
<path fill-rule="evenodd" clip-rule="evenodd" d="M172.031 55.7677C172.062 55.8107 172.086 55.8536 172.105 55.8904C172.123 55.9272 172.142 55.9762 172.16 56.0252C172.178 56.0804 172.185 56.1356 172.185 56.1969V56.577C172.246 56.4544 172.332 56.3379 172.448 56.2276C172.559 56.1172 172.681 56.0252 172.822 55.9455C172.963 55.8658 173.11 55.7984 173.276 55.7493C173.435 55.7003 173.601 55.6758 173.766 55.6758C174.048 55.6758 174.312 55.7248 174.563 55.8291L174.484 56.2705C174.453 56.4176 174.392 56.528 174.294 56.6138C174.196 56.6935 174.079 56.7364 173.932 56.7364C173.913 56.7364 173.901 56.7364 173.901 56.7364C173.895 56.7364 173.889 56.7364 173.883 56.7364C173.877 56.7364 173.858 56.7364 173.846 56.7364C173.828 56.7364 173.797 56.7364 173.754 56.7364C173.546 56.7364 173.349 56.7671 173.159 56.8284C172.975 56.8897 172.81 56.9694 172.669 57.0675C172.528 57.1656 172.418 57.2759 172.326 57.3986C172.24 57.5212 172.191 57.6438 172.178 57.7726V61.2427H171.148V55.7677H172.031Z" fill="#007BAC"/>
<path fill-rule="evenodd" clip-rule="evenodd" d="M176.933 60.3264C177.056 60.3264 177.184 60.3141 177.325 60.2896C177.466 60.2651 177.607 60.2283 177.748 60.1854C177.889 60.1425 178.03 60.0873 178.171 60.0321C178.312 59.9708 178.447 59.9033 178.576 59.8236V58.904C178.564 58.904 178.527 58.8979 178.472 58.8979C178.411 58.8979 178.337 58.8917 178.245 58.8917C178.159 58.8856 178.055 58.8856 177.945 58.8856C177.834 58.8856 177.724 58.8856 177.607 58.8856C177.393 58.8856 177.191 58.8979 177.007 58.9285C176.823 58.9592 176.657 59.0021 176.522 59.0634C176.387 59.1247 176.277 59.2044 176.197 59.3086C176.118 59.4067 176.081 59.5293 176.081 59.6704C176.081 59.793 176.105 59.8972 176.148 59.9769C176.191 60.0627 176.252 60.1302 176.326 60.1792C176.4 60.2283 176.492 60.2712 176.596 60.2957C176.706 60.3141 176.817 60.3264 176.933 60.3264ZM175.474 56.5681C175.511 56.5129 175.554 56.4639 175.596 56.4148C175.639 56.3719 175.688 56.3229 175.75 56.2677C175.811 56.2125 175.885 56.1574 175.97 56.1022C176.179 55.9673 176.406 55.8692 176.645 55.7956C176.884 55.7221 177.154 55.6914 177.448 55.6914C177.748 55.6914 178.006 55.7282 178.233 55.8018C178.453 55.8753 178.644 55.9734 178.803 56.1083C178.962 56.2371 179.091 56.3903 179.189 56.5681C179.287 56.7459 179.367 56.936 179.422 57.1506C179.477 57.359 179.52 57.5797 179.539 57.8127C179.557 58.0457 179.569 58.2787 179.569 58.5116V61.2399H178.723C178.68 61.1847 178.644 61.1173 178.613 61.0376C178.582 60.9579 178.57 60.8782 178.57 60.7985V60.6574C178.472 60.7555 178.355 60.8414 178.22 60.9211C178.086 61.0008 177.939 61.0682 177.791 61.1295C177.644 61.1847 177.497 61.2337 177.344 61.2644C177.197 61.2951 177.056 61.3135 176.939 61.3135C176.663 61.3135 176.412 61.2767 176.185 61.197C175.958 61.1173 175.762 61.0069 175.603 60.8659C175.443 60.7249 175.314 60.5471 175.229 60.3448C175.143 60.1424 175.094 59.9156 175.094 59.6642C175.094 59.3945 175.143 59.1492 175.247 58.9347C175.351 58.7201 175.505 58.53 175.707 58.3767C175.915 58.2235 176.173 58.1009 176.492 58.0212C176.804 57.9353 177.178 57.8985 177.601 57.8985C177.718 57.8985 177.834 57.9047 177.945 57.9108C178.055 57.9169 178.153 57.9231 178.239 57.9292C178.325 57.9353 178.398 57.9414 178.453 57.9476C178.509 57.9537 178.545 57.9598 178.558 57.966C178.545 57.7085 178.503 57.4939 178.441 57.3284C178.38 57.1628 178.294 57.0279 178.196 56.936C178.098 56.8379 177.981 56.7766 177.853 56.7398C177.724 56.703 177.589 56.6846 177.454 56.6846C177.282 56.6846 177.154 56.6969 177.056 56.7275C176.958 56.7582 176.872 56.7888 176.798 56.8256C176.725 56.8624 176.651 56.8931 176.577 56.9237C176.504 56.9544 176.406 56.9666 176.283 56.9666C176.191 56.9666 176.099 56.9544 176.02 56.9176C175.94 56.8869 175.86 56.844 175.774 56.7827L175.474 56.5681Z" fill="#007BAC"/>
<path fill-rule="evenodd" clip-rule="evenodd" d="M182.403 59.8626C182.403 59.9178 182.409 59.973 182.427 60.0282C182.446 60.0833 182.47 60.1324 182.501 60.1814C182.532 60.2305 182.574 60.2673 182.617 60.2979C182.666 60.3286 182.722 60.3408 182.783 60.3408L182.905 60.3224C183.053 60.2795 183.188 60.2611 183.298 60.2611C183.439 60.2611 183.568 60.2979 183.672 60.3715C183.776 60.4451 183.868 60.537 183.942 60.6412L184.064 60.8252C184.003 60.8865 183.917 60.9478 183.813 61.0091C183.709 61.0704 183.592 61.1256 183.476 61.1685C183.353 61.2114 183.237 61.2482 183.108 61.2789C182.985 61.3095 182.875 61.3218 182.777 61.3218C182.556 61.3218 182.36 61.285 182.188 61.2114C182.017 61.1378 181.869 61.0398 181.747 60.911C181.624 60.7823 181.532 60.629 181.465 60.4512C181.397 60.2734 181.367 60.0772 181.367 59.8626V56.7543H180.453V56.1902C180.453 55.9021 180.717 55.7549 181.25 55.7549H181.367V54.6268C181.367 54.5165 181.379 54.4122 181.403 54.3141C181.428 54.2161 181.459 54.1363 181.489 54.0628C181.526 53.9769 181.569 53.9034 181.618 53.8359H182.397V55.7549H183.911V56.742H182.397V59.8626H182.403Z" fill="#007BAC"/>
<path fill-rule="evenodd" clip-rule="evenodd" d="M186.021 57.8144H189.086C189.019 57.6488 188.927 57.5017 188.816 57.3607C188.706 57.2258 188.577 57.1032 188.43 57.0051C188.289 56.907 188.13 56.8273 187.952 56.7721C187.78 56.7169 187.596 56.6863 187.412 56.6863C187.21 56.6863 187.014 56.7169 186.824 56.7844C186.64 56.8518 186.468 56.9377 186.315 57.0541C186.162 57.1706 186.033 57.3055 185.922 57.4649C185.812 57.6243 185.732 57.796 185.677 57.986C185.702 57.9492 185.745 57.9125 185.8 57.8696C185.867 57.8389 185.935 57.8144 186.021 57.8144ZM190.153 58.0412C190.153 58.1638 190.128 58.2742 190.085 58.3662C190.036 58.4643 189.981 58.544 189.914 58.6114C189.846 58.6788 189.767 58.7279 189.681 58.7708C189.595 58.8076 189.515 58.826 189.435 58.826H185.628C185.659 59.0406 185.732 59.2368 185.837 59.4145C185.947 59.5923 186.076 59.7517 186.235 59.8866C186.395 60.0215 186.578 60.1257 186.775 60.2054C186.977 60.279 187.185 60.3219 187.406 60.3219C187.566 60.3219 187.719 60.3035 187.866 60.2606C188.013 60.2177 188.154 60.1625 188.283 60.089C188.35 60.0522 188.418 60.0215 188.485 60.0031C188.553 59.9847 188.626 59.9786 188.706 59.9786C188.816 59.9786 188.92 59.997 189.006 60.0399C189.098 60.0828 189.184 60.1441 189.264 60.2238L189.46 60.42C189.196 60.6959 188.896 60.9166 188.54 61.0822C188.191 61.2416 187.811 61.3274 187.4 61.3274C187.014 61.3274 186.652 61.2538 186.309 61.1067C185.965 60.9595 185.671 60.7572 185.414 60.4997C185.156 60.2422 184.96 59.9479 184.807 59.6046C184.659 59.2613 184.586 58.8995 184.586 58.5133C184.586 58.1271 184.659 57.7653 184.807 57.422C184.954 57.0787 185.156 56.7783 185.414 56.5269C185.671 56.2694 185.965 56.0732 186.309 55.9199C186.652 55.7728 187.014 55.6992 187.4 55.6992C187.725 55.6992 188.031 55.7544 188.326 55.8586C188.62 55.969 188.89 56.1161 189.129 56.3C189.368 56.4901 189.576 56.7108 189.748 56.9683C189.92 57.2258 190.042 57.5078 190.122 57.8083C190.134 57.845 190.141 57.8879 190.141 57.9309C190.153 57.9615 190.153 58.0044 190.153 58.0412Z" fill="#007BAC"/>
</svg>
