<svg xmlns="http://www.w3.org/2000/svg" viewBox="0 0 1063 956" fill="none" version="1.1" xmlns:xlink="http://www.w3.org/1999/xlink">
  <path d="M130.774 256.374c0-3.487-6.474-22.432 2.695-46.489 20.1-52.74 42.777-86.942 48.048-92.649 17.937-19.42 39.647-40.98 44.918-44.495 2.655-1.77 5.271-3.514 6.619-.053 8.628 22.164-4.783 34.322-9.644 47.534-5.54 15.054-10.992 32.551-25.894 80.759-8.749 28.303-27.056 75.976-37.348 103.297-12.344 32.769-17.346 43.173-39.606 90.337-19.926 42.215-59.754 120.405-82.146 163.882s-26.753 49.581-29.87 51.418-4.862-.78-5.325-3.871c-.975-6.52 1.308-14.532 6.104-32.473 10.072-37.679 26.884-69.199 40.003-105.53 9.757-27.02 28.813-70.335 39.99-95.846 19.861-45.334 35.775-73.862 58.155-110.708 30.232-49.775 49.013-85.673 57.798-97.524 10.079-13.596 28.972-44.349 56.239-80.864 34.289-45.918 62.7-77.285 65.791-79.518 6.053-4.372-4.809 17.135-8.323 23.727-1.681 3.154-3.514 5.72-40.597 126.086-37.084 120.366-109.454 358.402-147.607 482.335S90.877 762.277 89.106 766.677c-8.015 19.918-17.57 46.542-24.229 66.504-1.067 3.201-3.065 5.72-3.091 5.76-5.006 7.509 7.9-20.173 9.234-58.393.357-10.215 1.308-18.059 2.63-59.595 1.32-41.535 3.064-116.521 4.835-159.51 2.132-51.783 5.31-78.13 5.746-105.86.425-27.024 3.95-55.182 2.67-75.421-.266-4.195-6.54-3.594-7.042-2.722s2.985 2.616 6.09 3.078c3.105.463 5.72-.409 53.716-36.607S280.957 236.214 338.61 190.663c57.653-45.552 76.835-62.99 84.973-71.974 8.138-8.983 4.65-8.983 1.982-7.676-10.45 5.122-10.596 23.265-15.431 45.261-1.944 8.844-5.68 21.865-35.815 100.1-30.134 78.236-86.809 221.232-116.442 296.641-30.936 78.727-33.146 85.105-34.917 86.453-14.47 11.014 13.185-32.975 18.905-45.75 5.253-11.731 20.596-74.788 21.204-110.114.189-10.994-21.587.396-28.179 4.782-13.445 8.946-34.283 26.885-37.374 40.545-4.779 21.12-8.508 33.16-9.842 80.6-.426 15.125 22.947 27.664 24.255 36.489 1.681 11.344 28.391-12.92 45.948-40.544 42.625-67.065 41.681-80.891 54.852-96.295 11.61-13.578 23.767-29.461 32.182-42.738 1.591-2.51 2.207-5.271 1.348-5.747-8.988-4.978-20.079 22.037-28.495 37.11-5.51 9.871-14.665 40.901-16 60.691-1.108 16.44-.409 17.746 0 43.309.075 4.665 2.193 45.509 5.285 44.214 7.502-3.142 25.233-41.696 39.21-65.714 12.399-21.306 28.602-67.294 41.588-89.7 23.849-41.147 45.512-76.043 60.071-103.786 11.38-21.686 31.204-61.061 50.136-103.323 13.862-30.946 29.579-59.225 34.031-72.45 3.362-9.987-1.757-23.766-3.501-29.54-7.626-25.246-15.853 36.476-19.38 47.93-2.378 7.722-13.991 36.793-32.473 77.707-17.169 38.008-36.674 66.135-45.565 90.522-10.089 27.675-26.765 68.684-32.922 83.203-8.226 19.4-14.083 32.143-18.508 44.059-5.207 14.019-8.043 26.784-10.236 39.572-.674 3.931-17.468 79.261-16.16 81.52s31.767-61.568 34.507-65.714c14.417-21.809 21.732-44.201 43.319-68.021 15.838-17.476 25.128-32.618 37.031-54.601 8.203-15.15 15.417-29.963 20.279-41.443 1.156-2.731 3.065-5.271 2.219-6.183-.845-.911-4.333-.039-7.438 3.026-13.894 13.717-25.273 47.15-28.364 67.785-4.851 32.379-4.782 93.891.489 93.904 14.326.036 59.727-102.768 81.948-129.019 8.786-10.379 13.237-23.317 18.086-33.939 1.436-3.147-4.796 13.132-27.519 80.363-20.518 60.709-54.112 177.094-72.515 239.886-23.205 79.177-26.937 84.339-31.799 98.95-4.916 14.777-19.909 52.869-35.736 82.792-7.813 14.773-12.924 21.122-19.583 33.5-1.405 2.612-7.882 5.21-9.217 4.378-12.065-7.526 1.282-31.614 4.809-45.301 1.013-3.932 5.306-19.107 13.603-45.78 8.296-26.673 23.991-74.629 36.436-109.797s17.615-46.182 37.801-83.556 51.576-90.561 76.466-127.988c39.529-59.441 62.91-82.503 68.182-90.416 8.335-12.514 23.713-27.255 34.375-36.595 9.306-8.153-22.869 22.393-49.198 74.629-14.491 28.75-14.202 73.374-10.701 98.845 3.097 22.53 31.693-58.445 37.427-79.596 8.577-31.64 18.046-51.933 22.908-73.123 1.035-4.514 3.065-7.927 3.091-8.416.507-9.382-6.156 22.367-8.785 34.283-3.222 14.603-7.042 32.103-6.632 107.657.073 13.577 3.924 10.899 5.707 8.243 3.291-4.899 29.712-45.459 71.089-106.19 15.64-22.957 18.706-31.085 29.658-51.695 48.292-90.875 52.514-99.294 53.848-103.27 3.375-10.056-13.594 41.548-21.547 72.541-8.762 34.146-14.981 66.029-20.701 88.528-6.514 25.619-11.877 50.637-15.867 65.645-3.668 13.8-10.965 36.885-18.046 48.062-10.125 15.981 5.231-36.436 11.85-56.306 7.058-21.187 12.775-40.954 22.829-70.269 7.732-22.546 23.132-59.833 38.616-93.534s31.178-62.475 46.674-88.197c45.594-75.679 59.648-85.779 68.46-91.552 1.53-1.003 5.245 0 8.365 0 18.152 0 9.734 25.603 3.604 40.901-13.812 34.469-44.085 73.025-57.283 99.869-13.474 27.407-44.35 58.518-65.566 82.866-11.365 13.041-22.908 26.012-29.104 34.824-1.44 2.048-4.373 2.656-5.721-.383-1.347-3.038-1.347-10.014-.039-14.479 1.308-4.466 3.923-6.209 6.579-6.672 2.655-.462 5.271.41 7.054 2.167 8.73 8.6 9.684 32.486 17.175 54.099 9.235 26.646 12.345 41.088 15.537 55.772 2.5 11.5.316 46.059 4.279 56.218 1.356 3.475 23.767-44.429 31.244-60.269 20.513-43.454 84.569-68.314 77.977-67.442-12.247 1.62-26.679 15.721-41.5 25.975-15.169 10.495-15.709 20.184-17.915 26.777-.996 2.976-12.842 55.776-11.085 57.56 4 4.06 33.522-8.366 36-9.319 6.5-2.5 14.203-45.251 14.203-57.476 0-2.024 8.851-29.883 10.621-32.539 5.006-7.509-13.211 77.649-10.621 90.015 6.946 33.17 80.983-88.178 99.082-100.993 14.809-10.485 17.205-25.973 19.885-36.568 2.45-9.688-13.2 15.8-24.561 41.126-10.095 22.501-27.056 65.434-40.4 105.754s-30.477 72.145-35.841 93.191c-9.478 37.189-23.714 81.574-37.427 107.296-9.597 18.001-22.029 64.749-28.677 80-8.5 19.5-40.985 116-61.5 107-1.621-.711 20.542-88.793 20.515-94.5-.127-27.406 38.761-112.881 49.806-137.242 10.029-22.121 23.238-37.427 39.118-62.554 4.255-6.734 9.644-13.608 33.265-49.898s65.474-101.686 87.902-137.554c29.72-47.518 37.39-64.007 44.01-76.386 5.72-10.692 5.75-25.51 7.94-39.62.55-3.526.45-7.028-.86-9.697s-3.92-4.412-7.01-4.874c-3.1-.463-6.58.409-11.87 1.294-5.28.885-12.26 1.757-154.487 3.95-142.23 2.193-419.503 5.681-561.033 7.042-141.529 1.361-138.914.489-135.386.039 15.745-2.005 28.179 5.681 86.122 23.265 26.173 7.942 38.92 11.48 53.03 16.342 15.938 5.492 33.45 9.248 44.93 12.775 2.676.822 5.271 1.757 6.619.463 7.931-7.621-5.681-21.534-11.837-32.116-3.186-5.476-7.927-10.583-13.198-14.11-2.333-1.561-5.271-.04-7.055 1.718-3.553 10.555-4.425 20.252-6.182 25.523-.886 2.656-1.757 5.271-2.656 13.251" stroke="#000" stroke-width="15" stroke-linecap="round"/>
</svg>
