<?xml version="1.0" encoding="UTF-8"?>
<svg version="1.1" xmlns="http://www.w3.org/2000/svg" width="500" height="500">
<path d="M0 0 C25.6671046 -0.73062303 50.22151884 8.94338396 69.09375 26.16015625 C69.87105469 26.85625 70.64835938 27.55234375 71.44921875 28.26953125 C90.77655884 46.49910504 100.18897005 72.19556922 101.17602539 98.33935547 C101.56862425 123.64688173 92.05768267 147.55160533 75.09375 166.16015625 C74.12501953 167.23330078 74.12501953 167.23330078 73.13671875 168.328125 C68.01674222 173.71922045 62.23739243 178.00084967 56.09375 182.16015625 C54.92392578 182.96453125 54.92392578 182.96453125 53.73046875 183.78515625 C32.46086075 197.51209654 5.61000756 200.84937238 -18.90625 196.16015625 C-45.53607285 190.14738533 -68.01859601 173.90541679 -82.77636719 151 C-91.02111325 137.57467453 -96.53403997 120.96667569 -96.90625 105.16015625 C-96.98166016 103.51080078 -96.98166016 103.51080078 -97.05859375 101.828125 C-97.69599199 77.47951217 -89.71756155 52.28034357 -72.96875 34.22265625 C-70.98459108 32.16262784 -68.95670453 30.15396076 -66.90625 28.16015625 C-66.0709375 27.32742187 -65.235625 26.4946875 -64.375 25.63671875 C-46.8074354 8.92471736 -23.84178374 1.31386174 0 0 Z M-21.90625 21.16015625 C-24.32755331 24.79211121 -24.11647785 26.54364973 -24.03125 30.84765625 C-24.00417969 32.61689453 -24.00417969 32.61689453 -23.9765625 34.421875 C-23.95335937 35.32550781 -23.93015625 36.22914063 -23.90625 37.16015625 C-24.71449219 37.12535156 -25.52273437 37.09054688 -26.35546875 37.0546875 C-27.95841797 37.01408203 -27.95841797 37.01408203 -29.59375 36.97265625 C-30.64949219 36.93785156 -31.70523438 36.90304688 -32.79296875 36.8671875 C-36.29690615 37.19691812 -38.10323511 38.07430913 -40.90625 40.16015625 C-42.43471661 43.21708947 -42.13867445 45.79000172 -41.90625 49.16015625 C-40.14609869 52.34519195 -39.40734084 52.99312597 -35.90625 54.16015625 C-31.94625 54.16015625 -27.98625 54.16015625 -23.90625 54.16015625 C-23.90625 66.04015625 -23.90625 77.92015625 -23.90625 90.16015625 C-27.20625 90.16015625 -30.50625 90.16015625 -33.90625 90.16015625 C-37.03667299 90.95941318 -38.41618335 91.68698845 -40.71875 93.91015625 C-42.33338016 96.9694555 -42.46413128 98.74313343 -41.90625 102.16015625 C-39.35600635 105.26180394 -37.72925753 106.88582041 -33.90625 108.16015625 C-30.60625 108.16015625 -27.30625 108.16015625 -23.90625 108.16015625 C-23.90625 120.04015625 -23.90625 131.92015625 -23.90625 144.16015625 C-27.86625 144.16015625 -31.82625 144.16015625 -35.90625 144.16015625 C-40.03028473 145.8087245 -40.03028473 145.8087245 -41.90625 149.16015625 C-42.24095491 152.84191029 -42.4019979 155.26308863 -40.59375 158.53515625 C-37.36165527 161.64754377 -33.96830161 161.26835035 -29.71875 161.22265625 C-28.63207031 161.21363281 -27.54539062 161.20460938 -26.42578125 161.1953125 C-25.59433594 161.18371094 -24.76289063 161.17210937 -23.90625 161.16015625 C-23.96425781 162.04058594 -24.02226562 162.92101562 -24.08203125 163.828125 C-24.50317303 171.02620338 -24.50317303 171.02620338 -21.78125 177.47265625 C-18.35282382 179.48499336 -16.8063917 179.97268577 -12.90625 179.16015625 C-9.80460231 176.6099126 -8.18058584 174.98316378 -6.90625 171.16015625 C-6.83822033 169.43220273 -6.82129355 167.7018026 -6.84375 165.97265625 C-6.864375 164.38453125 -6.885 162.79640625 -6.90625 161.16015625 C-0.96625 161.16015625 4.97375 161.16015625 11.09375 161.16015625 C11.031875 162.87203125 10.97 164.58390625 10.90625 166.34765625 C10.90625 170.7993782 11.06270223 173.68006437 14.09375 177.16015625 C17.21240284 179.23925815 17.63114522 179.44174999 21.09375 179.03515625 C21.774375 178.97070312 22.455 178.90625 23.15625 178.83984375 C25.94246546 177.86242139 26.72578258 176.76744211 28.09375 174.16015625 C28.15723227 171.86927429 28.12727173 169.57490514 28.03125 167.28515625 C28.19921875 163.51953125 28.19921875 163.51953125 29.09375 160.16015625 C31.94723601 157.80045878 34.55072953 156.64269332 38.015625 155.37109375 C45.62739824 152.37661443 49.6934361 146.12199917 53.140625 138.99609375 C56.41295214 130.5065658 56.11970657 121.10010901 53.203125 112.54296875 C50.05146511 105.77355843 44.98369631 100.61353029 39.09375 96.16015625 C40.10397945 93.55433075 41.16210841 91.01929651 42.3828125 88.50390625 C47.10823412 78.44511403 47.69700365 69.89430961 44.03125 59.34765625 C41.35864924 53.08635079 37.90315067 46.7959251 31.41015625 44.0078125 C29.09375 42.16015625 29.09375 42.16015625 28.66552734 40.30273438 C28.51882342 37.93266254 28.49558797 35.59699647 28.53125 33.22265625 C28.77516969 27.04848731 28.77516969 27.04848731 26.25 21.65234375 C23.43053115 19.70118958 21.52115359 19.23010326 18.09375 19.16015625 C15.04459367 20.40753838 13.55037632 21.4426006 11.78125 24.22265625 C10.76134684 28.58042429 10.9745212 32.68907632 11.09375 37.16015625 C5.15375 37.16015625 -0.78625 37.16015625 -6.90625 37.16015625 C-6.8134375 34.87078125 -6.8134375 34.87078125 -6.71875 32.53515625 C-6.72517141 28.00163888 -7.2430673 24.96470296 -9.90625 21.16015625 C-13.91770418 18.3133178 -17.81567188 18.56945678 -21.90625 21.16015625 Z " fill="#F79319" transform="translate(247.90625,150.83984375)"/>
<path d="M0 0 C28.6082915 22.95063569 47.33230177 54.78009643 51.67651367 91.41992188 C53.83242551 117.40754311 50.69098445 142.40651987 38.875 165.8125 C38.30007813 166.98425781 37.72515625 168.15601563 37.1328125 169.36328125 C32.61449575 178.34782039 27.24597078 186.03298126 20.875 193.8125 C20.15828125 194.75867188 19.4415625 195.70484375 18.703125 196.6796875 C18.09984375 197.38351562 17.4965625 198.08734375 16.875 198.8125 C16.215 198.8125 15.555 198.8125 14.875 198.8125 C14.67390625 199.35519531 14.4728125 199.89789063 14.265625 200.45703125 C12.30186802 203.78328254 9.54332178 206.03773984 6.625 208.5 C6.00093262 209.02819336 5.37686523 209.55638672 4.73388672 210.10058594 C-24.69570198 234.52795732 -60.32560081 243.33813154 -98.125 240.8125 C-104.94701285 240.07418692 -111.52463178 238.66291422 -118.125 236.8125 C-118.7948291 236.63058105 -119.4646582 236.44866211 -120.15478516 236.26123047 C-142.80480976 229.94226325 -165.29904183 216.29825378 -181.125 198.8125 C-181.125 198.1525 -181.125 197.4925 -181.125 196.8125 C-181.785 196.8125 -182.445 196.8125 -183.125 196.8125 C-209.70095881 165.63446408 -217.93930066 130.03625522 -216.125 89.8125 C-213.07102173 56.09804917 -193.75245278 23.92551033 -168.12109375 2.41186523 C-119.66320575 -36.42612012 -49.37478372 -37.93776559 0 0 Z M-151.125 13.8125 C-151.62692871 14.21194824 -152.12885742 14.61139648 -152.64599609 15.02294922 C-163.48212345 23.68735345 -172.51382039 33.14693899 -180.125 44.8125 C-180.62644531 45.55628906 -181.12789062 46.30007812 -181.64453125 47.06640625 C-191.31934523 62.15298952 -197.46079663 80.87900893 -198.125 98.8125 C-198.16496094 99.76769531 -198.20492187 100.72289062 -198.24609375 101.70703125 C-198.93266551 134.46054299 -186.88133137 163.44791888 -165.203125 187.81640625 C-163.23845698 189.70352159 -161.62128811 190.77237995 -159.125 191.8125 C-159.125 192.4725 -159.125 193.1325 -159.125 193.8125 C-137.19230503 213.17432962 -106.39437465 224.51781314 -77.125 222.8125 C-48.78070564 220.15967346 -18.5800798 209.77791267 0.875 187.8125 C0.875 187.1525 0.875 186.4925 0.875 185.8125 C1.535 185.8125 2.195 185.8125 2.875 185.8125 C23.15933767 165.07254961 34.16649553 134.50930422 33.875 105.8125 C32.91402584 78.68080441 23.86341037 53.82990823 6.57421875 32.90625 C4.875 30.8125 4.875 30.8125 2.875 27.8125 C2.215 27.8125 1.555 27.8125 0.875 27.8125 C0.545 26.8225 0.215 25.8325 -0.125 24.8125 C-0.785 24.8125 -1.445 24.8125 -2.125 24.8125 C-2.455 23.8225 -2.785 22.8325 -3.125 21.8125 C-22.98206566 2.26938004 -53.19609193 -9.38894639 -80.87939453 -9.24267578 C-106.00318075 -8.62537031 -131.23984096 -2.29740789 -151.125 13.8125 Z " fill="#F79319" transform="translate(332.125,143.1875)"/>
<path d="M0 0 C5.28 -0.103125 10.56 -0.20625 16 -0.3125 C17.65 -0.35802002 19.3 -0.40354004 21 -0.45043945 C33.95837467 -0.66048647 33.95837467 -0.66048647 39.60351562 3.55712891 C43.69266866 7.78211045 45.21717447 12.24690002 45.5 18.0625 C45.22412369 24.25544742 43.09309406 28.0142441 38.5625 32.3125 C33.56343927 35.60456438 29.70941319 36.24452192 23.73046875 36.1953125 C22.48418701 36.19031738 21.23790527 36.18532227 19.95385742 36.18017578 C17.5945105 36.15286377 17.5945105 36.15286377 15.1875 36.125 C7.6696875 36.063125 7.6696875 36.063125 0 36 C0 24.12 0 12.24 0 0 Z " fill="#F79319" transform="translate(241,259)"/>
<path d="M0 0 C3.465 -0.0825 6.93 -0.165 10.5 -0.25 C12.11358398 -0.30462402 12.11358398 -0.30462402 13.75976562 -0.36035156 C20.73006696 -0.44008564 26.37103964 0.54067575 31.55639648 5.48364258 C35.80532882 10.34096013 36.29596998 14.29835016 36.21484375 20.5 C35.69983983 26.49277294 32.37173206 30.161406 28 34 C24.7195248 36.04786012 22.19557703 36.23612316 18.359375 36.1953125 C17.39483398 36.19031738 16.43029297 36.18532227 15.43652344 36.18017578 C14.2199707 36.16196777 13.00341797 36.14375977 11.75 36.125 C5.93375 36.063125 5.93375 36.063125 0 36 C0 24.12 0 12.24 0 0 Z " fill="#F79219" transform="translate(241,205)"/>
<path d="M0 0 C4.37782377 2.55743052 6.99485305 5.71710771 8.6875 10.5 C9.64626239 16.34687883 9.58176167 21.72338688 6.6875 27 C3.74410358 30.9575078 0.43577761 33.18699802 -4.3125 34.5 C-10.27096146 35.30121507 -15.28006653 35.04557813 -20.3125 31.5 C-24.94605676 26.88824821 -27.43894969 23.39010417 -27.5625 16.6875 C-27.47672328 11.31475826 -26.55738455 7.75549866 -22.66015625 3.83984375 C-16.08711634 -2.03837165 -8.34225685 -3.60017548 0 0 Z " fill="#F79219" transform="translate(491.3125,233.5)"/>
<path d="M0 0 C4.41854291 3.11306432 8.02390999 6.75922996 9.75 11.9375 C10.48079767 18.68240307 10.01825501 24.46879826 5.75 29.9375 C1.60950166 34.02823274 -2.49064576 35.28616735 -8.25 35.5625 C-14.00935424 35.28616735 -18.10950166 34.02823274 -22.25 29.9375 C-25.99962071 25.13329846 -26.85632026 20.26276405 -26.5625 14.2578125 C-25.73743958 8.13173885 -22.50277176 4.92501325 -17.96875 1.13671875 C-12.85673119 -2.4300762 -5.66699521 -1.85267151 0 0 Z " fill="#F79219" transform="translate(258.25,465.0625)"/>
<path d="M0 0 C4.41854291 3.11306432 8.02390999 6.75922996 9.75 11.9375 C10.28385142 17.90226294 10.30270149 22.89495595 6.75 27.9375 C2.19809443 32.51092759 -1.32233324 35.05268733 -7.9375 35.25 C-14.05952351 35.15183344 -18.50575653 33.71512842 -22.85546875 29.3125 C-26.45393998 24.47421936 -27.01139392 19.78023634 -26.7265625 13.84375 C-25.85122456 8.50562352 -23.75300253 4.89106295 -19.48828125 1.5625 C-13.31842106 -2.04179966 -6.70113855 -2.19075683 0 0 Z " fill="#F79219" transform="translate(26.25,233.0625)"/>
<path d="M0 0 C4.3474338 2.38459988 7.03293788 5.34185034 8.97265625 9.90234375 C10.44839184 15.23912341 10.24302419 20.16242232 8.53125 25.3984375 C5.41818568 29.81698041 1.77202004 33.42234749 -3.40625 35.1484375 C-10.29729359 35.88332152 -14.81910617 35.31140741 -20.40625 31.1484375 C-24.58407983 26.99231068 -26.5421846 23.38052483 -26.71875 17.4609375 C-26.62058344 11.33891399 -25.18387842 6.89268097 -20.78125 2.54296875 C-14.67440413 -1.99899787 -7.11240869 -2.51705373 0 0 Z " fill="#F79219" transform="translate(258.40625,0.8515625)"/>
<path d="M0 0 C4.10488479 2.82780952 7.56757505 6.44765011 9.8125 10.9375 C10.54478782 17.73731548 10.61179551 23.67374133 6.41796875 29.3125 C2.16129107 33.62096208 -2.3177348 35.14963289 -8.3125 35.375 C-13.49356671 35.12149215 -17.08472174 34.03038284 -20.84765625 30.28515625 C-25.21153662 25.40545078 -26.50461318 21.82167182 -26.3984375 15.28125 C-25.94275873 10.21815257 -24.08085232 6.45630115 -20.3125 3.125 C-13.81616265 -1.42243615 -7.60570138 -2.53523379 0 0 Z " fill="#F79219" transform="translate(422.1875,397.0625)"/>
<path d="M0 0 C5.00920691 1.79590537 8.9876572 4.98380216 11.375 9.84375 C13.10097914 15.79837802 13.01962682 21.84309711 10.375 27.4375 C5.29438803 32.91921291 1.78583606 35.68451366 -5.75 36.3125 C-11.71510344 36.22346861 -16.26245173 33.78327323 -20.375 29.5625 C-23.86904602 24.0526582 -24.71017517 19.4603032 -24 13 C-22.16108509 7.48325526 -18.55861354 4.37227556 -14 1 C-9.77604099 -1.1119795 -4.58652588 -0.50003478 0 0 Z " fill="#F79219" transform="translate(420,68)"/>
<path d="M0 0 C8.09680072 7.50435189 8.09680072 7.50435189 8.80078125 13.35546875 C8.99873665 19.24203733 7.95805251 23.51318619 4.5625 28.375 C0.29997688 32.52822765 -3.40164393 34.21081806 -9.3125 34.6875 C-14.33719451 34.51749154 -18.48472225 33.27499997 -22.171875 29.6875 C-26.95629832 24.21958763 -27.85636457 20.81478307 -27.77734375 13.4921875 C-27.09254048 7.21088854 -24.14977431 3.77277495 -19.375 -0.125 C-13.33973411 -3.08969202 -5.96222779 -2.81850768 0 0 Z " fill="#F79219" transform="translate(95.4375,69.625)"/>
<path d="M0 0 C4.24149069 2.39479792 6.58390385 5.32602694 8.9375 9.5625 C10.34174565 14.71140073 10.31385134 19.43344599 8.625 24.5 C5.54651775 28.96876455 1.88575506 32.57974831 -3.3125 34.3125 C-10.05740307 35.04329767 -15.84379826 34.58075501 -21.3125 30.3125 C-25.4611587 26.113371 -26.65039022 22.02735427 -26.875 16.1875 C-26.59939672 10.26575387 -25.13707038 7.01169781 -20.81640625 2.8828125 C-14.67779574 -2.53630999 -7.44340636 -3.45686288 0 0 Z " fill="#F79219" transform="translate(94.3125,397.6875)"/>
<path d="M0 0 C1.12120157 0.9550972 2.24156401 1.91117951 3.36157227 2.86767578 C3.98556412 3.3999881 4.60955597 3.93230042 5.25245667 4.48074341 C8.33302523 7.15888821 11.14534898 10.08709079 14 13 C10.10023279 17.66874537 6.04785356 22.09127809 1.7265625 26.37109375 C1.15795502 26.93828629 0.58934753 27.50547882 0.00350952 28.08985901 C-1.78696236 29.87479913 -3.58090484 31.65620256 -5.375 33.4375 C-6.60049323 34.65796939 -7.82575572 35.87867053 -9.05078125 37.09960938 C-12.03119774 40.06908756 -15.01472894 43.03540257 -18 46 C-20.7345298 44.76322096 -21.96697939 44.04182611 -23.875 41.625 C-26.2622919 38.67599236 -28.78286452 36.97415131 -32 35 C-31.41698588 31.68054402 -30.42556778 30.05602648 -28.04077148 27.70019531 C-27.4202037 27.07985413 -26.79963593 26.45951294 -26.16026306 25.82037354 C-25.48733719 25.16293152 -24.81441132 24.5054895 -24.12109375 23.828125 C-23.4344313 23.1457074 -22.74776886 22.46328979 -22.04029846 21.76019287 C-19.84630585 19.58298804 -17.64211084 17.41644719 -15.4375 15.25 C-13.94788366 13.77543029 -12.4589428 12.30017787 -10.97070312 10.82421875 C-7.32159192 7.20817824 -3.66329621 3.60166712 0 0 Z " fill="#F79319" transform="translate(136,350)"/>
<path d="M0 0 C4.63783669 3.88710403 9.07549428 7.90664668 13.37109375 12.16796875 C13.93828629 12.72946121 14.50547882 13.29095367 15.08985901 13.86946106 C16.27343306 15.04367597 17.45562787 16.21928265 18.63647461 17.39624023 C20.45050472 19.2004342 22.2749269 20.9936974 24.09960938 22.78710938 C25.25325799 23.93423867 26.40627627 25.0820023 27.55859375 26.23046875 C28.10535263 26.76488083 28.65211151 27.29929291 29.21543884 27.84989929 C33 31.65726985 33 31.65726985 33 35 C31.390625 36.4296875 31.390625 36.4296875 29.25 37.875 C25.89084019 40.25738284 23.39666327 42.60472704 21 46 C18.09456128 44.68623083 16.03338941 43.27943508 13.79199219 41.01904297 C13.19167175 40.41857147 12.59135132 39.81809998 11.97283936 39.19943237 C11.33727112 38.55354156 10.70170288 37.90765076 10.046875 37.2421875 C9.38665344 36.57913605 8.72643188 35.91608459 8.04620361 35.23294067 C5.94272176 33.11828168 3.84630858 30.99676788 1.75 28.875 C0.32337739 27.43834443 -1.10370072 26.00214102 -2.53125 24.56640625 C-6.02613661 21.04949196 -9.51470062 17.52641453 -13 14 C-12.0449028 12.87879843 -11.08882049 11.75843599 -10.13232422 10.63842773 C-9.6000119 10.01443588 -9.06769958 9.39044403 -8.51925659 8.74754333 C-5.84111179 5.66697477 -2.91290921 2.85465102 0 0 Z " fill="#F79219" transform="translate(363,350)"/>
<path d="M0 0 C4 2 4 2 5.875 4.375 C8.2622919 7.32400764 10.78286452 9.02584869 14 11 C13.41698588 14.31945598 12.42556778 15.94397352 10.04077148 18.29980469 C9.4202037 18.92014587 8.79963593 19.54048706 8.16026306 20.17962646 C7.48733719 20.83706848 6.81441132 21.4945105 6.12109375 22.171875 C5.4344313 22.8542926 4.74776886 23.53671021 4.04029846 24.23980713 C1.84630585 26.41701196 -0.35788916 28.58355281 -2.5625 30.75 C-4.05211634 32.22456971 -5.5410572 33.69982213 -7.02929688 35.17578125 C-10.67840808 38.79182176 -14.33670379 42.39833288 -18 46 C-19.1725131 45.04882866 -20.33787015 44.08882991 -21.5 43.125 C-22.1496875 42.59132812 -22.799375 42.05765625 -23.46875 41.5078125 C-23.9740625 41.01023438 -24.479375 40.51265625 -25 40 C-25 39.34 -25 38.68 -25 38 C-25.598125 37.7525 -26.19625 37.505 -26.8125 37.25 C-29 36 -29 36 -32 32 C-21.44 21.44 -10.88 10.88 0 0 Z " fill="#F79319" transform="translate(382,104)"/>
<path d="M0 0 C2.90543872 1.31376917 4.96661059 2.72056492 7.20800781 4.98095703 C7.80832825 5.58142853 8.40864868 6.18190002 9.02716064 6.80056763 C9.66272888 7.44645844 10.29829712 8.09234924 10.953125 8.7578125 C11.61334656 9.42086395 12.27356812 10.08391541 12.95379639 10.76705933 C15.05727824 12.88171832 17.15369142 15.00323212 19.25 17.125 C20.67662261 18.56165557 22.10370072 19.99785898 23.53125 21.43359375 C27.02613661 24.95050804 30.51470062 28.47358547 34 32 C32.38405168 34.04119788 30.7143618 36.04072937 29 38 C28.34 38 27.68 38 27 38 C26.773125 38.5775 26.54625 39.155 26.3125 39.75 C24.67197539 42.5623279 22.56221186 44.02970461 20 46 C15.43224961 41.50815312 10.87617448 37.00471263 6.328125 32.49291992 C4.77872471 30.95863019 3.2266459 29.42704054 1.671875 27.89819336 C-0.55914322 25.70345764 -2.78042992 23.4992739 -5 21.29296875 C-5.69996094 20.60849167 -6.39992188 19.92401459 -7.12109375 19.21879578 C-7.76175781 18.57835831 -8.40242188 17.93792084 -9.0625 17.27807617 C-9.63097656 16.71626144 -10.19945313 16.15444672 -10.78515625 15.5756073 C-12 14 -12 14 -12 11 C-10.13671875 9.31640625 -10.13671875 9.31640625 -7.6875 7.5625 C-4.53090531 5.29036179 -2.19167694 3.22722657 0 0 Z " fill="#F79219" transform="translate(116,104)"/>
<path d="M0 0 C5.94 0 11.88 0 18 0 C18 15.51 18 31.02 18 47 C12.06 47 6.12 47 0 47 C0 31.49 0 15.98 0 0 Z " fill="#F79219" transform="translate(241,401)"/>
<path d="M0 0 C15.51 0 31.02 0 47 0 C47 5.94 47 11.88 47 18 C31.49 18 15.98 18 0 18 C0 12.06 0 6.12 0 0 Z " fill="#F79219" transform="translate(401,241)"/>
<path d="M0 0 C15.51 0 31.02 0 47 0 C47 5.94 47 11.88 47 18 C31.49 18 15.98 18 0 18 C0 12.06 0 6.12 0 0 Z " fill="#F79219" transform="translate(52,241)"/>
<path d="M0 0 C5.94 0 11.88 0 18 0 C18 15.51 18 31.02 18 47 C12.06 47 6.12 47 0 47 C0 31.49 0 15.98 0 0 Z " fill="#F79219" transform="translate(241,52)"/>
</svg>
