<?xml version="1.0" encoding="UTF-8"?>
<svg version="1.1" xmlns="http://www.w3.org/2000/svg" width="512" height="512">
<path d="M0 0 C0.66116821 -0.0115361 1.32233643 -0.0230722 2.00354004 -0.03495789 C4.16718035 -0.06896519 6.33053747 -0.08770055 8.49438477 -0.10327148 C9.23922686 -0.11017439 9.98406895 -0.11707729 10.75148201 -0.12418938 C14.68995466 -0.15988849 18.62828657 -0.18350191 22.56689453 -0.19726562 C26.61686332 -0.21383636 30.66509313 -0.2723295 34.71447659 -0.34040928 C37.84678556 -0.3853269 40.9786809 -0.39876926 44.11128426 -0.40388298 C45.60359564 -0.41173974 47.09589622 -0.43127255 48.58788872 -0.46310616 C61.66536527 -0.72384516 61.66536527 -0.72384516 66.79125977 3.69604492 C67.89508996 4.8785046 68.96785366 6.09119819 69.99829102 7.33813477 C70.97614484 8.34978347 71.95647208 9.35904945 72.93969727 10.36547852 C73.8046582 11.32583008 74.66961914 12.28618164 75.56079102 13.27563477 C76.03129883 13.79577148 76.50180664 14.3159082 76.98657227 14.85180664 C80.06969209 18.26949579 83.10573039 21.7269354 86.11547852 25.20922852 C89.44982956 28.97939723 92.90881114 32.63804522 96.34985352 36.31079102 C97.23731909 37.31581589 98.12014498 38.32495675 98.99829102 39.33813477 C99.43744087 39.8171779 99.87659073 40.29622103 100.32904816 40.78978062 C104.59886703 45.96258321 104.70178778 50.4802016 104.61352539 57.01171875 C104.6190744 58.06302979 104.62462341 59.11434082 104.63034058 60.19750977 C104.64211619 63.66021831 104.61787943 67.12161216 104.59204102 70.58422852 C104.59032917 72.99886516 104.59039635 75.41350366 104.59216309 77.82814026 C104.59051096 82.88446883 104.57183294 87.94035346 104.5402832 92.99658203 C104.50062794 99.46730354 104.4962364 105.93744325 104.50374603 112.40826321 C104.50682067 117.39351194 104.49467716 122.3786307 104.47761536 127.36384773 C104.47059985 129.74918871 104.46745906 132.13454441 104.4683075 134.51989555 C104.46650306 137.85858475 104.44506423 141.19658645 104.41821289 144.53515625 C104.42114349 145.51462723 104.4240741 146.49409821 104.42709351 147.50325012 C104.33612119 154.86151368 102.99556097 160.25144484 98.93579102 166.52563477 C84.00382268 180.82220019 66.85083451 174.33813477 45.99829102 174.33813477 C45.99829102 216.57813477 45.99829102 258.81813477 45.99829102 302.33813477 C49.95829102 302.66813477 53.91829102 302.99813477 57.99829102 303.33813477 C61.06384437 303.76208139 64.10266773 304.21092828 67.15232849 304.72224426 C67.99209844 304.8591172 68.83186839 304.99599015 69.69708592 305.13701075 C72.46809433 305.58989342 75.23793662 306.04952301 78.0078125 306.50927734 C80.01123653 306.83827183 82.01472238 307.16689007 84.01826477 307.49516296 C89.42762865 308.38297842 94.83592014 309.27715954 100.24389529 310.17339158 C103.62487786 310.73357615 107.00603933 311.29266866 110.38725471 311.85144615 C120.97432928 313.6014213 131.56073326 315.35537594 142.14620823 317.1150015 C154.35399338 319.14425584 166.56388544 321.16015852 178.7757563 323.16467553 C188.23003854 324.71737378 197.68232301 326.28185749 207.13316971 327.85533065 C212.77307037 328.79404843 218.4136965 329.72772462 224.05645561 330.64911842 C229.35540551 331.51470286 234.65172687 332.3948624 239.94637871 333.28634834 C241.88975073 333.61096977 243.83401237 333.93031592 245.77917862 334.24400711 C248.43310502 334.67282758 251.08317458 335.12050731 253.73313904 335.57307434 C254.50414285 335.6930331 255.27514665 335.81299185 256.06951421 335.93658572 C260.72214857 336.75718117 263.62286299 338.0142544 266.99829102 341.33813477 C268.29233745 343.92622764 268.139497 345.82006965 268.15942383 348.71826172 C268.17383514 350.40560173 268.17383514 350.40560173 268.1885376 352.12702942 C268.19491241 353.95822578 268.19491241 353.95822578 268.20141602 355.82641602 C268.20711609 357.07690231 268.21281616 358.32738861 268.21868896 359.61576843 C268.2281501 362.2663436 268.23504105 364.91680524 268.23852539 367.56738281 C268.24400253 370.95692197 268.26801339 374.34605787 268.29649734 377.73547077 C268.31965307 380.97408855 268.32157572 384.21272704 268.32641602 387.45141602 C268.33876282 388.6661409 268.35110962 389.88086578 268.36383057 391.13240051 C268.36082947 392.26675034 268.35782837 393.40110016 268.35473633 394.56982422 C268.35838196 395.56528763 268.36202759 396.56075104 268.36578369 397.58638 C267.91230613 400.98198247 267.21820392 402.71340027 264.99829102 405.33813477 C259.75870421 407.13327644 254.45839122 408.01530281 248.99478149 408.84490967 C248.11058072 408.98278688 247.22637995 409.12066409 246.31538522 409.26271939 C243.36480485 409.72158289 240.41326624 410.17394184 237.46166992 410.6262207 C235.34041377 410.95455364 233.2192094 411.28322125 231.09805298 411.61219788 C224.14137486 412.68920182 217.18319612 413.75632122 210.22485352 414.82250977 C207.82337517 415.19091065 205.42189991 415.55933166 203.0204277 415.92777252 C193.02528348 417.46051854 183.02974856 418.99067382 173.03316689 420.51401901 C158.74005764 422.69218153 144.44946335 424.88547534 130.16198409 427.10027671 C120.09780442 428.65913543 110.03106405 430.20068366 99.96228731 431.72956491 C93.95790242 432.64174242 87.95486417 433.56124656 81.95445633 434.49925995 C76.30204216 435.38246723 70.64672864 436.24400683 64.98858261 437.08968925 C62.92399271 437.4019776 60.86052251 437.721786 58.79841614 438.05007362 C47.16960834 439.89633418 36.77874308 440.70430568 25.14618778 438.70232248 C22.90239319 438.32187476 20.6555098 437.99021203 18.40246582 437.66926193 C13.32132786 436.94262253 8.24828024 436.16699791 3.17480469 435.38891602 C1.25094255 435.09605886 -0.67295795 434.80345363 -2.59689331 434.51107788 C-7.76841442 433.72443429 -12.93938885 432.93425132 -18.11025834 432.14333725 C-23.54819385 431.31216015 -28.98661319 430.4841603 -34.42497253 429.65576172 C-43.54776891 428.2656734 -52.67023709 426.87344879 -61.79248047 425.47973633 C-73.47461695 423.69492836 -85.1572755 421.91356223 -96.84010792 420.13331604 C-106.92659452 418.59630635 -117.01285805 417.05783475 -127.09907699 415.51906967 C-130.32235305 415.02737183 -133.54565585 414.53584953 -136.76896095 414.04434204 C-141.84420866 413.27033401 -146.91931634 412.49541379 -151.99431992 411.71980667 C-153.84852921 411.43655201 -155.70278018 411.15357003 -157.55707741 410.87089157 C-162.35912562 410.13873493 -167.16031841 409.40152882 -171.96002686 408.65417969 C-173.88542557 408.35613501 -175.81192227 408.06520851 -177.73847866 407.77474117 C-178.81463971 407.60688893 -179.89080076 407.43903669 -180.99957275 407.26609802 C-181.90303562 407.12792884 -182.80649849 406.98975965 -183.73733902 406.84740353 C-186.00170898 406.33813477 -186.00170898 406.33813477 -189.21240234 404.54150391 C-192.14625692 399.28906757 -191.69321032 393.99614796 -191.63061523 388.08422852 C-191.63302719 386.7912233 -191.63543915 385.49821808 -191.63792419 384.16603088 C-191.64077675 381.43474749 -191.6261347 378.70428665 -191.59863281 375.97314453 C-191.56451477 372.47680891 -191.57058332 368.98194002 -191.58929539 365.48553371 C-191.60241773 362.14328654 -191.58414955 358.80146545 -191.56811523 355.45922852 C-191.5730751 354.20500595 -191.57803497 352.95078339 -191.58314514 351.65855408 C-191.56730881 350.49377029 -191.55147247 349.32898651 -191.53515625 348.12890625 C-191.52895767 347.10474106 -191.52275909 346.08057587 -191.51637268 345.02537537 C-190.83783616 341.48249696 -189.93415915 340.43414141 -187.00170898 338.33813477 C-181.49629566 336.79189634 -175.96623413 335.73635043 -170.32868958 334.80685425 C-169.49233732 334.66630462 -168.65598507 334.52575499 -167.79428881 334.38094628 C-165.01212695 333.91422103 -162.22922143 333.45209723 -159.44628906 332.98999023 C-157.44335047 332.6549901 -155.44045754 332.3197169 -153.43760681 331.98419189 C-148.01280662 331.0763147 -142.58732861 330.17255185 -137.16168046 329.26975775 C-132.63077282 328.51545894 -128.10020219 327.75914699 -123.56962985 327.0028373 C-112.88512352 325.219255 -102.20006602 323.43900292 -91.51464844 321.66088867 C-80.48823529 319.8259769 -69.46271986 317.98574293 -58.4376381 316.1428498 C-48.96875309 314.56025705 -39.49934796 312.98080493 -30.02951163 311.40391457 C-24.37464697 310.46225937 -18.71998255 309.5194413 -13.06580544 308.57366562 C-7.75340165 307.68521171 -2.4403589 306.80068416 2.87320518 305.91919708 C4.82415465 305.59487524 6.77487431 305.26916754 8.72534561 304.94198227 C11.38503102 304.49605558 14.04549703 304.05511947 16.70622253 303.615448 C17.47995482 303.48452 18.25368711 303.35359199 19.05086583 303.21869648 C22.80000401 302.60468642 26.17144363 302.33813477 29.99829102 302.33813477 C29.99829102 260.09813477 29.99829102 217.85813477 29.99829102 174.33813477 C16.79829102 174.33813477 3.59829102 174.33813477 -10.00170898 174.33813477 C-17.83910797 170.41943527 -22.36502887 167.37179679 -26.37670898 159.71313477 C-27.59103213 155.09870679 -28.12673561 150.62073624 -28.13542175 145.85575867 C-28.14181923 144.26 -28.14181923 144.26 -28.14834595 142.63200378 C-28.14789276 141.48017105 -28.14743958 140.32833832 -28.14697266 139.14160156 C-28.15033127 137.91647858 -28.15368988 136.69135559 -28.15715027 135.42910767 C-28.16500669 132.07977291 -28.16832693 128.73050017 -28.16896605 125.3811605 C-28.16967859 123.2848387 -28.17181677 121.18852333 -28.17446327 119.09220314 C-28.18370555 111.76800756 -28.1877996 104.44383013 -28.18701172 97.11962891 C-28.18641139 90.31001932 -28.19695729 83.50048907 -28.21275538 76.69089955 C-28.2258644 70.82996078 -28.2311942 64.96904782 -28.23055631 59.10809451 C-28.23030229 55.6140999 -28.2331002 52.12017582 -28.24373436 48.62619591 C-28.25528437 44.72505009 -28.25064798 40.82401165 -28.24462891 36.92285156 C-28.25024841 35.77709152 -28.25586792 34.63133148 -28.26165771 33.45085144 C-28.22012274 22.83265793 -26.98307709 14.635799 -20.00170898 6.33813477 C-14.03330711 1.38563108 -7.62502378 0.1071795 0 0 Z M-9.62344646 20.07658291 C-11.31203634 22.84734212 -11.38351201 24.52717893 -11.39611816 27.7587738 C-11.40746796 28.85930084 -11.41881775 29.95982788 -11.43051147 31.09370422 C-11.42758087 32.29641464 -11.42465027 33.49912506 -11.42163086 34.73828125 C-11.4301004 36.00855164 -11.43856995 37.27882202 -11.44729614 38.58758545 C-11.4695099 42.06903675 -11.47244295 45.55025136 -11.47054863 49.03176379 C-11.47042893 51.93934863 -11.47899297 54.84688332 -11.48732615 57.7544542 C-11.50655955 64.61449439 -11.50944423 71.47441289 -11.50268555 78.33447266 C-11.49604378 85.40900131 -11.51891412 92.48300871 -11.55599928 99.55743164 C-11.58669647 105.63400383 -11.59805635 111.71040833 -11.59416246 117.78705651 C-11.59209501 121.41522393 -11.59757279 125.0429857 -11.62205505 128.67107964 C-11.6484569 132.71726873 -11.63459447 136.76235711 -11.61694336 140.80859375 C-11.6302066 142.00927994 -11.64346985 143.20996613 -11.65713501 144.44703674 C-11.59674121 150.85039784 -11.59674121 150.85039784 -8.99865723 156.58178711 C-5.11115179 158.86004169 -1.81996963 159.0335598 2.56469727 158.96923828 C3.84121658 158.97997124 3.84121658 158.97997124 5.14352417 158.99092102 C7.94982987 159.00779659 10.75453548 158.98841263 13.56079102 158.96704102 C15.51464978 158.96786982 17.46850848 158.97032964 19.42236328 158.97434998 C23.51461813 158.97720719 27.60632543 158.96251409 31.69848633 158.93505859 C36.94109137 158.90097607 42.18271736 158.90699481 47.42536926 158.92572117 C51.45918928 158.93629533 55.49278193 158.92734953 59.52658081 158.91233635 C61.45945561 158.90715714 63.39235419 158.90763317 65.32522583 158.9138813 C68.02796392 158.91933851 70.72930581 158.89894267 73.43188477 158.87158203 C74.22891815 158.87810791 75.02595154 158.88463379 75.84713745 158.89135742 C79.56210619 158.82748578 81.78697841 158.46933639 84.97119141 156.49229431 C88.85108401 152.36920749 88.13389231 147.69951931 88.11181641 142.36865234 C88.11196243 141.45137863 88.11210846 140.53410492 88.11225891 139.58903503 C88.11156159 136.55355474 88.10377758 133.51813561 88.09594727 130.48266602 C88.09408245 128.37945082 88.09265884 126.27623519 88.09165955 124.17301941 C88.08783941 118.6344381 88.07801338 113.09588297 88.06695557 107.55731201 C88.05673065 101.90678257 88.05215961 96.25624891 88.04711914 90.60571289 C88.03639069 79.51650867 88.01932027 68.4273239 87.99829102 57.33813477 C87.04986328 57.32878906 86.10143555 57.31944336 85.12426758 57.30981445 C81.59764343 57.26574245 78.07222899 57.20410694 74.54614258 57.13061523 C73.0215167 57.10242942 71.49674536 57.08120288 69.97192383 57.06713867 C67.77683166 57.04567428 65.5834839 56.99901307 63.38891602 56.94750977 C62.06923828 56.9265625 60.74956055 56.90561523 59.38989258 56.8840332 C55.99829102 56.33813477 55.99829102 56.33813477 53.57049561 54.53497314 C51.22064248 51.251528 51.39515366 47.96551284 51.38891602 44.07250977 C51.37237976 43.27911194 51.35584351 42.48571411 51.33880615 41.66827393 C51.29033486 39.14148207 51.26895814 36.61529196 51.24829102 34.08813477 C51.22013045 32.37195867 51.19020289 30.6558106 51.15844727 28.93969727 C51.08457666 24.73922599 51.03499715 20.53908856 50.99829102 16.33813477 C43.39944306 16.28741713 35.80063878 16.25239369 28.20166016 16.22827148 C25.61668262 16.2182151 23.03171646 16.20456827 20.44677734 16.18725586 C16.7308471 16.16299206 13.01506729 16.15164792 9.29907227 16.14282227 C7.56600578 16.12733841 7.56600578 16.12733841 5.79792786 16.11154175 C4.71718491 16.11139069 3.63644196 16.11123962 2.52294922 16.11108398 C1.57474808 16.10664276 0.62654694 16.10220154 -0.35038757 16.09762573 C-4.20391747 16.44719057 -6.94210784 17.20227791 -9.62344646 20.07658291 Z M66.99829102 30.33813477 C66.99829102 33.96813477 66.99829102 37.59813477 66.99829102 41.33813477 C70.29829102 41.33813477 73.59829102 41.33813477 76.99829102 41.33813477 C76.09079102 40.08000977 75.18329102 38.82188477 74.24829102 37.52563477 C73.73782227 36.81793945 73.22735352 36.11024414 72.70141602 35.38110352 C70.81931913 32.96402731 70.81931913 32.96402731 66.99829102 30.33813477 Z M22.96240234 319.31173706 C22.32521932 319.41649829 21.68803629 319.52125952 21.03154469 319.62919533 C18.88100297 319.98302517 16.73066152 320.33805715 14.58032227 320.69311523 C13.04487857 320.94607047 11.50942714 321.19897872 9.97396851 321.45184326 C-4.03605957 323.7603568 -18.0440977 326.08097027 -32.051651 328.40444756 C-42.41585297 330.12342639 -52.78097996 331.83660002 -63.14737606 333.5422982 C-70.42566207 334.74039211 -77.70281058 335.94524064 -84.97914982 337.15510094 C-89.33069792 337.87844119 -93.68271058 338.59866775 -98.03598022 339.31158066 C-102.12804961 339.98184517 -106.21865585 340.66039811 -110.3082695 341.34548187 C-111.81346065 341.59610777 -113.31916848 341.84365204 -114.82539749 342.0879631 C-116.87366835 342.42065942 -118.91983053 342.76415945 -120.96582031 343.11056519 C-122.11399734 343.30045454 -123.26217438 343.49034389 -124.44514465 343.68598747 C-125.28881088 343.90119608 -126.13247711 344.11640469 -127.00170898 344.33813477 C-127.33170898 344.99813477 -127.66170898 345.65813477 -128.00170898 346.33813477 C-106.89167045 349.68881384 -85.77606255 353.00214348 -64.65340328 356.27235699 C-54.84359647 357.79198224 -45.03589607 359.32329982 -35.23242188 360.88330078 C-26.67734294 362.24461624 -18.1190054 363.58282274 -9.55618197 364.89457637 C-5.03161154 365.58849554 -0.50934773 366.29305925 4.00917244 367.02542686 C22.01806001 369.93612414 38.81624116 372.63247164 56.92572212 368.93105125 C62.50812694 367.85380938 68.14405707 367.10549786 73.76974297 366.29207516 C77.41952219 365.75900083 81.06549376 365.20119781 84.71165466 364.64399719 C86.23559897 364.41153511 87.75954447 364.1790809 89.28349113 363.94663429 C90.05126216 363.82944424 90.81903318 363.71225419 91.61006999 363.59151292 C95.61222046 362.98117728 99.6147973 362.37364994 103.61732483 361.76579285 C111.15691324 360.62034834 118.69612886 359.47246985 126.23520523 358.32366055 C134.83503917 357.0133379 143.43529797 355.70581424 152.0355891 354.39849627 C169.69028913 351.71476793 187.34446713 349.02762016 204.99829102 346.33813477 C204.66829102 345.67813477 204.33829102 345.01813477 203.99829102 344.33813477 C201.30904541 343.61247548 201.30904541 343.61247548 197.96913147 343.11056519 C197.33265401 343.00268397 196.69617655 342.89480276 196.04041189 342.78365242 C193.89366866 342.42204231 191.74503125 342.07328334 189.59619141 341.72436523 C188.06223554 341.46867739 186.52840948 341.21220971 184.9947052 340.95501709 C180.81838577 340.25700739 176.64030648 339.57010222 172.46182179 338.88519049 C168.09750117 338.16799908 163.73481379 337.4410075 159.37193298 336.71511841 C152.04302496 335.49716541 144.71306247 334.28574345 137.38232422 333.07885742 C127.03482792 331.3752949 116.68935741 329.65967443 106.34423077 327.94178939 C98.32437488 326.61052131 90.30393066 325.28280364 82.28344727 323.95532227 C81.42070796 323.81246717 80.55796866 323.66961207 79.66908574 323.52242804 C74.71467689 322.70220709 69.75998853 321.88371546 64.80483818 321.06798553 C63.30107019 320.8202032 61.79739167 320.57187724 60.29380798 320.32297897 C58.24759652 319.98438064 56.20106671 319.64777962 54.1544342 319.31173706 C53.00717896 319.12260176 51.85992373 318.93346645 50.67790318 318.73859978 C48.12018086 318.28886565 48.12018086 318.28886565 45.99829102 318.33813477 C45.99829102 324.60813477 45.99829102 330.87813477 45.99829102 337.33813477 C50.83989349 333.21956864 50.83989349 333.21956864 55.49829102 328.90063477 C57.99829102 327.33813477 57.99829102 327.33813477 61.68579102 327.46313477 C64.99829102 328.33813477 64.99829102 328.33813477 66.99829102 330.33813477 C68.32135278 334.41757522 67.88097575 336.54297488 65.99829102 340.33813477 C63.00490942 343.91719938 59.70348861 347.19037115 56.40527344 350.48706055 C54.81708457 352.08181519 53.25444372 353.69900369 51.69165039 355.31860352 C50.67685133 356.34220532 49.66062042 357.36438999 48.64282227 358.38500977 C47.27154175 359.77478027 47.27154175 359.77478027 45.87255859 361.19262695 C42.46370008 363.73718217 40.21678979 364.20304366 35.99829102 364.33813477 C29.74407457 361.36651811 25.06577588 355.69961492 20.24829102 350.83813477 C19.3859082 349.98348633 18.52352539 349.12883789 17.63500977 348.24829102 C16.81129883 347.42200195 15.98758789 346.59571289 15.13891602 345.74438477 C14.39158203 344.99479492 13.64424805 344.24520508 12.87426758 343.47290039 C10.19791691 340.42734987 9.09772966 338.31263349 8.68579102 334.27563477 C8.99829102 331.33813477 8.99829102 331.33813477 10.12329102 329.52563477 C12.80445302 327.8275655 14.83115095 327.46482037 17.99829102 327.33813477 C22.6111826 329.34888238 26.2549494 333.03518628 29.99829102 336.33813477 C29.99829102 330.39813477 29.99829102 324.45813477 29.99829102 318.33813477 C27.66081738 318.33813477 25.25462364 318.93414723 22.96240234 319.31173706 Z M-175.00170898 355.33813477 C-175.00170898 367.21813477 -175.00170898 379.09813477 -175.00170898 391.33813477 C-129.12130489 398.55058612 -83.21976575 405.621596 -37.30467695 412.60948819 C-32.2927107 413.37234358 -27.28091933 414.13634078 -22.26919556 414.90078735 C-15.43978564 415.94241849 -8.60998854 416.98147807 -1.77992058 418.01878548 C0.77240183 418.40673757 3.32461246 418.79542581 5.87670708 419.18487358 C9.38583192 419.72016191 12.89536776 420.25266748 16.4050293 420.78442383 C17.44226985 420.94325955 18.4795104 421.10209528 19.54818249 421.26574421 C20.4926439 421.40824698 21.43710531 421.55074976 22.41018677 421.6975708 C23.22920534 421.82209751 24.04822392 421.94662422 24.89206123 422.07492447 C27.1406632 422.40013626 27.1406632 422.40013626 29.99829102 422.33813477 C29.99829102 410.45813477 29.99829102 398.57813477 29.99829102 386.33813477 C7.54820754 382.53764067 -14.93080722 378.99988746 -37.44167566 375.58100867 C-41.18335555 375.01248709 -44.9248338 374.44264434 -48.66631782 373.87283546 C-57.47866674 372.53079555 -66.29134572 371.19093971 -75.10424805 369.85253906 C-84.17682675 368.47466191 -93.24882127 367.09298498 -102.32055104 365.70953053 C-110.16031787 364.51408619 -118.00043111 363.32093357 -125.84082973 362.12963992 C-130.50316917 361.42120786 -135.16537317 360.71191357 -139.8272438 360.00040245 C-144.18557402 359.33532046 -148.54432908 358.67309767 -152.90343285 358.01310539 C-154.50159294 357.77064404 -156.09959919 357.5271661 -157.69743919 357.28260422 C-159.87480117 356.94950595 -162.05268564 356.6200628 -164.23074341 356.29154968 C-165.44910448 356.10631083 -166.66746555 355.92107199 -167.92274666 355.73021984 C-171.14573065 355.25391935 -171.14573065 355.25391935 -175.00170898 355.33813477 Z M240.19229126 356.47032166 C239.388796 356.59212266 238.58530074 356.71392367 237.75745714 356.83941561 C235.05566875 357.24954067 232.3543796 357.66286556 229.65307617 358.07617188 C227.71991291 358.37030061 225.78672025 358.66423621 223.85350037 358.95799255 C218.59493173 359.75763695 213.33679359 360.56008007 208.07873583 361.36307597 C202.5813076 362.20221335 197.08352316 363.03901059 191.58578491 363.87611389 C182.35000694 365.28274516 173.11449529 366.69111428 163.87915039 368.10058594 C153.19869217 369.73059258 142.51787509 371.35823021 131.83684886 372.98451036 C121.56963257 374.5478094 111.30261961 376.1124395 101.03571701 377.67779732 C96.66348218 378.34441352 92.29118606 379.01062559 87.91884232 379.67652702 C82.7690718 380.46091664 77.61948336 381.24649099 72.47003365 382.03298378 C70.57905062 382.32161532 68.68800729 382.60985205 66.7968998 382.89766693 C64.21718654 383.29035417 61.63769608 383.68447374 59.05825806 384.07896423 C58.30835181 384.19277984 57.55844556 384.30659545 56.78581488 384.42386001 C53.16446758 384.97928117 49.59341861 385.61910925 45.99829102 386.33813477 C45.99829102 398.21813477 45.99829102 410.09813477 45.99829102 422.33813477 C59.02627476 420.84525856 59.02627476 420.84525856 72.00105286 419.04136658 C72.76412945 418.92602383 73.52720604 418.81068108 74.31340617 418.69184309 C76.79447747 418.31612709 79.27492011 417.93642835 81.75537109 417.55664062 C83.56413702 417.2818701 85.37294046 417.00734647 87.18177795 416.73304749 C92.03665962 415.99608144 96.89099458 415.25557321 101.7452147 414.51426387 C106.84391542 413.73614236 111.94307031 412.96100752 117.04216003 412.18544006 C125.58651648 410.88538388 134.13052429 409.58305632 142.67431641 408.27929688 C152.55061661 406.77222427 162.42743172 405.26856389 172.30453187 403.7667436 C181.82971165 402.31837288 191.35456051 400.86783765 200.87924767 399.41623116 C204.92570689 398.79955728 208.97227472 398.18360328 213.01893044 397.56822014 C217.7725515 396.84521099 222.52587821 396.12029677 227.27898216 395.3938961 C229.02361461 395.12757761 230.76834653 394.86190989 232.51318359 394.59693527 C234.8911684 394.23569717 237.26878295 393.87211361 239.64631653 393.50791931 C240.33900361 393.40324984 241.0316907 393.29858037 241.7453683 393.1907391 C244.89077957 392.70646764 247.90477465 392.11151386 250.99829102 391.33813477 C250.99829102 379.45813477 250.99829102 367.57813477 250.99829102 355.33813477 C247.32732297 355.33813477 243.81041159 355.91373687 240.19229126 356.47032166 Z " fill="#000000" transform="translate(217.001708984375,36.661865234375)"/>
<path d="M0 0 C1.45346726 -0.00202547 2.90693352 -0.00494084 4.36039734 -0.00869751 C7.38693036 -0.01309162 10.41319564 -0.00678013 13.43969727 0.00732422 C17.31107556 0.02449174 21.18183321 0.01450938 25.05318928 -0.00339317 C28.04640873 -0.01424497 31.03948139 -0.01077966 34.03270531 -0.0030098 C35.46040102 -0.0010156 36.88811027 -0.00343952 38.31579018 -0.01044846 C40.30858722 -0.01809363 42.3014314 -0.00436878 44.29418945 0.01025391 C45.42540726 0.01264069 46.55662506 0.01502747 47.72212219 0.01748657 C52.78617458 0.65216141 55.90771826 3.25411134 59.28515625 6.91015625 C59.91421875 7.58626953 60.54328125 8.26238281 61.19140625 8.95898438 C61.83335938 9.66087891 62.4753125 10.36277344 63.13671875 11.0859375 C63.7709375 11.76849609 64.40515625 12.45105469 65.05859375 13.15429688 C68.81778688 17.21652701 72.48577307 21.35043534 76.11865234 25.52563477 C78.93698802 28.73803492 81.84641352 31.86430873 84.75390625 34.99609375 C86.09993468 36.45429122 87.43092635 37.92632202 88.76171875 39.3984375 C89.62832626 40.22538116 90.49493378 41.05232483 91.38780212 41.90432739 C94.92167359 46.20424652 94.45443605 50.89498073 94.39282227 56.23388672 C94.40355522 57.8545253 94.40355522 57.8545253 94.414505 59.50790405 C94.43138965 63.07341009 94.41198651 66.63765826 94.390625 70.203125 C94.39145383 72.68645329 94.39391375 75.16978152 94.39793396 77.65310669 C94.40079199 82.85663374 94.38609145 88.05973039 94.35864258 93.26318359 C94.32459571 99.92356446 94.33056625 106.58283164 94.34930515 113.24329948 C94.35989052 118.37181998 94.35092257 123.500162 94.33592033 128.62866592 C94.33074701 131.08378697 94.33120996 133.53892673 94.33746529 135.99404526 C94.34293433 139.43116852 94.32248484 142.86720039 94.29516602 146.30419922 C94.30495483 147.81784058 94.30495483 147.81784058 94.31494141 149.36206055 C94.21648584 156.67177254 92.62165515 161.93834314 87.9375 167.60546875 C87.32261719 168.13527344 86.70773438 168.66507813 86.07421875 169.2109375 C85.17123047 170.02498047 85.17123047 170.02498047 84.25 170.85546875 C77.60609271 174.97531707 70.8072124 175.83483336 63.1328125 175.69140625 C62.25770523 175.68716141 61.38259796 175.68291656 60.48097229 175.67854309 C57.72005803 175.66191731 54.9599077 175.62429716 52.19921875 175.5859375 C50.31316168 175.57086978 48.42709302 175.55718506 46.54101562 175.54492188 C41.94762792 175.51206687 37.35480228 175.46039885 32.76171875 175.3984375 C32.90172587 176.83940348 33.04743937 178.27981577 33.19555664 179.7199707 C33.2760878 180.5221553 33.35661896 181.3243399 33.43959045 182.15083313 C34.25515119 187.84129217 37.59426358 192.57135886 41.92578125 196.22265625 C53.11977187 203.46046452 66.10976403 205.11533272 79.07421875 206.3984375 C99.89343975 208.47478064 120.23470433 211.79931826 134.76171875 228.3984375 C142.7664679 239.53308249 145.99319033 250.93681532 147.76171875 264.3984375 C148.25800781 263.83253906 148.75429687 263.26664062 149.265625 262.68359375 C154.80000723 256.70814121 154.80000723 256.70814121 159.44921875 255.2109375 C163.14180627 255.41995189 164.88394743 256.11314851 167.76171875 258.3984375 C169.33838841 261.55177681 169.68380558 264.03627054 168.76171875 267.3984375 C166.61293412 270.52806577 164.02721496 273.15745063 161.33789062 275.828125 C159.5257024 277.63357646 157.74598178 279.4686089 155.96484375 281.3046875 C154.62770031 282.67064097 153.2891571 284.0352256 151.94921875 285.3984375 C150.98036743 286.3874707 150.98036743 286.3874707 149.99194336 287.39648438 C149.37327393 288.01587891 148.75460449 288.63527344 148.1171875 289.2734375 C147.56699951 289.82773437 147.01681152 290.38203125 146.44995117 290.953125 C143.31447503 293.63743719 141.61887671 294.40813133 137.39404297 294.36035156 C133.03554636 293.20613214 130.68817835 291.16191039 127.64453125 288.0078125 C127.10190643 287.46618469 126.55928162 286.92455688 126.00021362 286.36651611 C124.86203932 285.22368078 123.73119661 284.07350161 122.60742188 282.91650391 C120.88834389 281.15010737 119.14401967 279.41200852 117.39453125 277.67578125 C116.28876959 276.55886848 115.18454791 275.44042856 114.08203125 274.3203125 C113.56230743 273.8024115 113.04258362 273.2845105 112.5071106 272.75091553 C109.63179608 269.76088899 107.98977138 267.59997175 107.76171875 263.3984375 C108.52984726 260.46558318 109.42387019 258.77382478 111.44921875 256.5234375 C115.04547035 254.77390969 116.94565551 255.25361853 120.76171875 256.3984375 C123.64993846 258.51781413 126.22408322 260.87398449 128.76171875 263.3984375 C129.66438146 254.01074527 126.06851691 245.78960411 120.19921875 238.5234375 C107.97581055 225.88800431 89.27659434 224.9886764 72.77563477 223.24438477 C55.84003914 221.42920622 37.92375647 218.08154894 25.8046875 205.1015625 C18.94030517 196.0190528 15.56952778 186.7377046 15.76171875 175.3984375 C14.37835327 175.42200317 14.37835327 175.42200317 12.96704102 175.44604492 C9.50604494 175.49753943 6.04546305 175.5349636 2.58422852 175.56323242 C1.09360277 175.57820792 -0.39697976 175.59859569 -1.88745117 175.62475586 C-21.99851716 175.96859239 -21.99851716 175.96859239 -29.55078125 169.2734375 C-30.16566406 168.75523437 -30.78054687 168.23703125 -31.4140625 167.703125 C-37.4405377 160.08937689 -37.81767095 152.36789406 -37.75585938 142.94335938 C-37.76128992 141.60689027 -37.76841778 140.27042716 -37.77709961 138.93397522 C-37.79522563 135.32849561 -37.78831042 131.72347744 -37.77558327 128.11799049 C-37.76539953 124.33056086 -37.77486377 120.54316863 -37.78112793 116.7557373 C-37.7883888 110.39747076 -37.77885785 104.03939055 -37.75976562 97.68115234 C-37.73799974 90.34819908 -37.74505223 83.01569081 -37.76707125 75.68274832 C-37.78526997 69.36736562 -37.78776182 63.05211626 -37.77731657 56.73671579 C-37.7711061 52.97332378 -37.77017803 49.21014038 -37.78346252 45.44676208 C-37.79508596 41.90721931 -37.78687861 38.36824576 -37.7638855 34.82876396 C-37.75614306 32.9233311 -37.76789874 31.01784963 -37.78039551 29.11244202 C-37.70067784 20.96981572 -36.51261202 14.61646185 -31.44921875 8.09375 C-30.84335937 7.57554688 -30.2375 7.05734375 -29.61328125 6.5234375 C-29.02289063 5.98976563 -28.4325 5.45609375 -27.82421875 4.90625 C-19.13926895 -0.15778417 -9.78995057 -0.04845849 0 0 Z M-20.23828125 21.3984375 C-21.50178759 23.92545018 -21.36979715 25.67314652 -21.37872314 28.50263977 C-21.38443329 29.58358917 -21.39014343 30.66453857 -21.39602661 31.77824402 C-21.39714447 32.96944351 -21.39826233 34.16064301 -21.39941406 35.38793945 C-21.40437897 36.63841064 -21.40934387 37.88888184 -21.41445923 39.17724609 C-21.42658192 42.61331982 -21.43402982 46.04933258 -21.43846989 49.48542047 C-21.44139973 51.63194241 -21.4455044 53.778459 -21.44997406 55.92497826 C-21.46365182 62.64029424 -21.47331677 69.35559801 -21.47717595 76.07092696 C-21.48165576 83.82381316 -21.49919877 91.57652297 -21.52817655 99.32935554 C-21.54979404 105.32093553 -21.55988029 111.3124659 -21.56121707 117.30408448 C-21.56226518 120.88300648 -21.56817379 124.46176274 -21.58603668 128.04064369 C-21.60558057 132.03412192 -21.60122816 136.02723121 -21.59472656 140.02075195 C-21.60394135 141.20587875 -21.61315613 142.39100555 -21.62265015 143.61204529 C-21.61708099 144.70145416 -21.61151184 145.79086304 -21.60577393 146.9132843 C-21.60724049 147.85736806 -21.60870705 148.80145182 -21.61021805 149.77414417 C-21.16231473 152.93443836 -20.096093 154.82436627 -18.23828125 157.3984375 C-15.00845464 159.0133508 -11.47057094 158.5728027 -7.9206543 158.59130859 C-7.06032593 158.59948608 -6.19999756 158.60766357 -5.31359863 158.61608887 C-2.45907288 158.6409546 0.39540312 158.65746149 3.25 158.671875 C4.22382315 158.67719868 5.19764629 158.68252235 6.20097923 158.68800735 C11.35492542 158.7147435 16.50884734 158.7341173 21.6628418 158.74853516 C26.98958151 158.7651882 32.31570315 158.80997022 37.64220905 158.8609066 C41.73515036 158.89454169 45.82794426 158.90610847 49.92101097 158.91176224 C51.88464268 158.91848459 53.84826435 158.93373211 55.81176186 158.95765305 C58.56032498 158.9892288 61.30721176 158.989353 64.0559082 158.98193359 C64.86700546 158.99833893 65.67810272 159.01474426 66.51377869 159.03164673 C70.47576007 158.9878691 72.36886506 158.65308688 75.77035522 156.44822693 C78.53164728 152.2192857 78.43050271 148.96854353 78.3293457 144.01831055 C78.33007584 143.08123764 78.33080597 142.14416473 78.33155823 141.17869568 C78.3280813 138.08858891 78.28921438 134.99999892 78.25 131.91015625 C78.24067227 129.76496708 78.23355597 127.61976724 78.2285614 125.4745636 C78.20948862 119.8337961 78.16038464 114.19367433 78.1050415 108.55316162 C78.05385552 102.79529556 78.0310487 97.03732497 78.00585938 91.27929688 C77.95226681 79.98539368 77.86695 68.69196933 77.76171875 57.3984375 C76.81329102 57.3890918 75.86486328 57.37974609 74.88769531 57.37011719 C71.36107117 57.32604519 67.83565672 57.26440967 64.30957031 57.19091797 C62.78494444 57.16273215 61.26017309 57.14150561 59.73535156 57.12744141 C57.54025939 57.10597701 55.34691164 57.05931581 53.15234375 57.0078125 C51.83266602 56.98686523 50.51298828 56.96591797 49.15332031 56.94433594 C45.76171875 56.3984375 45.76171875 56.3984375 43.33392334 54.58953857 C41.01729307 51.36096953 41.15866308 48.18304495 41.15234375 44.3515625 C41.1358075 43.58036072 41.11927124 42.80915894 41.10223389 42.0145874 C41.05377282 39.55912296 41.03238838 37.10427766 41.01171875 34.6484375 C40.98355729 32.98043763 40.95362961 31.31246658 40.921875 29.64453125 C40.84801503 25.562551 40.79842939 21.48091405 40.76171875 17.3984375 C33.39903779 17.30570216 26.03648302 17.23465515 18.67333603 17.19118881 C15.25418195 17.17032549 11.83542781 17.14203245 8.41650391 17.09667969 C4.48474944 17.04485132 0.55315618 17.02548172 -3.37890625 17.0078125 C-4.60506653 16.98716736 -5.83122681 16.96652222 -7.09454346 16.94525146 C-8.23542419 16.94494934 -9.37630493 16.94464722 -10.55175781 16.94433594 C-12.05733246 16.93101227 -12.05733246 16.93101227 -13.59332275 16.91741943 C-16.95944004 17.52958905 -18.10871561 18.78294502 -20.23828125 21.3984375 Z M57.76171875 31.3984375 C57.76171875 34.6984375 57.76171875 37.9984375 57.76171875 41.3984375 C60.73171875 41.3984375 63.70171875 41.3984375 66.76171875 41.3984375 C65.83034283 40.10234803 64.89136215 38.81172118 63.94921875 37.5234375 C63.42714844 36.80414063 62.90507813 36.08484375 62.3671875 35.34375 C60.72899098 33.16815095 60.72899098 33.16815095 57.76171875 31.3984375 Z " fill="#000000" transform="translate(47.23828125,34.6015625)"/>
<path d="M0 0 C1.47731672 -0.00202476 2.95463247 -0.00493954 4.4319458 -0.00869751 C7.51153177 -0.01309645 10.59085495 -0.00676524 13.67041016 0.00732422 C17.61019493 0.02447547 21.54936913 0.01452258 25.48913193 -0.00339317 C28.53296494 -0.01424573 31.57665362 -0.01077902 34.62049103 -0.0030098 C36.07330651 -0.00101497 37.52613528 -0.00344178 38.97893524 -0.01044846 C41.00776406 -0.01809305 43.03663917 -0.00436938 45.06542969 0.01025391 C46.79342804 0.01383408 46.79342804 0.01383408 48.55633545 0.01748657 C53.65037133 0.646668 56.76708319 3.23295805 60.1640625 6.91015625 C60.793125 7.58626953 61.4221875 8.26238281 62.0703125 8.95898438 C62.71226562 9.66087891 63.35421875 10.36277344 64.015625 11.0859375 C64.64984375 11.76849609 65.2840625 12.45105469 65.9375 13.15429688 C69.69669313 17.21652701 73.36467932 21.35043534 76.99755859 25.52563477 C79.81589427 28.73803492 82.72531977 31.86430873 85.6328125 34.99609375 C86.97884093 36.45429122 88.3098326 37.92632202 89.640625 39.3984375 C90.50723251 40.22760178 91.37384003 41.05676605 92.26670837 41.91105652 C95.78136319 46.18718964 95.33370278 50.81396912 95.27172852 56.1262207 C95.28246147 57.72981949 95.28246147 57.72981949 95.29341125 59.36581421 C95.31029618 62.8940527 95.29089132 66.42101995 95.26953125 69.94921875 C95.27036014 72.40773117 95.27282028 74.86624353 95.27684021 77.32475281 C95.27969834 82.4770069 95.26499784 87.62882634 95.23754883 92.78100586 C95.20352072 99.37169141 95.20946672 105.96159702 95.2282114 112.55231953 C95.23880402 117.63026882 95.22982195 122.70803811 95.21482658 127.78597069 C95.20965734 130.21514539 95.21011123 132.64433899 95.21637154 135.07351112 C95.22184864 138.47690534 95.2013649 141.8792017 95.17407227 145.2824707 C95.18386108 146.77669304 95.18386108 146.77669304 95.19384766 148.30110168 C95.0930847 155.72637827 93.48033925 161.81078995 88.81640625 167.703125 C88.20152344 168.22132813 87.58664062 168.73953125 86.953125 169.2734375 C86.35113281 169.80710938 85.74914062 170.34078125 85.12890625 170.890625 C76.58461619 176.06816969 67.77205664 175.76806383 58.078125 175.5859375 C56.67384253 175.57085861 55.26954434 175.55717589 53.86523438 175.54492188 C50.45662385 175.50978156 47.0488323 175.46057873 43.640625 175.3984375 C43.66672852 176.38662476 43.66672852 176.38662476 43.69335938 177.39477539 C43.87868186 189.43080893 39.70856508 198.42163069 31.640625 207.3984375 C18.02618332 219.73288894 -0.72396458 221.95434458 -18.234375 223.8359375 C-43.27809678 226.51651499 -43.27809678 226.51651499 -62.890625 241.265625 C-67.31088912 247.68441279 -68.86954389 253.68359751 -69.359375 261.3984375 C-68.80507813 260.83253906 -68.25078125 260.26664062 -67.6796875 259.68359375 C-66.95523438 258.95011719 -66.23078125 258.21664063 -65.484375 257.4609375 C-64.76507813 256.73003906 -64.04578125 255.99914062 -63.3046875 255.24609375 C-60.85330635 252.9177739 -59.8751592 252.4432883 -56.484375 252.1484375 C-53.359375 252.3984375 -53.359375 252.3984375 -51.046875 253.3984375 C-48.98153827 255.846244 -48.25001283 258.05309321 -48.00854492 261.24487305 C-48.45487026 263.98463354 -49.39775773 265.02374677 -51.28515625 267.04296875 C-51.92445068 267.73495361 -52.56374512 268.42693848 -53.22241211 269.13989258 C-53.92760986 269.8852124 -54.63280762 270.63053223 -55.359375 271.3984375 C-56.08970947 272.19854248 -56.82004395 272.99864746 -57.57250977 273.82299805 C-59.92572465 276.38261347 -62.32443191 278.89225068 -64.734375 281.3984375 C-65.93320312 282.70361328 -65.93320312 282.70361328 -67.15625 284.03515625 C-73.88622353 290.97203835 -73.88622353 290.97203835 -78.6484375 291.71484375 C-85.34585959 290.96514327 -90.23838797 284.72716612 -94.66455078 280.10180664 C-96.35699036 278.3384221 -98.08608247 276.61862458 -99.82421875 274.90039062 C-100.92166873 273.78621098 -102.01680437 272.66974602 -103.109375 271.55078125 C-103.62282471 271.04006577 -104.13627441 270.52935028 -104.6652832 270.00315857 C-108.1595775 266.29689092 -109.15934692 263.45710229 -109.359375 258.3984375 C-108.57208416 255.75027739 -107.83657391 254.76959221 -105.671875 253.0859375 C-102.08455726 252.01943763 -99.97743723 252.37331987 -96.359375 253.3984375 C-94.06782803 255.10282653 -92.02102095 256.9257772 -89.9609375 258.90234375 C-88.60285569 260.51221012 -88.60285569 260.51221012 -87.359375 260.3984375 C-87.27300781 259.67140625 -87.18664062 258.944375 -87.09765625 258.1953125 C-85.05081423 243.54818613 -79.01928643 231.06436539 -67.875 221.19921875 C-65.44103725 219.41250405 -62.99168684 217.8752987 -60.359375 216.3984375 C-59.57691406 215.94082031 -58.79445313 215.48320312 -57.98828125 215.01171875 C-45.29430676 208.4171891 -30.09986165 207.40641544 -16.109375 205.9609375 C-2.29905417 204.5008199 12.7181529 202.84138404 22.1875 191.5546875 C24.75267958 187.92308495 25.74661972 185.17249591 26.19750977 180.74731445 C26.28210953 179.93382034 26.36670929 179.12032623 26.45387268 178.28218079 C26.51550095 177.6605455 26.57712921 177.03891022 26.640625 176.3984375 C25.39039551 176.3890918 24.14016602 176.37974609 22.85205078 176.37011719 C18.17380308 176.3299752 13.49619636 176.26415073 8.81835938 176.19091797 C6.8011911 176.16284797 4.78391569 176.14156458 2.76660156 176.12744141 C-0.14833886 176.10581722 -3.06200991 176.05906932 -5.9765625 176.0078125 C-6.86552216 176.00658386 -7.75448181 176.00535522 -8.67037964 176.00408936 C-17.8795274 175.79296979 -25.37588278 173.07947506 -31.88671875 166.47265625 C-36.99400234 159.27910828 -36.7940415 152.55338336 -36.76342773 143.97094727 C-36.76913695 142.61344849 -36.77610334 141.2559545 -36.78422546 139.89846802 C-36.80211125 136.22690516 -36.80099722 132.55558189 -36.79528308 128.88398862 C-36.79218458 125.81250837 -36.79829101 122.7410737 -36.80432183 119.66959995 C-36.81835038 112.42056359 -36.8168197 105.17164512 -36.80541992 97.92260742 C-36.79394 90.45790772 -36.80801584 82.99356735 -36.8348164 75.52891499 C-36.85700659 69.10659564 -36.86360333 62.68438882 -36.85773998 56.26203388 C-36.85437715 52.4321198 -36.85674038 48.60243603 -36.87399101 44.7725544 C-36.88951133 41.16986791 -36.88544909 37.56771185 -36.86668587 33.96504593 C-36.86127098 32.02240919 -36.87547532 30.07974835 -36.89038086 28.13716125 C-36.82205666 20.00528741 -35.8339581 14.60216224 -30.53515625 8.19140625 C-29.92027344 7.66160156 -29.30539062 7.13179687 -28.671875 6.5859375 C-27.76888672 5.77189453 -27.76888672 5.77189453 -26.84765625 4.94140625 C-18.47810867 -0.24850159 -9.54181092 -0.04631684 0 0 Z M-19.359375 21.3984375 C-20.62614912 23.93198574 -20.49663941 25.70346404 -20.51327515 28.54060364 C-20.52187561 29.62996719 -20.53047607 30.71933075 -20.53933716 31.84170532 C-20.54359711 33.04225555 -20.54785706 34.24280579 -20.55224609 35.47973633 C-20.56042358 36.73996109 -20.56860107 38.00018585 -20.57702637 39.29859924 C-20.60324871 43.48420064 -20.618554 47.66981206 -20.6328125 51.85546875 C-20.63817206 53.29603265 -20.64354957 54.73659649 -20.64894485 56.17716026 C-20.67057372 62.16920638 -20.6893107 68.1612498 -20.70056725 74.15332508 C-20.71680844 82.74248975 -20.74998956 91.33120218 -20.80696809 99.92019635 C-20.84566062 105.9584815 -20.86519907 111.99664565 -20.87048781 118.03505152 C-20.87414225 121.64205576 -20.88617202 125.24857768 -20.91859055 128.85544777 C-20.95424661 132.88022406 -20.95030221 136.90402774 -20.94287109 140.92895508 C-20.95927643 142.12343262 -20.97568176 143.31791016 -20.99258423 144.54858398 C-20.94701531 150.9264589 -20.94701531 150.9264589 -18.36503601 156.63833618 C-14.33077086 159.00078337 -11.28605196 159.09612005 -6.68530273 159.02954102 C-5.39174362 159.04027397 -5.39174362 159.04027397 -4.072052 159.05122375 C-1.2284814 159.06809908 1.61351019 159.04871701 4.45703125 159.02734375 C6.43570588 159.02817248 8.41438043 159.03063202 10.39305115 159.03465271 C14.53657798 159.03750981 18.679564 159.02281656 22.82299805 158.99536133 C28.1351995 158.96125655 33.44643534 158.96730506 38.7586832 158.9860239 C42.8430741 158.99658922 46.92724006 158.98766068 51.01161003 158.97263908 C52.97043121 158.96745488 54.92927585 158.96794196 56.88809395 158.97418404 C59.62455957 158.97963145 62.35963952 158.95927762 65.09594727 158.93188477 C66.31091637 158.94167358 66.31091637 158.94167358 67.5504303 158.95166016 C71.15742094 158.8902293 73.21377368 158.72802021 76.11216736 156.49009705 C79.19011455 152.27799626 78.77474307 148.49753318 78.75415039 143.45068359 C78.75429642 142.52380234 78.75444244 141.59692108 78.7545929 140.64195251 C78.75389446 137.5685698 78.74610527 134.49524717 78.73828125 131.421875 C78.73641682 129.29481031 78.73499304 127.1677452 78.73399353 125.04067993 C78.73017028 119.43468038 78.72034162 113.82870662 78.70928955 108.22271729 C78.6990713 102.50525257 78.69449502 96.78778371 78.68945312 91.0703125 C78.6787192 79.84634282 78.66164507 68.6223923 78.640625 57.3984375 C77.16468872 57.38441895 77.16468872 57.38441895 75.65893555 57.37011719 C72.0075964 57.3302387 68.35710181 57.2644877 64.70629883 57.19091797 C63.12633108 57.16269557 61.54622182 57.14148725 59.96606445 57.12744141 C57.69408655 57.10602785 55.42381229 57.05939216 53.15234375 57.0078125 C52.09281746 57.00596954 52.09281746 57.00596954 51.0118866 57.00408936 C47.82522524 56.90894846 46.07634466 56.80419782 43.69816589 54.58953857 C42.09592816 51.26988934 42.1599029 47.96515114 42.12890625 44.3515625 C42.11095505 43.58036072 42.09300385 42.80915894 42.07450867 42.0145874 C42.02046731 39.55925918 41.9865308 37.10412464 41.953125 34.6484375 C41.91994636 32.98044184 41.88545618 31.31247171 41.84960938 29.64453125 C41.76474478 25.5626399 41.69790474 21.48080536 41.640625 17.3984375 C34.27794404 17.30570216 26.91538927 17.23465515 19.55224228 17.19118881 C16.1330882 17.17032549 12.71433406 17.14203245 9.29541016 17.09667969 C5.36365569 17.04485132 1.43206243 17.02548172 -2.5 17.0078125 C-3.72616028 16.98716736 -4.95232056 16.96652222 -6.21563721 16.94525146 C-7.35651794 16.94494934 -8.49739868 16.94464722 -9.67285156 16.94433594 C-11.17842621 16.93101227 -11.17842621 16.93101227 -12.7144165 16.91741943 C-16.08053379 17.52958905 -17.22980936 18.78294502 -19.359375 21.3984375 Z M57.640625 30.3984375 C57.640625 34.0284375 57.640625 37.6584375 57.640625 41.3984375 C60.940625 41.3984375 64.240625 41.3984375 67.640625 41.3984375 C66.733125 40.1403125 65.825625 38.8821875 64.890625 37.5859375 C64.38015625 36.87824219 63.8696875 36.17054687 63.34375 35.44140625 C61.46165312 33.02433005 61.46165312 33.02433005 57.640625 30.3984375 Z " fill="#000000" transform="translate(407.359375,34.6015625)"/>
<path d="M0 0 C1.60197487 -0.00956978 1.60197487 -0.00956978 3.23631287 -0.01933289 C4.38946487 -0.02044571 5.54261688 -0.02155853 6.73071289 -0.02270508 C8.50799522 -0.02769768 8.50799522 -0.02769768 10.32118225 -0.03279114 C12.82870088 -0.03785712 15.33622626 -0.04019956 17.84375 -0.04003906 C21.68443884 -0.04222555 25.52484052 -0.06038506 29.36547852 -0.0793457 C31.79972232 -0.08227965 34.2339675 -0.08426444 36.66821289 -0.08520508 C37.81934067 -0.09239059 38.97046844 -0.09957611 40.15647888 -0.10697937 C41.76318199 -0.10236443 41.76318199 -0.10236443 43.40234375 -0.09765625 C44.34371689 -0.09908127 45.28509003 -0.10050629 46.25498962 -0.10197449 C48.91048549 0.15950357 50.51426669 0.73990767 52.76586914 2.14526367 C54.86266317 4.84114171 54.76097735 6.23820767 54.57836914 9.70776367 C53.50499958 14.2489426 53.50499958 14.2489426 50.76586914 16.14526367 C47.77654282 17.14170578 45.76279969 17.28321032 42.6394043 17.30639648 C41.59466949 17.31600403 40.54993469 17.32561157 39.47354126 17.33551025 C38.34540009 17.33976013 37.21725891 17.34401001 36.05493164 17.34838867 C34.31450089 17.35693878 34.31450089 17.35693878 32.53890991 17.36566162 C30.08267123 17.3751129 27.62641986 17.38164611 25.17016602 17.38549805 C21.41277973 17.39520706 17.65593959 17.42623148 13.89868164 17.45776367 C11.51326823 17.4642934 9.12785089 17.46954399 6.74243164 17.47338867 C5.05629257 17.49190887 5.05629257 17.49190887 3.33609009 17.51080322 C2.28505096 17.50780212 1.23401184 17.50480103 0.15112305 17.50170898 C-1.2309584 17.50717743 -1.2309584 17.50717743 -2.64096069 17.51275635 C-5.78488574 17.06721311 -7.67157212 15.99037342 -10.23413086 14.14526367 C-11.76259747 11.08833045 -11.46655531 8.5154182 -11.23413086 5.14526367 C-8.52411597 0.24142721 -5.2705658 0.02135957 0 0 Z " fill="#000000" transform="translate(233.234130859375,104.854736328125)"/>
<path d="M0 0 C1.22404541 -0.00478363 2.44809082 -0.00956726 3.70922852 -0.01449585 C6.2947722 -0.01789528 8.88035884 -0.00869013 11.46582031 0.01220703 C15.42350096 0.03896784 19.37834508 0.01245625 23.3359375 -0.01953125 C25.84896459 -0.01622716 28.36198992 -0.00982097 30.875 0 C32.05843994 -0.01012115 33.24187988 -0.02024231 34.46118164 -0.03067017 C43.5882464 0.09955243 43.5882464 0.09955243 46.6875 3.01806641 C48.85151485 6.29005204 49.15934093 7.81424418 48.4375 11.6640625 C45.41579813 16.4326789 45.41579813 16.4326789 41.78149414 17.29225159 C40.26736938 17.29369423 40.26736938 17.29369423 38.72265625 17.29516602 C37.57466553 17.30769913 36.4266748 17.32023224 35.24389648 17.33314514 C34.00841064 17.31988693 32.7729248 17.30662872 31.5 17.29296875 C30.22777588 17.29538071 28.95555176 17.29779266 27.64477539 17.30027771 C24.9540561 17.29929788 22.26555651 17.28846532 19.57519531 17.26098633 C16.13151044 17.22690152 12.68931593 17.23292276 9.24555969 17.2516489 C5.95528659 17.2647748 2.66524091 17.24649958 -0.625 17.23046875 C-1.86048584 17.23542862 -3.09597168 17.24038849 -4.36889648 17.24549866 C-6.09088257 17.22174416 -6.09088257 17.22174416 -7.84765625 17.19750977 C-8.85707275 17.19131119 -9.86648926 17.18511261 -10.90649414 17.1787262 C-14.29209179 16.52268691 -15.48099474 15.37018212 -17.5625 12.6640625 C-18.23948856 8.52691018 -18.11647018 6.51279304 -15.8125 2.98291016 C-10.80522151 -0.58974092 -6.00774803 -0.05138017 0 0 Z " fill="#000000" transform="translate(418.5625,164.3359375)"/>
<path d="M0 0 C1.22404541 -0.00478363 2.44809082 -0.00956726 3.70922852 -0.01449585 C6.2947722 -0.01789528 8.88035884 -0.00869013 11.46582031 0.01220703 C15.42350096 0.03896784 19.37834508 0.01245625 23.3359375 -0.01953125 C25.84896459 -0.01622716 28.36198992 -0.00982097 30.875 0 C32.05843994 -0.01012115 33.24187988 -0.02024231 34.46118164 -0.03067017 C43.5882464 0.09955243 43.5882464 0.09955243 46.6875 3.01806641 C48.85151485 6.29005204 49.15934093 7.81424418 48.4375 11.6640625 C45.41579813 16.4326789 45.41579813 16.4326789 41.78149414 17.29225159 C40.26736938 17.29369423 40.26736938 17.29369423 38.72265625 17.29516602 C37.57466553 17.30769913 36.4266748 17.32023224 35.24389648 17.33314514 C34.00841064 17.31988693 32.7729248 17.30662872 31.5 17.29296875 C30.22777588 17.29538071 28.95555176 17.29779266 27.64477539 17.30027771 C24.9540561 17.29929788 22.26555651 17.28846532 19.57519531 17.26098633 C16.13151044 17.22690152 12.68931593 17.23292276 9.24555969 17.2516489 C5.95528659 17.2647748 2.66524091 17.24649958 -0.625 17.23046875 C-1.86048584 17.23542862 -3.09597168 17.24038849 -4.36889648 17.24549866 C-6.09088257 17.22174416 -6.09088257 17.22174416 -7.84765625 17.19750977 C-8.85707275 17.19131119 -9.86648926 17.18511261 -10.90649414 17.1787262 C-14.29209179 16.52268691 -15.48099474 15.37018212 -17.5625 12.6640625 C-18.23948856 8.52691018 -18.11647018 6.51279304 -15.8125 2.98291016 C-10.80522151 -0.58974092 -6.00774803 -0.05138017 0 0 Z " fill="#000000" transform="translate(57.5625,164.3359375)"/>
<path d="M0 0 C1.14799072 -0.01583633 2.29598145 -0.03167267 3.47875977 -0.04798889 C4.71424561 -0.04302902 5.94973145 -0.03806915 7.22265625 -0.03295898 C8.49488037 -0.03915756 9.76710449 -0.04535614 11.07788086 -0.05174255 C13.76829885 -0.05884811 16.45722299 -0.05759748 19.14746094 -0.04296875 C22.59129057 -0.025773 26.03345295 -0.04928543 29.47709656 -0.08445835 C32.76730326 -0.11172283 36.05736843 -0.1016969 39.34765625 -0.09545898 C40.58314209 -0.10871719 41.81862793 -0.1219754 43.09155273 -0.13563538 C44.23954346 -0.12310226 45.38753418 -0.11056915 46.5703125 -0.09765625 C47.579729 -0.09669449 48.58914551 -0.09573273 49.62915039 -0.09474182 C53.27727741 0.76810024 54.3162759 2.42631244 56.28515625 5.53344727 C57.00699718 9.38326558 56.6991711 10.90745773 54.53515625 14.17944336 C50.27586472 18.19034516 44.19916265 17.24434659 38.72265625 17.19750977 C37.49861084 17.2022934 36.27456543 17.20707703 35.01342773 17.21200562 C32.42788405 17.21540504 29.84229741 17.2061999 27.25683594 17.18530273 C23.29915529 17.15854192 19.34431117 17.18505351 15.38671875 17.21704102 C12.87369166 17.21373693 10.36066633 17.20733073 7.84765625 17.19750977 C6.66421631 17.20763092 5.48077637 17.21775208 4.26147461 17.22817993 C-3.90442963 17.11167092 -3.90442963 17.11167092 -7.96484375 14.21459961 C-10.26881393 10.68471672 -10.39183231 8.67059959 -9.71484375 4.53344727 C-6.76992196 0.70481863 -4.75671048 0.02920979 0 0 Z " fill="#000000" transform="translate(231.71484375,136.466552734375)"/>
<path d="M0 0 C1.51412476 -0.00144264 1.51412476 -0.00144264 3.05883789 -0.00291443 C4.20682861 -0.01544754 5.35481934 -0.02798065 6.53759766 -0.04089355 C8.39082642 -0.02100624 8.39082642 -0.02100624 10.28149414 -0.00071716 C12.18983032 -0.0043351 12.18983032 -0.0043351 14.13671875 -0.00802612 C16.82743804 -0.00704629 19.51593764 0.00378626 22.20629883 0.03126526 C25.6499837 0.06535007 29.09217821 0.05932883 32.53593445 0.04060268 C35.82620755 0.02747679 39.11625323 0.045752 42.40649414 0.06178284 C43.64197998 0.05682297 44.87746582 0.0518631 46.15039062 0.04675293 C47.29838135 0.06258926 48.44637207 0.0784256 49.62915039 0.09474182 C50.63856689 0.1009404 51.6479834 0.10713898 52.68798828 0.11352539 C56.07358593 0.76956468 57.26248888 1.92206947 59.34399414 4.62818909 C60.0209827 8.76534141 59.89796432 10.77945854 57.59399414 14.30934143 C52.58671565 17.88199251 47.78924217 17.34363176 41.78149414 17.29225159 C40.55744873 17.29703522 39.33340332 17.30181885 38.07226562 17.30674744 C35.48672194 17.31014687 32.9011353 17.30094172 30.31567383 17.28004456 C26.35799319 17.25328374 22.40314906 17.27979533 18.44555664 17.31178284 C15.93252955 17.30847875 13.41950422 17.30207256 10.90649414 17.29225159 C9.7230542 17.30237274 8.53961426 17.3124939 7.3203125 17.32292175 C-1.80675226 17.19269915 -1.80675226 17.19269915 -4.90600586 14.27418518 C-7.07002071 11.00219955 -7.37784679 9.4780074 -6.65600586 5.62818909 C-3.63430399 0.85957269 -3.63430399 0.85957269 0 0 Z " fill="#000000" transform="translate(409.656005859375,103.37181091308594)"/>
<path d="M0 0 C1.14799072 -0.01253311 2.29598145 -0.02506622 3.47875977 -0.03797913 C5.33198853 -0.01809181 5.33198853 -0.01809181 7.22265625 0.00219727 C9.13099243 -0.00142067 9.13099243 -0.00142067 11.07788086 -0.00511169 C13.76860015 -0.00413186 16.45709974 0.00670069 19.14746094 0.03417969 C22.59114581 0.0682645 26.03334032 0.06224326 29.47709656 0.04351711 C32.76736966 0.03039122 36.05741534 0.04866643 39.34765625 0.06469727 C40.58314209 0.0597374 41.81862793 0.05477753 43.09155273 0.04966736 C44.23954346 0.06550369 45.38753418 0.08134003 46.5703125 0.09765625 C47.579729 0.10385483 48.58914551 0.11005341 49.62915039 0.11643982 C53.01474804 0.77247911 54.20365099 1.9249839 56.28515625 4.63110352 C56.96366146 8.77752426 56.84079871 10.78502557 54.52148438 14.31665039 C49.5647902 17.86141961 44.89028543 17.3088207 38.94140625 17.22485352 C37.73955688 17.2248938 36.53770752 17.22493408 35.29943848 17.22497559 C32.76093307 17.21961922 30.22242816 17.20203188 27.68408203 17.1730957 C23.79928894 17.13125573 19.91623033 17.13202688 16.03125 17.13891602 C13.56379004 17.128423 11.09633901 17.11548431 8.62890625 17.09985352 C7.46734009 17.0996521 6.30577393 17.09945068 5.10900879 17.09924316 C4.02438354 17.0833313 2.9397583 17.06741943 1.82226562 17.05102539 C0.87138062 17.0426062 -0.07950439 17.03418701 -1.0592041 17.0255127 C-4.22568152 16.55523513 -6.13200737 15.49415402 -8.71484375 13.63110352 C-10.14146594 10.77785914 -10.02518243 8.79655803 -9.71484375 5.63110352 C-6.92877739 1.173382 -5.23774478 0.00499047 0 0 Z " fill="#000000" transform="translate(51.71484375,103.368896484375)"/>
<path d="M0 0 C1.12796997 -0.00938095 2.25593994 -0.0187619 3.41809082 -0.02842712 C4.63170288 -0.01719315 5.84531494 -0.00595917 7.09570312 0.00561523 C8.3457312 0.00416 9.59575928 0.00270477 10.88366699 0.00120544 C13.52700757 0.00286573 16.1689099 0.01235586 18.81201172 0.03515625 C22.19496804 0.06354171 25.57702174 0.06080253 28.96004486 0.04806614 C32.19282224 0.03942757 35.42545398 0.05455907 38.65820312 0.06811523 C40.47862122 0.06371178 40.47862122 0.06371178 42.33581543 0.05921936 C43.4637854 0.07190353 44.59175537 0.08458771 45.75390625 0.09765625 C46.74555786 0.10305923 47.73720947 0.10846222 48.75891113 0.11402893 C51.82238488 0.56766859 53.18432227 1.3366526 55.37695312 3.50170898 C56.48068691 7.4751506 56.79238895 9.5917067 55.06445312 13.37670898 C53.37695312 15.50170898 53.37695312 15.50170898 51.37695312 16.50170898 C49.6166887 16.61275814 47.85229701 16.66090948 46.08862305 16.67871094 C44.98375046 16.69154617 43.87887787 16.70438141 42.74052429 16.71760559 C41.54160049 16.72499252 40.3426767 16.73237946 39.10742188 16.73999023 C37.2649865 16.75209785 37.2649865 16.75209785 35.3853302 16.76445007 C32.78188493 16.77830033 30.17842143 16.78901825 27.57495117 16.796875 C23.59135592 16.81010389 19.60837033 16.85797415 15.625 16.90209961 C13.09831341 16.91222571 10.57161975 16.92074207 8.04492188 16.92749023 C6.25564522 16.95375237 6.25564522 16.95375237 4.43022156 16.98054504 C-3.84120643 16.95882918 -3.84120643 16.95882918 -7.87548828 14.60009766 C-9.76094592 12.3361261 -10.28216028 11.41147732 -10.18554688 8.50170898 C-10.18683594 7.84170898 -10.188125 7.18170898 -10.18945312 6.50170898 C-8.70166013 1.24826062 -5.03121292 0.00084307 0 0 Z " fill="#000000" transform="translate(229.623046875,166.498291015625)"/>
<path d="M0 0 C1.22404541 -0.00478363 2.44809082 -0.00956726 3.70922852 -0.01449585 C6.2947722 -0.01789528 8.88035884 -0.00869013 11.46582031 0.01220703 C15.42350096 0.03896784 19.37834508 0.01245625 23.3359375 -0.01953125 C25.84896459 -0.01622716 28.36198992 -0.00982097 30.875 0 C32.05843994 -0.01012115 33.24187988 -0.02024231 34.46118164 -0.03067017 C43.5882464 0.09955243 43.5882464 0.09955243 46.6875 3.01806641 C48.85151485 6.29005204 49.15934093 7.81424418 48.4375 11.6640625 C47.19506836 14.31005859 47.19506836 14.31005859 44.4375 16.6640625 C40.22047792 17.44557006 36.03215676 17.36389677 31.75390625 17.328125 C30.50624985 17.33290863 29.25859344 17.33769226 27.97312927 17.34262085 C25.33366225 17.34602458 22.69650933 17.3393127 20.05737305 17.31591797 C16.68307387 17.28745659 13.31076547 17.30381621 9.93653965 17.33378029 C6.70892499 17.35625004 3.48154696 17.34049059 0.25390625 17.328125 C-0.95454453 17.33824615 -2.1629953 17.34836731 -3.4080658 17.35879517 C-12.72858158 17.22855353 -12.72858158 17.22855353 -15.82446289 14.31005859 C-17.5625 11.6640625 -17.5625 11.6640625 -18.1875 8.6640625 C-17.54400013 5.5752631 -16.72804859 3.88497284 -14.42773438 1.71612549 C-10.13269046 -0.70644231 -4.78994887 -0.04096517 0 0 Z " fill="#000000" transform="translate(59.5625,134.3359375)"/>
<path d="M0 0 C1.22404541 -0.00478363 2.44809082 -0.00956726 3.70922852 -0.01449585 C6.2947722 -0.01789528 8.88035884 -0.00869013 11.46582031 0.01220703 C15.42350096 0.03896784 19.37834508 0.01245625 23.3359375 -0.01953125 C25.84896459 -0.01622716 28.36198992 -0.00982097 30.875 0 C32.05843994 -0.01012115 33.24187988 -0.02024231 34.46118164 -0.03067017 C43.58816996 0.09955134 43.58816996 0.09955134 46.68359375 3.01806641 C48.4375 5.6640625 48.4375 5.6640625 49.0625 8.6640625 C48.41900013 11.7528619 47.60304859 13.44315216 45.30273438 15.61199951 C41.00769046 18.03456731 35.66494887 17.36909017 30.875 17.328125 C29.65095459 17.33290863 28.42690918 17.33769226 27.16577148 17.34262085 C24.5802278 17.34602028 21.99464116 17.33681513 19.40917969 17.31591797 C15.45149904 17.28915716 11.49665492 17.31566875 7.5390625 17.34765625 C5.02603541 17.34435216 2.51301008 17.33794597 0 17.328125 C-1.18343994 17.33824615 -2.36687988 17.34836731 -3.58618164 17.35879517 C-12.71316996 17.22857366 -12.71316996 17.22857366 -15.80859375 14.31005859 C-17.5625 11.6640625 -17.5625 11.6640625 -18.1875 8.6640625 C-17.54400013 5.5752631 -16.72804859 3.88497284 -14.42773438 1.71612549 C-10.13269046 -0.70644231 -4.78994887 -0.04096517 0 0 Z " fill="#000000" transform="translate(420.5625,134.3359375)"/>
<path d="M0 0 C1.49080078 -0.0309375 1.49080078 -0.0309375 3.01171875 -0.0625 C12.22462116 -0.11183281 12.22462116 -0.11183281 16.125 3.25 C17.67086876 6.34173752 17.41859521 8.84429552 17.125 12.25 C15.25791495 14.61497439 13.80438569 15.91030715 11.125 17.25 C7.52678538 17.51752525 3.9195459 17.48158496 0.3125 17.5 C-0.68587891 17.520625 -1.68425781 17.54125 -2.71289062 17.5625 C-11.98269618 17.61190603 -11.98269618 17.61190603 -15.875 14.25 C-17.40346661 11.19306678 -17.10742445 8.62015453 -16.875 5.25 C-13.25698123 -1.29689111 -6.60231568 0.03398876 0 0 Z " fill="#000000" transform="translate(233.875,66.75)"/>
<path d="M0 0 C1.71316406 -0.00773437 1.71316406 -0.00773437 3.4609375 -0.015625 C4.64945313 -0.00015625 5.83796875 0.0153125 7.0625 0.03125 C8.25101563 0.01578125 9.43953125 0.0003125 10.6640625 -0.015625 C11.80617188 -0.01046875 12.94828125 -0.0053125 14.125 0 C15.16785156 0.00451172 16.21070313 0.00902344 17.28515625 0.01367188 C20.73904117 0.65732835 21.9012923 1.81723338 24.0625 4.53125 C25 6.96875 25 6.96875 25.0625 9.53125 C23.44094371 13.01759601 22.29796708 14.37427194 19.0625 16.53125 C15.1203318 17.02138484 11.15686806 16.94776039 7.1875 16.96875 C5.55361328 17.01805664 5.55361328 17.01805664 3.88671875 17.06835938 C-4.11117058 17.12220074 -4.11117058 17.12220074 -8.16015625 14.2265625 C-10.49246377 10.68965658 -10.61784778 8.6889309 -9.9375 4.53125 C-6.95042925 0.61510208 -4.84036154 0.020941 0 0 Z " fill="#000000" transform="translate(46.9375,65.46875)"/>
<path d="M0 0 C1.71316406 -0.00773437 1.71316406 -0.00773437 3.4609375 -0.015625 C4.64945312 -0.00015625 5.83796875 0.0153125 7.0625 0.03125 C8.25101562 0.01578125 9.43953125 0.0003125 10.6640625 -0.015625 C11.80617188 -0.01046875 12.94828125 -0.0053125 14.125 0 C15.16785156 0.00451172 16.21070313 0.00902344 17.28515625 0.01367188 C20.72877056 0.65541434 21.90950057 1.82523575 24.0625 4.53125 C24.62890625 6.53125 24.62890625 6.53125 24.625 8.53125 C24.64691406 9.19125 24.66882813 9.85125 24.69140625 10.53125 C23.61835634 13.94368201 22.194483 14.79210513 19.0625 16.53125 C15.05384945 17.14504735 11.11113377 17.13481609 7.0625 17.09375 C5.98226563 17.11759766 4.90203125 17.14144531 3.7890625 17.16601562 C-4.0752935 17.151452 -4.0752935 17.151452 -8.15234375 14.21875 C-10.49786266 10.68764057 -10.61809867 8.6904641 -9.9375 4.53125 C-6.95042925 0.61510208 -4.84036154 0.020941 0 0 Z " fill="#000000" transform="translate(407.9375,65.46875)"/>
</svg>
