<?xml version="1.0" encoding="UTF-8"?>
<svg version="1.1" xmlns="http://www.w3.org/2000/svg" width="512" height="512">
<path d="M0 0 C2.27229691 -0.37604749 2.27229691 -0.37604749 5.17559814 -0.37752342 C6.27909985 -0.38534666 7.38260155 -0.39316991 8.51954269 -0.40123022 C10.3530673 -0.39119197 10.3530673 -0.39119197 12.22363281 -0.38095093 C13.51433308 -0.3856309 14.80503334 -0.39031087 16.13484573 -0.39513266 C19.72944192 -0.40771066 23.32380062 -0.40144168 26.9183979 -0.39217401 C30.79030124 -0.3854115 34.66216252 -0.39585078 38.53405762 -0.40411377 C46.12383346 -0.41748334 53.71352052 -0.41455907 61.3032999 -0.40587585 C67.46933791 -0.39911235 73.63535096 -0.39817678 79.8013916 -0.4014473 C80.67755733 -0.401907 81.55372305 -0.40236669 82.45643926 -0.40284032 C84.23611673 -0.40379946 86.01579421 -0.4047721 87.79547167 -0.4057581 C104.50016838 -0.41432143 121.20481578 -0.40446309 137.90950441 -0.388357 C152.25610057 -0.37495296 166.60262391 -0.37728079 180.94921875 -0.39111328 C197.59240799 -0.40715246 214.23555396 -0.41349737 230.87874985 -0.40427649 C232.65203602 -0.4033208 234.42532221 -0.40237769 236.1986084 -0.4014473 C237.50748957 -0.40075306 237.50748957 -0.40075306 238.84281278 -0.40004479 C245.00447198 -0.39744991 251.16610383 -0.40183661 257.32775879 -0.40888596 C264.83243343 -0.41728273 272.33701388 -0.41505939 279.84167767 -0.39904372 C283.67379633 -0.39113631 287.50575772 -0.38811113 291.33787537 -0.39799118 C295.48417742 -0.40851993 299.63007921 -0.39598502 303.77636719 -0.38095093 C304.99871693 -0.38764309 306.22106667 -0.39433526 307.48045731 -0.40123022 C309.13570986 -0.38949535 309.13570986 -0.38949535 310.82440186 -0.37752342 C311.78249126 -0.37703637 312.74058067 -0.37654931 313.72770309 -0.37604749 C314.47756107 -0.25195182 315.22741905 -0.12785615 316 0 C318.45517512 3.68276269 318.24259705 5.46633387 318.22705078 9.8581543 C318.22734283 10.55109589 318.22763489 11.24403748 318.22793579 11.95797729 C318.22654319 14.24685212 318.21098557 16.53540084 318.1953125 18.82421875 C318.19158211 20.41176679 318.18873526 21.99931712 318.18673706 23.58686829 C318.1791026 27.76427574 318.15945575 31.94154401 318.1373291 36.11889648 C318.11686663 40.38197955 318.10773449 44.6450851 318.09765625 48.90820312 C318.07620965 57.27219927 318.042076 65.63608232 318 74 C319.96005981 73.96072388 319.96005981 73.96072388 321.9597168 73.9206543 C326.81435988 73.83005676 331.66892845 73.77271555 336.52416992 73.7253418 C338.6242327 73.70021949 340.72420823 73.66611542 342.82397461 73.62280273 C345.8451084 73.56205129 348.86508496 73.53376737 351.88671875 73.51171875 C353.29167854 73.47300911 353.29167854 73.47300911 354.72502136 73.43351746 C355.60555679 73.4331398 356.48609222 73.43276215 357.39331055 73.43237305 C358.16386276 73.42126999 358.93441498 73.41016693 359.72831726 73.39872742 C363.27562494 74.33763443 364.77429803 76.14365023 367 79 C367.60127258 82.14485168 367.60127258 82.14485168 367.56762695 85.71801758 C367.56835709 86.37223694 367.56908722 87.0264563 367.56983948 87.70050049 C367.56637338 89.849373 367.52756664 91.99604056 367.48828125 94.14453125 C367.47894945 95.63952958 367.47183507 97.13454326 367.46684265 98.62956238 C367.44780118 102.55413429 367.39872681 106.47777298 367.34332275 110.40197754 C367.2920676 114.41043474 367.26931536 118.41904355 367.24414062 122.42773438 C367.19060369 130.28558332 367.10532735 138.14267539 367 146 C367.60255615 146.05333496 368.2051123 146.10666992 368.82592773 146.16162109 C369.62458252 146.23977051 370.4232373 146.31791992 371.24609375 146.3984375 C372.0342749 146.47239746 372.82245605 146.54635742 373.63452148 146.62255859 C381.85748342 147.93463406 388.90435956 153.86334774 393.765625 160.359375 C399.73696395 169.6932155 400.29691068 178.60827004 400.26742554 189.49786377 C400.27195665 190.7336976 400.27648776 191.96953144 400.28115618 193.24281478 C400.2915853 196.65212985 400.29313311 200.06123305 400.29076743 203.47054887 C400.29035769 207.15576053 400.30141336 210.84094124 400.31088257 214.52613831 C400.32745937 221.73828612 400.33299061 228.95040123 400.33410732 236.16256651 C400.33505936 242.02799654 400.33917738 247.89341584 400.34550858 253.75884247 C400.36311176 270.40709207 400.37234887 287.05531595 400.37084763 303.70357493 C400.37076772 304.60013055 400.3706878 305.49668618 400.37060547 306.42041016 C400.37052371 307.31806688 400.37044195 308.21572361 400.37035771 309.14058205 C400.36954502 323.68418985 400.38868071 338.22769402 400.4168822 352.77127185 C400.44564485 367.722821 400.45942064 382.67431967 400.45769465 397.62589717 C400.45703193 406.01271999 400.46247254 414.39943417 400.48405075 422.78623199 C400.50230709 429.9273854 400.50657346 437.06838091 400.4930319 444.20954761 C400.48652466 447.84871008 400.48630301 451.48757002 400.5037384 455.12670326 C400.52249585 459.08267418 400.5098561 463.03820892 400.49447632 466.99420166 C400.50476344 468.12915298 400.51505057 469.26410429 400.52564943 470.43344808 C400.42806371 481.84762407 397.89509612 492.10380762 390.28125 500.83984375 C382.93336455 507.79768733 374.53942541 511.31790061 364.44923782 511.25726891 C363.70580305 511.26077498 362.96236827 511.26428105 362.19640517 511.26789337 C359.70339218 511.27720278 357.21061302 511.27228526 354.71759033 511.26742554 C352.91287443 511.27116203 351.10816015 511.27576355 349.30344844 511.28115618 C344.34240281 511.29340175 339.38142454 511.29312388 334.42036724 511.29076743 C329.0705276 511.29035966 323.72070968 511.30139466 318.37088013 511.31088257 C307.88870306 511.32750219 297.40654849 511.33299255 286.92435935 511.33410732 C278.40437057 511.33505736 269.88438921 511.33916545 261.36440277 511.34550858 C237.21266708 511.36312378 213.06094918 511.37234703 188.90920702 511.37084763 C187.60692261 511.37076772 186.3046382 511.3706878 184.96289062 511.37060547 C183.65901747 511.37052371 182.35514431 511.37044195 181.01175985 511.37035771 C159.87979134 511.36954478 138.7478941 511.38868352 117.6159462 511.4168822 C95.92172481 511.44560292 74.22753819 511.45942294 52.5332973 511.45769465 C40.35207533 511.45703046 28.17092807 511.46253556 15.98972321 511.48405075 C5.61830431 511.50225185 -4.75300602 511.50661866 -15.12443396 511.4930319 C-20.41578679 511.48649684 -25.70693124 511.48640465 -30.99826431 511.5037384 C-35.84431669 511.51945015 -40.68999516 511.51662475 -45.53603831 511.49917014 C-47.28703638 511.49609608 -49.03806222 511.49974793 -50.78902754 511.51089029 C-64.33115814 511.59134336 -73.70799362 510.02024236 -83.80078125 500.37109375 C-91.28026561 492.30706709 -93.30198319 484.46443725 -93.26742554 473.66497803 C-93.27195665 472.62560128 -93.27648776 471.58622454 -93.28115618 470.51535153 C-93.29381423 467.03330111 -93.29217888 463.55140682 -93.29052734 460.06933594 C-93.29651173 457.57239073 -93.30331707 455.07544738 -93.31088257 452.57850647 C-93.32672334 446.49993204 -93.3329914 440.42141897 -93.33410732 434.34282961 C-93.33505865 429.39978415 -93.33917318 424.45675145 -93.34550858 419.51371002 C-93.3631173 405.48873932 -93.37234813 391.46379919 -93.37084763 377.43881735 C-93.37076772 376.68315313 -93.3706878 375.92748892 -93.37060547 375.14892578 C-93.37052371 374.39233513 -93.37044195 373.63574447 -93.37035771 372.85622683 C-93.36954512 360.59954366 -93.38867692 348.34298348 -93.4168822 336.08633587 C-93.4456374 323.49097065 -93.45942102 310.89566536 -93.45769465 298.3002665 C-93.45703161 291.23308127 -93.46248582 284.16602493 -93.48405075 277.09886932 C-93.50420852 270.45040928 -93.50356191 263.80217449 -93.48901749 257.15368462 C-93.48692742 254.71646413 -93.49164198 252.27922666 -93.5037384 249.84203529 C-93.51920825 246.50869055 -93.50987017 243.1762816 -93.49447632 239.84295654 C-93.50476344 238.88398586 -93.51505057 237.92501518 -93.52564943 236.93698478 C-93.41768847 226.32028006 -89.63572011 218.79785092 -82.37109375 211.19921875 C-75.20110355 204.54896425 -67.96671657 201.62704978 -58.125 201.875 C-57.43664063 201.88402344 -56.74828125 201.89304688 -56.0390625 201.90234375 C-54.35922162 201.92567487 -52.67956254 201.96153674 -51 202 C-51.00691345 201.05604984 -51.00691345 201.05604984 -51.01396656 200.09302998 C-51.1244079 184.77788535 -51.20713783 169.46287931 -51.25906086 154.14743519 C-51.28483818 146.74096688 -51.31997918 139.33476445 -51.37719727 131.9284668 C-51.4270473 125.47280804 -51.45929446 119.01734184 -51.47044247 112.56149596 C-51.47695873 109.14333775 -51.49226241 105.72573038 -51.52865028 102.30774879 C-51.5648578 98.49104547 -51.56994848 94.67548954 -51.56762695 90.85864258 C-51.58560333 89.72647812 -51.60357971 88.59431366 -51.62210083 87.42784119 C-51.57187989 79.81567118 -51.57187989 79.81567118 -48.75244141 75.79431152 C-45.93903144 73.96025471 -44.69285131 73.38482923 -41.39331055 73.43237305 C-40.51277512 73.4327507 -39.63223969 73.43312836 -38.72502136 73.43351746 C-37.7883815 73.45932388 -36.85174164 73.48513031 -35.88671875 73.51171875 C-34.43239189 73.52233086 -34.43239189 73.52233086 -32.94868469 73.53315735 C-29.86082863 73.56108126 -26.77480525 73.62381697 -23.6875 73.6875 C-21.59052103 73.71258542 -19.49351356 73.73539816 -17.39648438 73.75585938 C-12.26361991 73.81090162 -7.13212036 73.89716141 -2 74 C-2.00444122 73.11716843 -2.00888245 72.23433685 -2.01345825 71.32475281 C-2.05350708 63.01107754 -2.0839702 54.69743461 -2.10362434 46.38368511 C-2.11406835 42.10934527 -2.12823877 37.83508504 -2.15087891 33.56079102 C-2.17258534 29.43703744 -2.18456398 25.31336051 -2.18975449 21.18955421 C-2.1934542 19.61505743 -2.2006787 18.04056491 -2.21146011 16.46610069 C-2.22594594 14.26335916 -2.22797918 12.06093568 -2.22705078 9.8581543 C-2.231492 8.60350876 -2.23593323 7.34886322 -2.24050903 6.05619812 C-2 3 -2 3 0 0 Z " fill="#F6D25F" transform="translate(103,0)"/>
<path d="M0 0 C2.27229691 -0.37604749 2.27229691 -0.37604749 5.17559814 -0.37752342 C6.27909985 -0.38534666 7.38260155 -0.39316991 8.51954269 -0.40123022 C10.3530673 -0.39119197 10.3530673 -0.39119197 12.22363281 -0.38095093 C13.51433308 -0.3856309 14.80503334 -0.39031087 16.13484573 -0.39513266 C19.72944192 -0.40771066 23.32380062 -0.40144168 26.9183979 -0.39217401 C30.79030124 -0.3854115 34.66216252 -0.39585078 38.53405762 -0.40411377 C46.12383346 -0.41748334 53.71352052 -0.41455907 61.3032999 -0.40587585 C67.46933791 -0.39911235 73.63535096 -0.39817678 79.8013916 -0.4014473 C80.67755733 -0.401907 81.55372305 -0.40236669 82.45643926 -0.40284032 C84.23611673 -0.40379946 86.01579421 -0.4047721 87.79547167 -0.4057581 C104.50016838 -0.41432143 121.20481578 -0.40446309 137.90950441 -0.388357 C152.25610057 -0.37495296 166.60262391 -0.37728079 180.94921875 -0.39111328 C197.59240799 -0.40715246 214.23555396 -0.41349737 230.87874985 -0.40427649 C232.65203602 -0.4033208 234.42532221 -0.40237769 236.1986084 -0.4014473 C237.50748957 -0.40075306 237.50748957 -0.40075306 238.84281278 -0.40004479 C245.00447198 -0.39744991 251.16610383 -0.40183661 257.32775879 -0.40888596 C264.83243343 -0.41728273 272.33701388 -0.41505939 279.84167767 -0.39904372 C283.67379633 -0.39113631 287.50575772 -0.38811113 291.33787537 -0.39799118 C295.48417742 -0.40851993 299.63007921 -0.39598502 303.77636719 -0.38095093 C304.99871693 -0.38764309 306.22106667 -0.39433526 307.48045731 -0.40123022 C309.13570986 -0.38949535 309.13570986 -0.38949535 310.82440186 -0.37752342 C311.78249126 -0.37703637 312.74058067 -0.37654931 313.72770309 -0.37604749 C314.47756107 -0.25195182 315.22741905 -0.12785615 316 0 C318.45517512 3.68276269 318.24259705 5.46633387 318.22705078 9.8581543 C318.22734283 10.55109589 318.22763489 11.24403748 318.22793579 11.95797729 C318.22654319 14.24685212 318.21098557 16.53540084 318.1953125 18.82421875 C318.19158211 20.41176679 318.18873526 21.99931712 318.18673706 23.58686829 C318.1791026 27.76427574 318.15945575 31.94154401 318.1373291 36.11889648 C318.11686663 40.38197955 318.10773449 44.6450851 318.09765625 48.90820312 C318.07620965 57.27219927 318.042076 65.63608232 318 74 C319.96005981 73.96072388 319.96005981 73.96072388 321.9597168 73.9206543 C326.81435988 73.83005676 331.66892845 73.77271555 336.52416992 73.7253418 C338.6242327 73.70021949 340.72420823 73.66611542 342.82397461 73.62280273 C345.8451084 73.56205129 348.86508496 73.53376737 351.88671875 73.51171875 C353.29167854 73.47300911 353.29167854 73.47300911 354.72502136 73.43351746 C355.60555679 73.4331398 356.48609222 73.43276215 357.39331055 73.43237305 C358.16386276 73.42126999 358.93441498 73.41016693 359.72831726 73.39872742 C363.27562494 74.33763443 364.77429803 76.14365023 367 79 C367.60127258 82.14485168 367.60127258 82.14485168 367.56762695 85.71801758 C367.56835709 86.37223694 367.56908722 87.0264563 367.56983948 87.70050049 C367.56637338 89.849373 367.52756664 91.99604056 367.48828125 94.14453125 C367.47894945 95.63952958 367.47183507 97.13454326 367.46684265 98.62956238 C367.44780118 102.55413429 367.39872681 106.47777298 367.34332275 110.40197754 C367.2920676 114.41043474 367.26931536 118.41904355 367.24414062 122.42773438 C367.19060369 130.28558332 367.10532735 138.14267539 367 146 C367.60255615 146.05333496 368.2051123 146.10666992 368.82592773 146.16162109 C369.62458252 146.23977051 370.4232373 146.31791992 371.24609375 146.3984375 C372.0342749 146.47239746 372.82245605 146.54635742 373.63452148 146.62255859 C381.85748342 147.93463406 388.90435956 153.86334774 393.765625 160.359375 C399.73696395 169.6932155 400.29691068 178.60827004 400.26742554 189.49786377 C400.27195665 190.7336976 400.27648776 191.96953144 400.28115618 193.24281478 C400.2915853 196.65212985 400.29313311 200.06123305 400.29076743 203.47054887 C400.29035769 207.15576053 400.30141336 210.84094124 400.31088257 214.52613831 C400.32745937 221.73828612 400.33299061 228.95040123 400.33410732 236.16256651 C400.33505936 242.02799654 400.33917738 247.89341584 400.34550858 253.75884247 C400.36311176 270.40709207 400.37234887 287.05531595 400.37084763 303.70357493 C400.37076772 304.60013055 400.3706878 305.49668618 400.37060547 306.42041016 C400.37052371 307.31806688 400.37044195 308.21572361 400.37035771 309.14058205 C400.36954502 323.68418985 400.38868071 338.22769402 400.4168822 352.77127185 C400.44564485 367.722821 400.45942064 382.67431967 400.45769465 397.62589717 C400.45703193 406.01271999 400.46247254 414.39943417 400.48405075 422.78623199 C400.50230709 429.9273854 400.50657346 437.06838091 400.4930319 444.20954761 C400.48652466 447.84871008 400.48630301 451.48757002 400.5037384 455.12670326 C400.52249585 459.08267418 400.5098561 463.03820892 400.49447632 466.99420166 C400.50476344 468.12915298 400.51505057 469.26410429 400.52564943 470.43344808 C400.42806371 481.84762407 397.89509612 492.10380762 390.28125 500.83984375 C382.93336455 507.79768733 374.53942541 511.31790061 364.44923782 511.25726891 C363.70580305 511.26077498 362.96236827 511.26428105 362.19640517 511.26789337 C359.70339218 511.27720278 357.21061302 511.27228526 354.71759033 511.26742554 C352.91287443 511.27116203 351.10816015 511.27576355 349.30344844 511.28115618 C344.34240281 511.29340175 339.38142454 511.29312388 334.42036724 511.29076743 C329.0705276 511.29035966 323.72070968 511.30139466 318.37088013 511.31088257 C307.88870306 511.32750219 297.40654849 511.33299255 286.92435935 511.33410732 C278.40437057 511.33505736 269.88438921 511.33916545 261.36440277 511.34550858 C237.21266708 511.36312378 213.06094918 511.37234703 188.90920702 511.37084763 C187.60692261 511.37076772 186.3046382 511.3706878 184.96289062 511.37060547 C183.65901747 511.37052371 182.35514431 511.37044195 181.01175985 511.37035771 C159.87979134 511.36954478 138.7478941 511.38868352 117.6159462 511.4168822 C95.92172481 511.44560292 74.22753819 511.45942294 52.5332973 511.45769465 C40.35207533 511.45703046 28.17092807 511.46253556 15.98972321 511.48405075 C5.61830431 511.50225185 -4.75300602 511.50661866 -15.12443396 511.4930319 C-20.41578679 511.48649684 -25.70693124 511.48640465 -30.99826431 511.5037384 C-35.84431669 511.51945015 -40.68999516 511.51662475 -45.53603831 511.49917014 C-47.28703638 511.49609608 -49.03806222 511.49974793 -50.78902754 511.51089029 C-64.33115814 511.59134336 -73.70799362 510.02024236 -83.80078125 500.37109375 C-91.28026561 492.30706709 -93.30198319 484.46443725 -93.26742554 473.66497803 C-93.27195665 472.62560128 -93.27648776 471.58622454 -93.28115618 470.51535153 C-93.29381423 467.03330111 -93.29217888 463.55140682 -93.29052734 460.06933594 C-93.29651173 457.57239073 -93.30331707 455.07544738 -93.31088257 452.57850647 C-93.32672334 446.49993204 -93.3329914 440.42141897 -93.33410732 434.34282961 C-93.33505865 429.39978415 -93.33917318 424.45675145 -93.34550858 419.51371002 C-93.3631173 405.48873932 -93.37234813 391.46379919 -93.37084763 377.43881735 C-93.37076772 376.68315313 -93.3706878 375.92748892 -93.37060547 375.14892578 C-93.37052371 374.39233513 -93.37044195 373.63574447 -93.37035771 372.85622683 C-93.36954512 360.59954366 -93.38867692 348.34298348 -93.4168822 336.08633587 C-93.4456374 323.49097065 -93.45942102 310.89566536 -93.45769465 298.3002665 C-93.45703161 291.23308127 -93.46248582 284.16602493 -93.48405075 277.09886932 C-93.50420852 270.45040928 -93.50356191 263.80217449 -93.48901749 257.15368462 C-93.48692742 254.71646413 -93.49164198 252.27922666 -93.5037384 249.84203529 C-93.51920825 246.50869055 -93.50987017 243.1762816 -93.49447632 239.84295654 C-93.50476344 238.88398586 -93.51505057 237.92501518 -93.52564943 236.93698478 C-93.41768847 226.32028006 -89.63572011 218.79785092 -82.37109375 211.19921875 C-75.20110355 204.54896425 -67.96671657 201.62704978 -58.125 201.875 C-57.43664063 201.88402344 -56.74828125 201.89304688 -56.0390625 201.90234375 C-54.35922162 201.92567487 -52.67956254 201.96153674 -51 202 C-51.00691345 201.05604984 -51.00691345 201.05604984 -51.01396656 200.09302998 C-51.1244079 184.77788535 -51.20713783 169.46287931 -51.25906086 154.14743519 C-51.28483818 146.74096688 -51.31997918 139.33476445 -51.37719727 131.9284668 C-51.4270473 125.47280804 -51.45929446 119.01734184 -51.47044247 112.56149596 C-51.47695873 109.14333775 -51.49226241 105.72573038 -51.52865028 102.30774879 C-51.5648578 98.49104547 -51.56994848 94.67548954 -51.56762695 90.85864258 C-51.58560333 89.72647812 -51.60357971 88.59431366 -51.62210083 87.42784119 C-51.57187989 79.81567118 -51.57187989 79.81567118 -48.75244141 75.79431152 C-45.93903144 73.96025471 -44.69285131 73.38482923 -41.39331055 73.43237305 C-40.51277512 73.4327507 -39.63223969 73.43312836 -38.72502136 73.43351746 C-37.7883815 73.45932388 -36.85174164 73.48513031 -35.88671875 73.51171875 C-34.43239189 73.52233086 -34.43239189 73.52233086 -32.94868469 73.53315735 C-29.86082863 73.56108126 -26.77480525 73.62381697 -23.6875 73.6875 C-21.59052103 73.71258542 -19.49351356 73.73539816 -17.39648438 73.75585938 C-12.26361991 73.81090162 -7.13212036 73.89716141 -2 74 C-2.00444122 73.11716843 -2.00888245 72.23433685 -2.01345825 71.32475281 C-2.05350708 63.01107754 -2.0839702 54.69743461 -2.10362434 46.38368511 C-2.11406835 42.10934527 -2.12823877 37.83508504 -2.15087891 33.56079102 C-2.17258534 29.43703744 -2.18456398 25.31336051 -2.18975449 21.18955421 C-2.1934542 19.61505743 -2.2006787 18.04056491 -2.21146011 16.46610069 C-2.22594594 14.26335916 -2.22797918 12.06093568 -2.22705078 9.8581543 C-2.231492 8.60350876 -2.23593323 7.34886322 -2.24050903 6.05619812 C-2 3 -2 3 0 0 Z M-35 90 C-35 126.96 -35 163.92 -35 202 C-31.7 202.33 -28.4 202.66 -25 203 C-22.375 204.6875 -22.375 204.6875 -21 207 C-20.56421435 210.05049956 -20.38533864 211.98745915 -22.00927734 214.66259766 C-25.18358193 216.79515107 -28.5954175 216.37953663 -32.2890625 216.3359375 C-33.97005587 216.34846045 -35.65104546 216.36149803 -37.33203125 216.375 C-39.97165551 216.37891273 -42.61090088 216.37507866 -45.25048828 216.36035156 C-60.5655235 216.15624855 -60.5655235 216.15624855 -73.15625 224.1328125 C-73.5996875 224.79023438 -74.043125 225.44765625 -74.5 226.125 C-74.9640625 226.78757813 -75.428125 227.45015625 -75.90625 228.1328125 C-77.6988709 231.19307247 -78.1261477 233.73113032 -78.13701439 237.20149422 C-78.14208893 238.06231578 -78.14716347 238.92313734 -78.15239179 239.81004441 C-78.15288955 240.75623103 -78.15338731 241.70241766 -78.15390015 242.67727661 C-78.1582824 243.68212723 -78.16266465 244.68697784 -78.1671797 245.72227848 C-78.18058487 249.10538152 -78.18675045 252.48845851 -78.19287109 255.87158203 C-78.20077074 258.29088967 -78.2090396 260.71019613 -78.21765137 263.12950134 C-78.24162284 270.40161738 -78.25680219 277.67373518 -78.26971143 284.9458769 C-78.27342404 287.00036447 -78.27739722 289.05485138 -78.2814641 291.10933828 C-78.30670287 303.8710478 -78.32875313 316.63275841 -78.34119225 329.39448738 C-78.34412188 332.35023121 -78.34708355 335.305975 -78.35009766 338.26171875 C-78.35084371 338.9963433 -78.35158976 339.73096785 -78.35235842 340.48785375 C-78.36500691 352.38329807 -78.39822337 364.27859274 -78.43989949 376.17396714 C-78.48234997 388.39067063 -78.50589092 400.60729758 -78.51111281 412.82407463 C-78.51452357 419.68172935 -78.52623872 426.53915029 -78.55921555 433.39673233 C-78.59019654 439.84981608 -78.59561539 446.30260423 -78.58383179 452.75575447 C-78.58361087 455.12245133 -78.59193081 457.48916696 -78.60948563 459.85579872 C-78.63217617 463.09129606 -78.62388139 466.32531612 -78.60800171 469.56082153 C-78.6218838 470.49362383 -78.63576588 471.42642613 -78.65006864 472.38749516 C-78.55932188 479.91086646 -76.19989903 485.76493724 -70.8671875 491.15625 C-70.20976563 491.5996875 -69.55234375 492.043125 -68.875 492.5 C-67.88113281 493.19609375 -67.88113281 493.19609375 -66.8671875 493.90625 C-63.16361425 496.07570713 -60.07634634 496.12750241 -55.87477589 496.13422108 C-53.93993201 496.14090784 -53.93993201 496.14090784 -51.96600038 496.14772969 C-50.52614644 496.14764039 -49.08629251 496.14745053 -47.6464386 496.14717102 C-46.12337388 496.15046952 -44.60031004 496.15419506 -43.07724732 496.1583125 C-38.88088665 496.16834215 -34.68454028 496.17205084 -30.48816931 496.17470181 C-25.9665482 496.178602 -21.44493845 496.18818052 -16.92332458 496.19691467 C-5.99822985 496.21668703 4.92686582 496.22674621 15.85197398 496.23564246 C20.9948053 496.24002405 26.13763558 496.24539119 31.28046608 496.25063133 C48.37295029 496.26764428 65.46543385 496.28213898 82.55792522 496.28938007 C86.99459013 496.29129002 91.43125503 496.29321034 95.86791992 496.29516602 C96.9706524 496.29564976 98.07338488 496.2961335 99.20953349 496.2966319 C117.07744941 496.30493414 134.94529842 496.33027404 152.81318512 496.36274669 C171.15116131 496.39580241 189.48910349 496.41382748 207.82710963 496.41702431 C218.12590324 496.41919078 228.42459928 496.42795935 238.72336388 496.45348549 C247.49339219 496.47517215 256.26329924 496.48325293 265.03335132 496.47351871 C269.50827189 496.46896812 273.98294214 496.47090423 278.45782852 496.49028015 C282.55572368 496.50787055 286.65318516 496.50694783 290.75108466 496.49138286 C292.23229025 496.4890005 293.71352555 496.49336291 295.19468566 496.50521151 C304.23367974 496.57303122 310.94144047 496.36520485 318.0234375 490.25390625 C318.46945312 489.69574219 318.91546875 489.13757813 319.375 488.5625 C319.83648437 488.00691406 320.29796875 487.45132812 320.7734375 486.87890625 C323.36549452 482.90827113 324.25004451 479.36934617 324.26006222 474.65942669 C324.26712781 473.59545278 324.2741934 472.53147888 324.2814731 471.43526334 C324.27905802 470.27243622 324.27664293 469.1096091 324.27415466 467.9115448 C324.27939134 466.67151728 324.28462802 465.43148977 324.29002339 464.15388566 C324.30243398 460.71448353 324.30586683 457.27528584 324.30542648 453.83587539 C324.30707533 450.12546349 324.32014307 446.41508876 324.33161926 442.70469666 C324.35446229 434.59314456 324.36238898 426.48161864 324.36744571 418.37003875 C324.37070326 413.30461917 324.37722606 408.23920717 324.3844471 403.17379189 C324.4040114 389.1471325 324.42041684 375.12048017 324.42332363 361.09380627 C324.42360499 359.74760769 324.42360499 359.74760769 324.42389202 358.37421318 C324.42425827 356.55486349 324.42462197 354.73551381 324.42498314 352.91616412 C324.42516595 352.01304627 324.42534876 351.10992842 324.42553711 350.17944336 C324.42571766 349.27522246 324.42589821 348.37100156 324.42608423 347.43938003 C324.42962642 332.785421 324.45665236 318.13160887 324.494035 303.47770079 C324.53211423 288.43025086 324.55148108 273.38287384 324.55178314 258.33537465 C324.55236777 249.8877012 324.56086309 241.44020303 324.58978081 232.99257469 C324.61428948 225.79992304 324.62158108 218.60751062 324.60653328 211.4148285 C324.59936239 207.74586981 324.6002288 204.07738356 324.62294388 200.40847778 C324.64734811 196.42857756 324.63290302 192.44935171 324.61473083 188.46940613 C324.63453079 186.7352037 324.63453079 186.7352037 324.65473074 184.96596688 C324.57316101 177.15213049 323.012964 172.11923452 317.52193254 166.48279065 C312.79740528 162.26780822 308.53993587 160.75378042 302.28947449 160.73257446 C301.14983749 160.72404449 300.0102005 160.71551453 298.83602905 160.70672607 C297.59487335 160.70763245 296.35371765 160.70853882 295.07495117 160.70947266 C293.76058578 160.70275543 292.4462204 160.69603821 291.09202576 160.68911743 C287.49270723 160.67147718 283.89348385 160.66676286 280.29412627 160.66548586 C278.04286385 160.66406243 275.79162547 160.65978919 273.54036903 160.65449142 C265.67915949 160.63599678 257.81801769 160.62781999 249.95678711 160.62939453 C242.64096712 160.63059537 235.32544243 160.60950309 228.00969714 160.5779072 C221.71906344 160.55171154 215.42852598 160.54102863 209.13783818 160.54230535 C205.38500634 160.54281408 201.63243694 160.53718096 197.87965965 160.51594925 C193.690647 160.49289593 189.50229121 160.50210779 185.31323242 160.51416016 C184.07814941 160.50292114 182.84306641 160.49168213 181.57055664 160.48010254 C173.68319466 160.53773437 168.08155953 161.4069669 161.9765625 166.78125 C161.53054688 167.3484375 161.08453125 167.915625 160.625 168.5 C160.16351563 169.0671875 159.70203125 169.634375 159.2265625 170.21875 C156.26700937 174.51669977 155.64674146 177.96476151 155.125 183.1875 C154.39894298 189.39076369 153.15655179 194.58088486 150 200 C149.65195313 200.62261719 149.30390625 201.24523437 148.9453125 201.88671875 C144.30977442 209.25562583 136.30349737 213.82785829 128 216 C123.79379258 216.42168793 119.61386901 216.40006945 115.3894043 216.37231445 C114.14459793 216.37596512 112.89979156 216.37961578 111.61726379 216.38337708 C108.22487929 216.39006585 104.83304902 216.38341318 101.44071937 216.37004495 C97.8840482 216.3586789 94.3273903 216.3628416 90.77070618 216.36479187 C84.80501574 216.36567265 78.83943943 216.35463507 72.8737793 216.33618164 C65.97651717 216.31496874 59.07942153 216.31151569 52.18213338 216.3177436 C45.53887337 216.32343478 38.89567198 216.31779764 32.25242043 216.30657005 C29.42751799 216.30192575 26.60265142 216.30104941 23.7777462 216.3031559 C19.83964187 216.30538659 15.90169646 216.29094177 11.96362305 216.2746582 C10.20331253 216.27837433 10.20331253 216.27837433 8.40744019 216.28216553 C7.33786575 216.27508072 6.26829132 216.26799591 5.16630554 216.26069641 C4.23554545 216.25864354 3.30478537 216.25659067 2.34582043 216.25447559 C0 216 0 216 -3 214 C-3.29296875 211.6171875 -3.29296875 211.6171875 -3.1875 208.875 C-3.14689453 207.50988281 -3.14689453 207.50988281 -3.10546875 206.1171875 C-3.07066406 205.41851562 -3.03585938 204.71984375 -3 204 C-0.01727134 203.00575711 1.93899893 202.87300614 5.05241394 202.86869812 C6.09674591 202.86468994 7.14107788 202.86068176 8.21705627 202.85655212 C9.93528847 202.8573452 9.93528847 202.8573452 11.68823242 202.8581543 C13.49840851 202.85294266 13.49840851 202.85294266 15.34515381 202.84762573 C17.97083792 202.84026411 20.59647132 202.834593 23.22215843 202.83133507 C27.37904883 202.82541806 31.53585392 202.80886987 35.69270325 202.78999329 C37.11692709 202.78365585 38.541151 202.77733022 39.96537495 202.77101612 C40.67866195 202.76785031 41.39194896 202.7646845 42.12685072 202.76142275 C51.80305777 202.71938655 61.47922533 202.68638864 71.15551758 202.67407227 C77.6838452 202.66567742 84.21196167 202.64313293 90.74018365 202.6047166 C94.19232924 202.58500077 97.64415951 202.57253624 101.09636497 202.57755089 C104.95271456 202.58308423 108.80853397 202.5577292 112.66479492 202.5300293 C113.8001619 202.53663071 114.93552887 202.54323212 116.1053009 202.55003357 C123.70036382 202.46056851 129.10849253 201.35811552 135.0234375 196.25390625 C135.69246094 195.41666016 135.69246094 195.41666016 136.375 194.5625 C136.83648437 194.00691406 137.29796875 193.45132813 137.7734375 192.87890625 C140.44339036 188.78894661 141.1875491 185.27112685 141.3125 180.4375 C141.94210662 171.62300725 145.04731191 163.02897139 151.19921875 156.52734375 C159.04962176 149.86897591 167.13468385 146.71015901 177.39208984 146.68115234 C178.21226593 146.67110672 179.03244202 146.6610611 179.87747192 146.65071106 C182.57195372 146.61997091 185.26633657 146.60286955 187.9609375 146.5859375 C189.83567145 146.56721847 191.71039703 146.54764451 193.58511353 146.5272522 C198.5070909 146.47600268 203.42909557 146.43633855 208.35119629 146.39910889 C214.26346359 146.35197018 220.17559622 146.29040315 226.0877533 146.23126221 C235.05844762 146.1431375 244.02911728 146.07331044 253 146 C253 127.52 253 109.04 253 90 C157.96 90 62.92 90 -35 90 Z " fill="#030202" transform="translate(103,0)"/>
<path d="M0 0 C95.04 0 190.08 0 288 0 C288 18.48 288 36.96 288 56 C279.11320313 56.02126953 279.11320313 56.02126953 270.046875 56.04296875 C266.27337911 56.06304703 262.50000271 56.08458448 258.7265625 56.11132812 C252.74897648 56.1535559 246.77169368 56.19064154 240.79394531 56.19555664 C235.9696039 56.19986344 231.14594369 56.22852205 226.32181549 56.27343178 C224.48965689 56.28633109 222.65741646 56.29074157 220.8252182 56.28615379 C208.1828584 56.26189103 196.25757777 56.9923714 186.52734375 66.19921875 C180.52572887 73.27529154 177.16654333 80.6572412 176.625 89.875 C176.06975543 97.35229348 174.15619353 102.30533441 168.5625 107.375 C164.30909059 110.90799436 160.1779314 112.24623734 154.6734314 112.27174377 C153.6191243 112.2814621 152.5648172 112.29118042 151.4785614 112.30119324 C149.7593322 112.30207695 149.7593322 112.30207695 148.00537109 112.30297852 C146.79026352 112.31141785 145.57515594 112.31985718 144.32322693 112.32855225 C141.68658528 112.34548278 139.05021344 112.35885426 136.41355515 112.36609077 C132.24524013 112.37759758 128.07708091 112.40306142 123.90884399 112.43040466 C117.31815678 112.4720089 110.72746203 112.50444639 104.13670599 112.53287882 C92.32708978 112.5839065 80.51753865 112.64600873 68.7080332 112.71821922 C64.56338913 112.74313953 60.41876565 112.76257154 56.27407432 112.77760136 C53.09464355 112.79019143 49.91524653 112.80886841 46.73583984 112.82641602 C45.01053795 112.83033607 45.01053795 112.83033607 43.25038147 112.83433533 C42.20171402 112.84123383 41.15304657 112.84813232 40.07260132 112.85523987 C39.16006781 112.85909478 38.24753429 112.8629497 37.30734825 112.86692142 C34.83925824 112.90853745 34.83925824 112.90853745 32 114 C31.34 115.98 30.68 117.96 30 120 C25.05 120 20.1 120 15 120 C14.01 118.02 13.02 116.04 12 114 C8.87268146 112.28800934 8.87268146 112.28800934 0 112 C0 75.04 0 38.08 0 0 Z " fill="#E5E5E5" transform="translate(68,90)"/>
<path d="M0 0 C95.7 0 191.4 0 290 0 C290 43.56 290 87.12 290 132 C278.78 132 267.56 132 256 132 C255.96261719 127.36582031 255.92523438 122.73164063 255.88671875 117.95703125 C255.85643518 115.01754124 255.82528496 112.07811151 255.79101562 109.13867188 C255.7367293 104.4752102 255.68561804 99.81186775 255.65356445 95.14819336 C255.62751476 91.38731779 255.5871012 87.6268435 255.53681374 83.86621666 C255.52015616 82.43299039 255.50863495 80.99969472 255.50238609 79.56638527 C255.49273389 77.55561919 255.46296348 75.54498038 255.43237305 73.53442383 C255.42126999 72.39080887 255.41016693 71.24719391 255.39872742 70.06892395 C254.95242784 66.63384677 254.10670494 64.73298024 252 62 C249.2363282 61.07877607 247.59188057 60.87136408 244.74213123 60.8613348 C243.86879259 60.85586036 242.99545395 60.85038591 242.09565049 60.84474558 C240.65548909 60.84327842 240.65548909 60.84327842 239.18623352 60.84178162 C238.16686571 60.83684364 237.1474979 60.83190566 236.09724015 60.82681805 C232.66549578 60.8114026 229.23377017 60.80307146 225.80200195 60.79467773 C223.34838698 60.78510239 220.89477367 60.77509252 218.44116211 60.76467896 C213.15045532 60.74320582 207.85975117 60.72476877 202.56902504 60.70907402 C194.9194926 60.68637674 187.26998785 60.65823371 179.62047889 60.62875474 C167.21013291 60.5810771 154.79977562 60.53781338 142.3894043 60.49731445 C130.33275471 60.45796041 118.27611519 60.4165344 106.21948242 60.37231445 C105.47650869 60.36959018 104.73353497 60.36686591 103.96804688 60.36405908 C100.24082492 60.35037962 96.5136031 60.33665934 92.78638136 60.32291877 C61.85760739 60.20895128 30.92881316 60.1029537 0 60 C0 40.2 0 20.4 0 0 Z " fill="#C9C9C9" transform="translate(116,14)"/>
<path d="M0 0 C1.60837997 -0.00649512 3.21675132 -0.01555751 4.82510376 -0.0269928 C9.18894161 -0.05006741 13.55190453 -0.03535915 17.91571426 -0.01252341 C22.48312878 0.00639473 27.05048464 -0.00476608 31.61791992 -0.01142883 C39.28806451 -0.01776905 46.95785863 0.00049844 54.62792969 0.03320312 C63.4946373 0.07069764 72.36068096 0.06891894 81.22742367 0.04616195 C89.75819545 0.02521095 98.28872193 0.03248798 106.81948853 0.0524807 C110.44942228 0.0604658 114.0791485 0.05847634 117.70907593 0.04845619 C121.98405696 0.03790318 126.25826453 0.05203653 130.53312302 0.08519936 C132.10163648 0.0934057 133.67022082 0.0931235 135.23872757 0.08372116 C137.38112663 0.07228945 139.52112248 0.09167393 141.66333008 0.11885071 C142.86161942 0.12203465 144.05990875 0.1252186 145.29450989 0.12849903 C149.38329603 0.94560302 150.88285082 2.54892773 153.45703125 5.76049805 C154.07849121 8.60595703 154.07849121 8.60595703 154.07226562 11.7565918 C154.08622375 13.5336853 154.08622375 13.5336853 154.10046387 15.34667969 C154.07587097 17.25308228 154.07587097 17.25308228 154.05078125 19.19799805 C154.05082153 20.51082764 154.05086182 21.82365723 154.05090332 23.17626953 C154.04925295 25.95044514 154.03060994 28.72380983 153.99902344 31.49780273 C153.95934531 35.04543429 153.95497963 38.59200492 153.96248627 42.13981628 C153.966302 45.53433838 153.94546688 48.92852833 153.92578125 52.32299805 C153.92557983 53.59393311 153.92537842 54.86486816 153.9251709 56.17431641 C153.90925903 57.35904541 153.89334717 58.54377441 153.87695312 59.7644043 C153.86853394 60.80411377 153.86011475 61.84382324 153.85144043 62.91503906 C153.38934116 66.2488472 152.49844795 68.09556812 150.45703125 70.76049805 C147.0000217 73.04905343 143.97868556 73.01630258 139.8974762 73.02792358 C139.2401344 73.0324547 138.5827926 73.03698581 137.90553135 73.04165423 C135.70460878 73.05430668 133.50393341 73.05267736 131.30297852 73.05102539 C129.72431113 73.05701006 128.14564668 73.06381547 126.56698608 73.07138062 C122.27981823 73.08905255 117.99273021 73.09373645 113.70552945 73.09501219 C110.12691877 73.09691132 106.54832669 73.10426889 102.96972317 73.11135638 C94.52757604 73.12764191 86.08547157 73.13252512 77.64331055 73.13110352 C68.93294025 73.12990152 60.22281752 73.15101453 51.51250988 73.18259084 C44.03469411 73.20873376 36.5569593 73.21947167 29.07909817 73.2181927 C24.61263161 73.21768254 20.14638512 73.22339516 15.67996407 73.2445488 C11.479847 73.26389827 7.2801607 73.26407846 3.08002853 73.24951553 C1.53890161 73.24742233 -0.00225204 73.25215878 -1.54333305 73.26423645 C-3.64820619 73.27966385 -5.75158924 73.27039991 -7.85643005 73.25497437 C-9.03389518 73.2560639 -10.2113603 73.25715343 -11.42450619 73.25827599 C-15.20866228 72.65423814 -16.86250749 71.45596262 -19.54296875 68.76049805 C-20.58539582 65.63321685 -20.69458063 63.38233068 -20.73583984 60.09912109 C-20.75993423 58.35667366 -20.75993423 58.35667366 -20.78451538 56.57902527 C-20.82897884 51.27142877 -20.87045895 45.96397937 -20.89306641 40.65625 C-20.90640117 37.85578718 -20.93424753 35.05605383 -20.97509766 32.25585938 C-21.03397211 28.21952062 -21.0517342 24.18396261 -21.06640625 20.1472168 C-21.08907562 18.89704269 -21.111745 17.64686859 -21.13510132 16.35881042 C-21.13225128 15.18772232 -21.12940125 14.01663422 -21.12646484 12.81005859 C-21.1345517 11.78430222 -21.14263855 10.75854584 -21.15097046 9.70170593 C-20.51380607 6.61942358 -19.76117003 4.27229439 -17.58724403 1.93425274 C-12.50953763 -0.98119694 -5.71458853 -0.05414538 0 0 Z " fill="#040401" transform="translate(252.54296875,242.239501953125)"/>
<path d="M0 0 C10.89 0 21.78 0 33 0 C33.029729 6.78449707 33.029729 6.78449707 33.06005859 13.70605469 C33.12687211 28.62590913 33.20441242 43.54569343 33.28752708 58.46546555 C33.33767146 67.51406917 33.38411417 76.56266365 33.421875 85.61132812 C33.45479263 93.49716914 33.49462257 101.38293958 33.54279006 109.26870275 C33.56805733 113.44502923 33.58983794 117.62130889 33.60334396 121.79769135 C33.61616225 125.72766147 33.6382141 129.65747101 33.66738319 133.58735275 C33.67646079 135.03050629 33.68214963 136.47368569 33.68421364 137.9168663 C33.6875347 139.8860813 33.70418559 141.85526042 33.7215271 143.82440186 C33.72705786 144.92686626 33.73258862 146.02933067 33.73828697 147.16520309 C33.99923356 149.99169817 34.44488251 151.64607778 36 154 C38.79870027 155.39935013 40.90498792 155.25265405 44 155 C46.03667615 153.45493534 46.86073078 152.27853844 48 150 C48.12209616 147.52927491 48.18562086 145.08482792 48.20532227 142.61279297 C48.21522186 141.85172241 48.22512146 141.09065186 48.23532104 140.30651855 C48.26696678 137.78510676 48.29170557 135.26367612 48.31640625 132.7421875 C48.33697313 130.99626164 48.35796953 129.25034078 48.37937927 127.50442505 C48.43462746 122.90460258 48.4840246 118.30473497 48.53222656 113.70483398 C48.58242155 109.01281711 48.63811805 104.32086595 48.69335938 99.62890625 C48.80097454 90.41932694 48.90241204 81.20969063 49 72 C55.49159748 72.91316343 59.28289774 74.7259997 63.3125 80.0625 C65.55148993 83.96000099 66.12561613 86.67788845 66.13422108 91.09447765 C66.13867892 92.15446946 66.14313676 93.21446127 66.14772969 94.30657405 C66.14754533 95.47522685 66.14736097 96.64387965 66.14717102 97.84794617 C66.15084771 99.08626483 66.1545244 100.3245835 66.1583125 101.60042697 C66.1674425 105.0442958 66.17204972 108.48811696 66.17470181 111.93199337 C66.17860407 115.6437923 66.18818247 119.35557743 66.19691467 123.06736755 C66.21668142 132.03471331 66.22674561 141.00206021 66.23564246 149.96942231 C66.24002506 154.19176683 66.24539195 158.4141101 66.25063133 162.63645363 C66.2676439 176.67161009 66.28213821 190.70676577 66.28938007 204.74193096 C66.29128998 208.38451323 66.29321031 212.02709549 66.29516602 215.66967773 C66.29564976 216.57502964 66.2961335 217.48038154 66.2966319 218.41316835 C66.30493267 233.08016068 66.33027026 247.74707147 66.36274669 262.41402819 C66.39581384 277.47044867 66.41382853 292.52682769 66.41702431 307.58328468 C66.41918974 316.03767281 66.42794317 324.49194203 66.45348549 332.94629478 C66.4751878 340.14628449 66.48324525 347.3461264 66.47351871 354.5461451 C66.46897259 358.21908089 66.47087797 361.89171171 66.49028015 365.56460571 C66.51114537 369.54890902 66.50093093 373.53279181 66.48774719 377.51713562 C66.49871644 378.67463481 66.50968568 379.832134 66.52098733 381.02470893 C66.45987749 388.66642283 65.3899563 394.07159426 60.25390625 400.0234375 C59.69574219 400.46945312 59.13757813 400.91546875 58.5625 401.375 C57.72912109 402.06722656 57.72912109 402.06722656 56.87890625 402.7734375 C52.00948766 405.95222635 47.54992292 406.2747709 41.85546875 406.1953125 C41.08568192 406.1924826 40.31589508 406.18965271 39.52278137 406.18673706 C37.07752575 406.17559157 34.63264388 406.15049781 32.1875 406.125 C30.52409385 406.1149629 28.86068193 406.10583833 27.19726562 406.09765625 C23.13136763 406.07567073 19.06574706 406.04118014 15 406 C15.31316162 405.22277588 15.62632324 404.44555176 15.94897461 403.64477539 C16.89684299 401.25958186 17.75360612 398.87265174 18.5625 396.4375 C18.81128906 395.69371094 19.06007813 394.94992187 19.31640625 394.18359375 C19.9577269 392.13503237 20.48862249 390.08400668 21 388 C22.02154175 387.97812622 22.02154175 387.97812622 23.0637207 387.95581055 C26.14722215 387.88137304 29.22963567 387.78469917 32.3125 387.6875 C33.38435547 387.66494141 34.45621094 387.64238281 35.56054688 387.61914062 C37.10258789 387.5659668 37.10258789 387.5659668 38.67578125 387.51171875 C39.62364502 387.48553467 40.57150879 387.45935059 41.5480957 387.43237305 C44.3902252 386.93118701 45.26083411 386.25293973 47 384 C48.57652497 380.84695006 48.14424358 377.46594703 48.14044189 374.0038147 C48.14341302 373.16779988 48.14638414 372.33178506 48.1494453 371.47043645 C48.15815676 368.65296979 48.1596426 365.83554549 48.16113281 363.01806641 C48.16575923 361.00458179 48.17078364 358.99109806 48.17617798 356.97761536 C48.1893203 351.4962354 48.19575041 346.0148677 48.20018864 340.53347445 C48.20311617 337.11187734 48.20722035 333.69028361 48.21169281 330.2686882 C48.22537204 319.57181362 48.23503684 308.87494672 48.2388947 298.17806399 C48.24337783 285.81410499 48.26093582 273.45025642 48.2898953 261.08633101 C48.31148254 251.53980805 48.32159738 241.99331623 48.32293582 232.44676912 C48.3239859 226.74012093 48.32993671 221.03357647 48.34775543 215.32695389 C48.36418521 209.96062716 48.36641646 204.59448272 48.35761642 199.22813988 C48.35684333 197.25604325 48.36122437 195.28393703 48.37107468 193.31186485 C48.38371343 190.62440783 48.37796161 187.93760432 48.36749268 185.25015259 C48.37554908 184.46552379 48.38360548 183.680895 48.39190602 182.87248957 C48.36225574 179.62920764 48.2092875 177.37060511 46.59812546 174.51756859 C44.63191092 172.65046523 43.68408684 172.45933202 41 172.5 C40.319375 172.4896875 39.63875 172.479375 38.9375 172.46875 C36.06916665 173.2552285 35.46889243 174.42397513 34 177 C33.70575876 179.71726386 33.5837366 182.20530467 33.60127258 184.92193604 C33.59462576 185.72573 33.58797893 186.52952396 33.58113068 187.35767531 C33.5624618 190.05400821 33.56510856 192.74989886 33.56762695 195.44628906 C33.55861217 197.37789539 33.54828565 199.30949599 33.53674316 201.24108887 C33.50911381 206.48863354 33.49988058 211.73606986 33.49388909 216.98367786 C33.48452087 222.46635565 33.45831876 227.94895199 33.43388367 233.43157959 C33.39017223 243.81539188 33.36165378 254.19918841 33.33856028 264.58306479 C33.31153351 276.40401931 33.26762045 288.22489208 33.22227156 300.04578829 C33.12935875 324.36381457 33.0577084 348.6818665 33 373 C29.04 373 25.08 373 21 373 C20.99853344 371.5197893 20.99706688 370.03957859 20.99555588 368.51451302 C20.95983987 333.36294652 20.90357846 298.21146809 20.82207905 263.05997718 C20.81206181 258.7317169 20.80221764 254.40345624 20.79248047 250.07519531 C20.7905391 249.21353075 20.78859772 248.35186618 20.78659752 247.46409057 C20.75559181 233.51931924 20.73860086 219.57456435 20.72680578 205.62976505 C20.71438681 191.31693281 20.68686857 177.00418679 20.64538693 162.69140899 C20.62027287 153.86243115 20.60688119 145.03359633 20.60857043 136.20458226 C20.60860022 130.14696881 20.59393936 124.08950085 20.56783572 118.03194411 C20.55321434 114.53905466 20.54496548 111.04646356 20.55419731 107.55354881 C20.56083478 103.76008209 20.54292011 99.96748225 20.51898193 96.17410278 C20.52674235 95.07874714 20.53450277 93.9833915 20.54249835 92.85484326 C20.44437658 84.05535147 18.3242099 76.27232668 12.8125 69.25 C12.30332031 68.57453125 11.79414063 67.8990625 11.26953125 67.203125 C9.18647758 64.95218231 9.18647758 64.95218231 6.84051514 63.94668579 C4.09225529 62.54152902 2.1309889 61.24564809 0 59 C-1.27001998 54.50167259 -1.0501382 50.15095465 -0.87890625 45.5078125 C-0.86617172 44.20673553 -0.85343719 42.90565857 -0.84031677 41.56515503 C-0.80610016 38.12111184 -0.71784561 34.68053554 -0.61798096 31.237854 C-0.52557887 27.71895093 -0.4842443 24.19946552 -0.43945312 20.6796875 C-0.34796354 13.78340592 -0.17188493 6.89661751 0 0 Z " fill="#E48D12" transform="translate(421,90)"/>
<path d="M0 0 C10.89 0 21.78 0 33 0 C33.029729 6.78449707 33.029729 6.78449707 33.06005859 13.70605469 C33.12687211 28.62590913 33.20441242 43.54569343 33.28752708 58.46546555 C33.33767146 67.51406917 33.38411417 76.56266365 33.421875 85.61132812 C33.45479263 93.49716914 33.49462257 101.38293958 33.54279006 109.26870275 C33.56805733 113.44502923 33.58983794 117.62130889 33.60334396 121.79769135 C33.61616225 125.72766147 33.6382141 129.65747101 33.66738319 133.58735275 C33.67646079 135.03050629 33.68214963 136.47368569 33.68421364 137.9168663 C33.6875347 139.8860813 33.70418559 141.85526042 33.7215271 143.82440186 C33.72705786 144.92686626 33.73258862 146.02933067 33.73828697 147.16520309 C34.00041033 150.0044446 34.40885938 151.65191633 36 154 C38.53770003 155.28254644 38.53770003 155.28254644 41 156 C41.16249454 158.41936317 41.28097817 160.82781859 41.375 163.25 C41.42527344 163.93191406 41.47554688 164.61382812 41.52734375 165.31640625 C41.5859375 167.328125 41.5859375 167.328125 41 171 C38.0390625 173.359375 38.0390625 173.359375 35 175 C33.46243755 178.0751249 33.84614383 181.30620662 33.84178162 184.681427 C33.83684364 185.48351211 33.83190566 186.28559723 33.82681805 187.11198795 C33.81139278 189.81440256 33.80306886 192.51679333 33.79467773 195.21923828 C33.78510316 197.15054537 33.77509333 199.08185034 33.76467896 201.01315308 C33.73757825 206.26905188 33.71659671 211.52495972 33.69667697 216.78088999 C33.67484921 222.26889102 33.64744485 227.75686406 33.62062073 233.24484253 C33.57065033 243.64288863 33.52572766 254.04095023 33.48259836 264.43902671 C33.43326308 276.27441657 33.37833123 288.10977835 33.32291877 299.94514108 C33.20903201 324.29673454 33.10220759 348.64835492 33 373 C29.04 373 25.08 373 21 373 C20.99853344 371.5197893 20.99706688 370.03957859 20.99555588 368.51451302 C20.95983987 333.36294652 20.90357846 298.21146809 20.82207905 263.05997718 C20.81206181 258.7317169 20.80221764 254.40345624 20.79248047 250.07519531 C20.7905391 249.21353075 20.78859772 248.35186618 20.78659752 247.46409057 C20.75559181 233.51931924 20.73860086 219.57456435 20.72680578 205.62976505 C20.71438681 191.31693281 20.68686857 177.00418679 20.64538693 162.69140899 C20.62027287 153.86243115 20.60688119 145.03359633 20.60857043 136.20458226 C20.60860022 130.14696881 20.59393936 124.08950085 20.56783572 118.03194411 C20.55321434 114.53905466 20.54496548 111.04646356 20.55419731 107.55354881 C20.56083478 103.76008209 20.54292011 99.96748225 20.51898193 96.17410278 C20.52674235 95.07874714 20.53450277 93.9833915 20.54249835 92.85484326 C20.44437658 84.05535147 18.3242099 76.27232668 12.8125 69.25 C12.30332031 68.57453125 11.79414063 67.8990625 11.26953125 67.203125 C9.18647758 64.95218231 9.18647758 64.95218231 6.84051514 63.94668579 C4.09225529 62.54152902 2.1309889 61.24564809 0 59 C-1.27001998 54.50167259 -1.0501382 50.15095465 -0.87890625 45.5078125 C-0.86617172 44.20673553 -0.85343719 42.90565857 -0.84031677 41.56515503 C-0.80610016 38.12111184 -0.71784561 34.68053554 -0.61798096 31.237854 C-0.52557887 27.71895093 -0.4842443 24.19946552 -0.43945312 20.6796875 C-0.34796354 13.78340592 -0.17188493 6.89661751 0 0 Z " fill="#C8C8C8" transform="translate(421,90)"/>
<path d="M0 0 C47.52 0 95.04 0 144 0 C144 13.86 144 27.72 144 42 C125.3723857 42.02254613 106.7447824 42.04097865 88.11715794 42.05181217 C79.46864395 42.05697536 70.82013903 42.06401848 62.17163086 42.07543945 C54.63635421 42.08538561 47.10108412 42.09185326 39.56580108 42.09408849 C35.57344148 42.09539572 31.58110064 42.0984823 27.58874702 42.10573006 C23.83532902 42.1124892 20.08193761 42.11461718 16.3285141 42.11310768 C14.94697106 42.11338406 13.56542719 42.11538981 12.18388939 42.11920547 C10.30562855 42.12414099 8.42735362 42.12239796 6.54908752 42.12025452 C5.49547814 42.12117631 4.44186876 42.1220981 3.35633183 42.12304783 C1 42 1 42 0 41 C0 27.47 0 13.94 0 0 Z " fill="#F45C5E" transform="translate(247,258)"/>
<path d="M0 0 C0.76845214 -0.00779995 1.53690428 -0.01559991 2.32864285 -0.02363622 C4.90000488 -0.04355789 7.46988713 -0.02779202 10.04125977 -0.01205444 C11.88608666 -0.01883052 13.7309068 -0.0277336 15.57571411 -0.03860474 C20.58402707 -0.06140583 25.59182525 -0.05255834 30.60014725 -0.03670931 C35.84021649 -0.02405456 41.08024153 -0.03578924 46.3203125 -0.04364014 C55.12027911 -0.05273792 63.92003594 -0.04074534 72.7199707 -0.01693726 C82.89539749 0.0102742 93.07032338 0.00146014 103.24573803 -0.02606928 C111.98049553 -0.04875561 120.7151022 -0.05196275 129.44987965 -0.03887594 C134.66750614 -0.03107883 139.88489716 -0.03004704 145.10250854 -0.04655838 C150.00778538 -0.06099688 154.91241613 -0.05099266 159.81762314 -0.0220871 C161.61835532 -0.01547298 163.41914184 -0.01737953 165.21985245 -0.02840042 C167.6774141 -0.04205526 170.1329027 -0.02494343 172.59033203 0 C173.3038555 -0.01115361 174.01737898 -0.02230722 174.75252438 -0.03379881 C178.57189135 0.04145576 180.21961455 0.57622769 183.27281189 2.9480381 C185.29516602 5.63491821 185.29516602 5.63491821 185.35766602 9.25991821 C184.16096814 13.06119381 183.71105032 13.77381137 180.29516602 15.63491821 C177.67196804 15.92554826 175.28766598 16.04445231 172.66589355 16.02259827 C171.89350672 16.0279838 171.12111989 16.03336934 170.3253274 16.03891808 C167.7350338 16.05323522 165.14524854 16.04608484 162.55493164 16.03897095 C160.69878223 16.04467251 158.84263632 16.05163594 156.98649597 16.05976868 C151.94318627 16.07773763 146.90005019 16.07652482 141.85671806 16.07082629 C137.64922086 16.06774021 133.44175728 16.07382034 129.23426485 16.07986504 C119.31068923 16.09392058 109.38719968 16.09234007 99.46362305 16.08096313 C89.21840096 16.06947717 78.9734405 16.08356332 68.72825289 16.11035961 C59.93750553 16.13249282 51.14684044 16.13915947 42.35606718 16.1332832 C37.10326594 16.12990716 31.85063248 16.13237167 26.59785461 16.14953423 C21.659867 16.16496369 16.72226807 16.1610924 11.78429604 16.14222908 C9.97023406 16.13853226 8.15614353 16.14168333 6.34210777 16.15211487 C3.86909888 16.16525208 1.39739064 16.15384314 -1.07556152 16.13612366 C-1.79657091 16.14572866 -2.51758029 16.15533367 -3.26043844 16.16522974 C-6.63832694 16.11529207 -8.41976535 15.85064336 -11.14650726 13.78718662 C-12.70483398 11.63491821 -12.70483398 11.63491821 -13.26733398 8.69741821 C-11.92539334 1.39129695 -6.64769972 -0.10391507 0 0 Z " fill="#000000" transform="translate(112.704833984375,113.36508178710938)"/>
<path d="M0 0 C1.06719772 -0.0071553 2.13439545 -0.01431061 3.2339325 -0.02168274 C6.75917447 -0.03858248 10.28314722 -0.0191595 13.80834961 0.00219727 C16.25784918 0.00136876 18.70734869 -0.00108995 21.15684509 -0.00511169 C26.28897853 -0.00797051 31.42067575 0.00674169 36.55273438 0.03417969 C43.13609405 0.06827981 49.71867448 0.06223865 56.30207157 0.04351711 C61.35923272 0.03295727 66.41621202 0.04187555 71.47335625 0.05690193 C73.90108132 0.06209041 76.32882532 0.06159392 78.75654793 0.05535698 C82.14670907 0.04991659 85.53574792 0.07024324 88.92578125 0.09765625 C90.43529861 0.08786743 90.43529861 0.08786743 91.97531128 0.07788086 C98.73298106 0.17095826 98.73298106 0.17095826 102.02146912 2.44569397 C104.0579767 5.67844238 103.9318442 7.8955476 103.39819336 11.63110352 C102.02819824 13.81750488 102.02819824 13.81750488 99.39819336 15.63110352 C95.87630147 16.23776221 92.38431974 16.17706681 88.81811523 16.14868164 C87.20290733 16.15919556 87.20290733 16.15919556 85.55506897 16.16992188 C81.99209889 16.18754144 78.42992166 16.17586439 74.86694336 16.16235352 C72.39359382 16.16504727 69.92024532 16.16892872 67.44689941 16.1739502 C62.26177901 16.17985064 57.07693411 16.17126429 51.8918457 16.15258789 C45.2400238 16.12979827 38.58911648 16.1429182 31.93727875 16.16687775 C26.82951987 16.18132066 21.72191446 16.17673655 16.614151 16.16636658 C14.16129989 16.16369515 11.70843491 16.1669836 9.25559998 16.17628479 C5.82944751 16.18642509 2.40434555 16.17098308 -1.02172852 16.14868164 C-2.03899521 16.15677856 -3.0562619 16.16487549 -4.10435486 16.17321777 C-10.94920632 16.09052953 -10.94920632 16.09052953 -14.22790527 13.78234863 C-16.14795973 10.77594084 -16.24514531 9.13372518 -15.60180664 5.63110352 C-11.30808611 -0.44981578 -6.84950674 -0.07974126 0 0 Z " fill="#010101" transform="translate(115.601806640625,151.368896484375)"/>
</svg>
