<?xml version="1.0" encoding="UTF-8"?>
<svg version="1.1" xmlns="http://www.w3.org/2000/svg" width="292" height="91">
<path d="M0 0 C10.56 0 21.12 0 32 0 C32 1.98 32 3.96 32 6 C24.41 6 16.82 6 9 6 C8.67 11.28 8.34 16.56 8 22 C14.93 22 21.86 22 29 22 C29.66 20.35 30.32 18.7 31 17 C36.94675883 12.44503579 41.69069741 11.33109544 49 12 C54.22763018 13.62827825 56.93392787 15.46221325 60 20 C60.33 17.36 60.66 14.72 61 12 C63.31 12 65.62 12 68 12 C68.33 20.91 68.66 29.82 69 39 C76.40772434 40.75128219 76.40772434 40.75128219 79.953125 38.265625 C82.93228634 33.51261187 82.74292271 29.25613546 82.75 23.75 C82.78299809 21.74473174 82.81927222 19.73951376 82.859375 17.734375 C82.86420898 16.84975586 82.86904297 15.96513672 82.87402344 15.05371094 C83 13 83 13 84 12 C85.98 12 87.96 12 90 12 C90 22.89 90 33.78 90 45 C88.35 45.33 86.7 45.66 85 46 C83.1875 44.5625 83.1875 44.5625 82 43 C81.01 43.7425 81.01 43.7425 80 44.5 C75.31405658 46.84297171 71.22026161 46.49339147 66.1875 45.375 C63.17917194 43.48405094 62.33234473 41.22567672 61 38 C60.29875 38.763125 59.5975 39.52625 58.875 40.3125 C53.38754305 45.44207932 48.97872122 46.51477013 41.62109375 46.28515625 C36.72058933 45.75201643 33.98853264 44.06868393 30.6875 40.5 C27.37895295 35.59844881 28 33.53500516 28 27 C21.4 27 14.8 27 8 27 C8 33.27 8 39.54 8 46 C5.36 46 2.72 46 0 46 C0 30.82 0 15.64 0 0 Z M36 22 C34.14730079 25.70539842 34.53555511 29.95623313 35 34 C36.31117601 37.11326625 37.90609152 39.45304576 41 41 C46.45564858 41.49332246 46.45564858 41.49332246 51.4375 39.6875 C54.22344584 34.89567316 54.69340376 29.20557146 53.5234375 23.796875 C52.50595485 21.13576652 51.39352182 19.30170006 49.125 17.5625 C42.82458074 15.89474196 40.52620286 17.67953363 36 22 Z " fill="#9A9B9B" transform="translate(64,30)"/>
<path d="M0 0 C4.09346914 -0.02293974 8.18677476 -0.04285785 12.28027344 -0.05493164 C13.67318477 -0.0599643 15.0660908 -0.06679098 16.45898438 -0.07543945 C18.45961246 -0.08755152 20.46027888 -0.09270412 22.4609375 -0.09765625 C23.66540527 -0.10289307 24.86987305 -0.10812988 26.11083984 -0.11352539 C29 0 29 0 31 1 C31.02684679 3.64590014 31.04676357 6.29153096 31.0625 8.9375 C31.07087891 9.69224609 31.07925781 10.44699219 31.08789062 11.22460938 C31.09652441 13.14994313 31.05224333 15.07535581 31 17 C29.25493385 18.74506615 26.80960857 18.23282784 24.43359375 18.31640625 C23.30888672 18.35830078 22.18417969 18.40019531 21.02539062 18.44335938 C19.84138672 18.48267578 18.65738281 18.52199219 17.4375 18.5625 C16.24962891 18.60568359 15.06175781 18.64886719 13.83789062 18.69335938 C10.89205216 18.79983546 7.9461257 18.90184841 5 19 C5.721875 19.55945313 6.44375 20.11890625 7.1875 20.6953125 C14.67795406 27.16623254 14.67795406 27.16623254 15.6640625 32.78125 C15.62894565 36.23674775 15.44425953 39.57426542 15 43 C11.04 43 7.08 43 3 43 C3.01160156 44.14339844 3.02320312 45.28679688 3.03515625 46.46484375 C3.04453288 47.95572754 3.05363321 49.44661309 3.0625 50.9375 C3.07087891 51.69224609 3.07925781 52.44699219 3.08789062 53.22460938 C3.09652441 55.14994313 3.05224333 57.07535581 3 59 C2 60 2 60 0.23413086 60.11352539 C-0.51473389 60.10828857 -1.26359863 60.10305176 -2.03515625 60.09765625 C-2.84404297 60.09443359 -3.65292969 60.09121094 -4.48632812 60.08789062 C-5.33646484 60.07951172 -6.18660156 60.07113281 -7.0625 60.0625 C-7.91650391 60.05798828 -8.77050781 60.05347656 -9.65039062 60.04882812 C-11.76695663 60.03700373 -13.88348685 60.01906769 -16 60 C-16.78481028 55.84548844 -17.13552712 51.91414038 -17.125 47.6875 C-17.12757812 46.63949219 -17.13015625 45.59148438 -17.1328125 44.51171875 C-17 42 -17 42 -16 41 C-13.81360547 40.92741054 -11.62499611 40.91626217 -9.4375 40.9375 C-7.64119141 40.95103516 -7.64119141 40.95103516 -5.80859375 40.96484375 C-4.88175781 40.97644531 -3.95492188 40.98804688 -3 41 C-3.93590504 39.8944811 -4.87379858 38.79064547 -5.8125 37.6875 C-6.33457031 37.07261719 -6.85664063 36.45773438 -7.39453125 35.82421875 C-8.91128157 33.98075212 -8.91128157 33.98075212 -10.68359375 32.71484375 C-12.80782698 29.94766753 -12.31995806 27.28195752 -12.25 23.875 C-12.23453125 22.61429688 -12.2190625 21.35359375 -12.203125 20.0546875 C-12 17 -12 17 -11 16 C-9.31816052 15.76712992 -7.6287584 15.58735834 -5.9375 15.4375 C-3.4934375 15.2209375 -3.4934375 15.2209375 -1 15 C-0.67 10.05 -0.34 5.1 0 0 Z " fill="#434446" transform="translate(18,14)"/>
<path d="M0 0 C1.98 0 3.96 0 6 0 C6 15.18 6 30.36 6 46 C3.69 46 1.38 46 -1 46 C-1.33 45.34 -1.66 44.68 -2 44 C-2.804375 44.495 -3.60875 44.99 -4.4375 45.5 C-9.98680941 47.83655133 -14.67931577 47.8757299 -20.3125 45.75 C-22.91788088 44.05347292 -24.92891327 42.31005828 -27 40 C-26.67 41.98 -26.34 43.96 -26 46 C-28.64 46 -31.28 46 -34 46 C-34.01458252 45.32420898 -34.02916504 44.64841797 -34.04418945 43.95214844 C-34.11875411 40.88419478 -34.21538655 37.81731924 -34.3125 34.75 C-34.33505859 33.68652344 -34.35761719 32.62304688 -34.38085938 31.52734375 C-34.4340332 29.99013672 -34.4340332 29.99013672 -34.48828125 28.421875 C-34.51446533 27.47924805 -34.54064941 26.53662109 -34.56762695 25.56542969 C-35.06261894 22.6284586 -36.04845984 21.20826197 -38 19 C-41.40614946 19.02126462 -41.40614946 19.02126462 -45 20 C-48.59261449 25.12280215 -48.53699958 30.34638303 -48.6875 36.375 C-48.72166016 37.30183594 -48.75582031 38.22867188 -48.79101562 39.18359375 C-48.87299552 41.45560812 -48.94230494 43.72726104 -49 46 C-51.64 46 -54.28 46 -57 46 C-57 35.11 -57 24.22 -57 13 C-54.69 13.33 -52.38 13.66 -50 14 C-50 14.99 -50 15.98 -50 17 C-49.21625 16.34 -48.4325 15.68 -47.625 15 C-44.00080475 12.61814118 -40.75660403 12.31358233 -36.4765625 12.46875 C-32.32210089 13.35992788 -29.69665632 15.81679101 -27 19 C-26.67 19.66 -26.34 20.32 -26 21 C-25.4225 20.21625 -24.845 19.4325 -24.25 18.625 C-21.38200369 15.27900431 -19.55340893 14.16452887 -15.16015625 13.69921875 C-14.13792969 13.69535156 -13.11570313 13.69148438 -12.0625 13.6875 C-10.53302734 13.66236328 -10.53302734 13.66236328 -8.97265625 13.63671875 C-5.63129895 14.04505808 -3.73659348 15.08992831 -1 17 C-1.01160156 15.85660156 -1.02320313 14.71320312 -1.03515625 13.53515625 C-1.04453288 12.04427246 -1.05363321 10.55338691 -1.0625 9.0625 C-1.07087891 8.30775391 -1.07925781 7.55300781 -1.08789062 6.77539062 C-1.09652441 4.85005687 -1.05224333 2.92464419 -1 1 C-0.67 0.67 -0.34 0.34 0 0 Z M-18.04296875 20.9765625 C-20.37831823 25.91415854 -19.77963104 31.73120316 -19 37 C-17.16040655 40.51369948 -17.16040655 40.51369948 -14 42 C-9.95192465 42.77516337 -8.31722221 42.17357442 -4.6875 40.1875 C-1.77387654 38.21519158 -1.77387654 38.21519158 -1 35 C-0.58631103 30.7517325 -0.54599829 27.09916203 -2.1875 23.125 C-4.90394774 19.9401992 -7.38211404 18.32357719 -11.5 17.5 C-14.27287433 18.05457487 -16.11565029 18.85957143 -18.04296875 20.9765625 Z " fill="#777777" transform="translate(214,29)"/>
<path d="M0 0 C1.03543945 0.05027344 1.03543945 0.05027344 2.09179688 0.1015625 C3.14463867 0.12863281 3.14463867 0.12863281 4.21875 0.15625 C5.94785123 0.20330037 7.67624893 0.27504377 9.40429688 0.3515625 C12.73763021 7.01822917 16.07096354 13.68489583 19.40429688 20.3515625 C19.87480469 19.32675781 20.3453125 18.30195312 20.83007812 17.24609375 C21.45883638 15.88534827 22.08775091 14.524675 22.71679688 13.1640625 C23.02552734 12.49052734 23.33425781 11.81699219 23.65234375 11.12304688 C27.28713195 3.27955654 27.28713195 3.27955654 29.40429688 0.3515625 C32.59179688 0.0390625 32.59179688 0.0390625 35.40429688 0.3515625 C36.40429688 3.3515625 36.40429688 3.3515625 35.43212891 5.78076172 C34.93052246 6.72967285 34.42891602 7.67858398 33.91210938 8.65625 C33.10193359 10.24566406 33.10193359 10.24566406 32.27539062 11.8671875 C31.12896337 14.07284172 29.97299601 16.27356866 28.80664062 18.46875 C25.31992271 25.35936592 23.70853437 30.92683799 23.60302734 38.67626953 C23.40429688 41.3515625 23.40429688 41.3515625 21.40429688 44.3515625 C18.36523438 44.64453125 18.36523438 44.64453125 14.77929688 44.5390625 C13.59078125 44.51199219 12.40226562 44.48492187 11.17773438 44.45703125 C10.2625 44.42222656 9.34726563 44.38742188 8.40429688 44.3515625 C8.40429688 42.3715625 8.40429688 40.3915625 8.40429688 38.3515625 C11.04429687 38.3515625 13.68429688 38.3515625 16.40429688 38.3515625 C15.29907588 30.6171127 12.79436455 24.2930827 9.27929688 17.3515625 C8.35682153 15.49898804 7.43738505 13.64489623 6.52148438 11.7890625 C6.11526855 10.98339844 5.70905273 10.17773438 5.29052734 9.34765625 C4.40429688 7.3515625 4.40429688 7.3515625 4.40429688 5.3515625 C2.42429688 5.3515625 0.44429687 5.3515625 -1.59570312 5.3515625 C-1.59570312 14.5915625 -1.59570312 23.8315625 -1.59570312 33.3515625 C-3.90570313 33.3515625 -6.21570313 33.3515625 -8.59570312 33.3515625 C-8.67002291 29.29484567 -8.72438445 25.23839404 -8.76049805 21.18115234 C-8.77555734 19.80185032 -8.79600926 18.42259597 -8.82202148 17.04345703 C-8.85852727 15.05782847 -8.87385166 13.07184632 -8.88867188 11.0859375 C-8.90438232 9.89194336 -8.92009277 8.69794922 -8.9362793 7.46777344 C-8.27269557 1.39610128 -5.98874694 -0.11572458 0 0 Z " fill="#686A69" transform="translate(231.595703125,41.6484375)"/>
<path d="M0 0 C10.56 0 21.12 0 32 0 C32 1.98 32 3.96 32 6 C29.14576808 6.02718316 26.29179985 6.04692705 23.4375 6.0625 C22.23770508 6.07506836 22.23770508 6.07506836 21.01367188 6.08789062 C20.22412109 6.09111328 19.43457031 6.09433594 18.62109375 6.09765625 C17.54492798 6.10551147 17.54492798 6.10551147 16.44702148 6.11352539 C13.2796213 5.96657926 10.13893879 5.44841983 7 5 C7 11.27 7 17.54 7 24 C13.93 24 20.86 24 28 24 C28 24.99 28 25.98 28 27 C21.4 27 14.8 27 8 27 C8 33.27 8 39.54 8 46 C5.36 46 2.72 46 0 46 C0 30.82 0 15.64 0 0 Z " fill="#454645" transform="translate(64,30)"/>
<path d="M0 0 C1.98 0 3.96 0 6 0 C6 10.89 6 21.78 6 33 C3.525 33.495 3.525 33.495 1 34 C-0.8125 32.5625 -0.8125 32.5625 -2 31 C-2.66 31.495 -3.32 31.99 -4 32.5 C-8.70623939 34.8531197 -12.87146575 34.60154229 -17.875 33.1875 C-20 32 -20 32 -22 29 C-22.22705078 26.08911133 -22.22705078 26.08911133 -22.1953125 22.58203125 C-22.18886719 21.32841797 -22.18242188 20.07480469 -22.17578125 18.78320312 C-22.15902344 17.47287109 -22.14226562 16.16253906 -22.125 14.8125 C-22.11496639 13.47722013 -22.1058412 12.14193311 -22.09765625 10.80664062 C-22.07405292 7.53757985 -22.04112594 4.26887972 -22 1 C-20.35 1 -18.7 1 -17 1 C-16.67 9.58 -16.34 18.16 -16 27 C-7.73203468 28.81646356 -7.73203468 28.81646356 -3.984375 26.265625 C-1.09119177 21.5044022 -1.25703601 17.22401519 -1.25 11.75 C-1.21700191 9.74473174 -1.18072778 7.73951376 -1.140625 5.734375 C-1.13337402 4.40744629 -1.13337402 4.40744629 -1.12597656 3.05371094 C-1 1 -1 1 0 0 Z " fill="#757576" transform="translate(148,42)"/>
<path d="M0 0 C9.57 0 19.14 0 29 0 C29 4.95 29 9.9 29 15 C19.43 15.33 9.86 15.66 0 16 C0 10.72 0 5.44 0 0 Z " fill="#1C1E20" transform="translate(19,15)"/>
<path d="M0 0 C0.67675781 -0.02384766 1.35351562 -0.04769531 2.05078125 -0.07226562 C4.03125 -0.06640625 4.03125 -0.06640625 7.5 0.5625 C10.59778138 4.25721694 11.03620879 7.83182961 11.5 12.5625 C10.51 12.5625 9.52 12.5625 8.5 12.5625 C8.17 11.2425 7.84 9.9225 7.5 8.5625 C6.18 8.8925 4.86 9.2225 3.5 9.5625 C3.17 8.2425 2.84 6.9225 2.5 5.5625 C0.52 5.5625 -1.46 5.5625 -3.5 5.5625 C-3.5 14.8025 -3.5 24.0425 -3.5 33.5625 C-5.81 33.5625 -8.12 33.5625 -10.5 33.5625 C-10.57431978 29.50578317 -10.62868133 25.44933154 -10.66479492 21.39208984 C-10.67985422 20.01278782 -10.70030613 18.63353347 -10.72631836 17.25439453 C-10.76282415 15.26876597 -10.77814853 13.28278382 -10.79296875 11.296875 C-10.8086792 10.10288086 -10.82438965 8.90888672 -10.84057617 7.67871094 C-10.07054008 0.63301869 -6.38421783 -0.10336353 0 0 Z " fill="#434645" transform="translate(233.5,41.4375)"/>
<path d="M0 0 C2.31 0.33 4.62 0.66 7 1 C7 1.99 7 2.98 7 4 C7.78375 3.34 8.5675 2.68 9.375 2 C13.51031299 -0.77332446 18.18668483 -0.91958345 23 0 C23.99 0.99 24.98 1.98 26 3 C22.04 3 18.08 3 14 3 C14 3.99 14 4.98 14 6 C12.68799596 7.35432675 11.35368596 8.68733482 10 10 C9.0699111 12.7902667 8.81301231 14.76529542 8.68359375 17.66796875 C8.64169922 18.56064453 8.59980469 19.45332031 8.55664062 20.37304688 C8.49766602 21.76620117 8.49766602 21.76620117 8.4375 23.1875 C8.39431641 24.12787109 8.35113281 25.06824219 8.30664062 26.03710938 C8.20061335 28.35792854 8.09854971 30.67885325 8 33 C5.36 33 2.72 33 0 33 C0 22.11 0 11.22 0 0 Z " fill="#707071" transform="translate(157,42)"/>
<path d="M0 0 C1.66666667 0 3.33333333 0 5 0 C6.97396278 7.14157265 6.60631866 13.45096682 3.24609375 20.11328125 C1.20541715 23.20308312 -0.43282599 24.02713436 -4 25 C-10.25811469 25.64353191 -15.67288331 25.72898168 -21 22 C-23.91722155 19.3745006 -23.99502832 18.06264316 -24.3125 14.0625 C-24.19284463 10.69325673 -23.52190905 8.0438181 -22 5 C-21.34 5 -20.68 5 -20 5 C-19.67 3.68 -19.34 2.36 -19 1 C-17.75450054 3.49099891 -18.00039329 5.04207737 -18.125 7.8125 C-18.17407232 12.05725578 -17.81882525 14.63909297 -15 18 C-11.83062455 19.58468772 -8.45270036 19.42538403 -5 19 C-3.12109566 17.62493901 -3.12109566 17.62493901 -2 16 C-1.34 16 -0.68 16 0 16 C0 10.72 0 5.44 0 0 Z " fill="#666666" transform="translate(118,51)"/>
<path d="M0 0 C0 5.61 0 11.22 0 17 C-5.28 17 -10.56 17 -16 17 C-17.55102187 11.06962226 -18.07170785 7.12297424 -17 1 C-14.54171921 0.83252588 -12.08338135 0.6659856 -9.625 0.5 C-8.92632812 0.45230469 -8.22765625 0.40460937 -7.5078125 0.35546875 C-2.2265625 0 -2.2265625 0 0 0 Z " fill="#1D1E20" transform="translate(19,56)"/>
<path d="M0 0 C2.08984375 0.421875 2.08984375 0.421875 4.58984375 2.109375 C7.60005028 6.75011007 7.00689863 10.14880944 6.08984375 15.421875 C6.41984375 16.411875 6.74984375 17.401875 7.08984375 18.421875 C0.12861105 22.44660755 0.12861105 22.44660755 -3.53515625 22.359375 C-6.42824623 21.2173658 -9.16819716 19.88850428 -11.91015625 18.421875 C-10.92015625 17.431875 -9.93015625 16.441875 -8.91015625 15.421875 C-9.40515625 14.885625 -9.90015625 14.349375 -10.41015625 13.796875 C-12.37757615 10.68179349 -12.50253015 9.05016511 -11.91015625 5.421875 C-8.62048418 0.54042611 -5.6067735 -0.33584667 0 0 Z M-4.91015625 3.421875 C-7.22578712 5.30687771 -7.22578712 5.30687771 -7.16015625 8.421875 C-7.22578712 11.53687229 -7.22578712 11.53687229 -4.91015625 13.421875 C-1.81088806 13.09988534 -1.81088806 13.09988534 1.08984375 12.421875 C1.85701226 9.57109409 1.85701226 9.57109409 2.08984375 6.421875 C1.02639323 4.44157818 1.02639323 4.44157818 -0.91015625 3.421875 C-2.23015625 3.421875 -3.55015625 3.421875 -4.91015625 3.421875 Z " fill="#A9A9A9" transform="translate(283.91015625,29.578125)"/>
<path d="M0 0 C0.125 5.75 0.125 5.75 -1 8 C-1.27758124 11.30894459 -1.44696305 14.61770071 -1.62109375 17.93359375 C-2 21 -2 21 -4 24 C-7.0390625 24.29296875 -7.0390625 24.29296875 -10.625 24.1875 C-11.81351563 24.16042969 -13.00203125 24.13335937 -14.2265625 24.10546875 C-15.14179688 24.07066406 -16.05703125 24.03585938 -17 24 C-17 22.02 -17 20.04 -17 18 C-14.36 18 -11.72 18 -9 18 C-9.144375 17.33613281 -9.28875 16.67226562 -9.4375 15.98828125 C-9.623125 15.10527344 -9.80875 14.22226563 -10 13.3125 C-10.185625 12.44238281 -10.37125 11.57226562 -10.5625 10.67578125 C-10.98972047 8.06287036 -11.07616201 5.64186962 -11 3 C-10.34 3 -9.68 3 -9 3 C-9 2.34 -9 1.68 -9 1 C-8.34 1 -7.68 1 -7 1 C-7 1.99 -7 2.98 -7 4 C-6.21625 3.34 -5.4325 2.68 -4.625 2 C-2 0 -2 0 0 0 Z " fill="#616161" transform="translate(257,62)"/>
<path d="M0 0 C0.85980469 -0.0103125 1.71960938 -0.020625 2.60546875 -0.03125 C3.45753906 -0.0621875 4.30960938 -0.093125 5.1875 -0.125 C9.26408744 0.80399744 10.45770912 1.95755002 12.79296875 5.46875 C13.40634559 9.9215529 13.26224448 14.29746419 13.10546875 18.78125 C13.08291016 19.99876953 13.06035156 21.21628906 13.03710938 22.47070312 C12.97827405 25.47130482 12.89611015 28.46939797 12.79296875 31.46875 C10.81296875 31.46875 8.83296875 31.46875 6.79296875 31.46875 C6.77838623 30.79295898 6.76380371 30.11716797 6.7487793 29.42089844 C6.67421464 26.35294478 6.5775822 23.28606924 6.48046875 20.21875 C6.45791016 19.15527344 6.43535156 18.09179688 6.41210938 16.99609375 C6.37666016 15.97128906 6.34121094 14.94648437 6.3046875 13.890625 C6.27850342 12.94799805 6.25231934 12.00537109 6.2253418 11.03417969 C5.71778916 8.02268161 4.93879347 6.62660393 2.79296875 4.46875 C-0.81168873 3.65560089 -0.81168873 3.65560089 -4.20703125 3.46875 C-2.20703125 0.46875 -2.20703125 0.46875 0 0 Z " fill="#5F6162" transform="translate(173.20703125,43.53125)"/>
<path d="M0 0 C1.65 0 3.3 0 5 0 C5.01458252 0.70608398 5.02916504 1.41216797 5.04418945 2.13964844 C5.11873167 5.34364674 5.21537205 8.54661016 5.3125 11.75 C5.33505859 12.86117187 5.35761719 13.97234375 5.38085938 15.1171875 C5.41630859 16.18710937 5.45175781 17.25703125 5.48828125 18.359375 C5.51446533 19.34389648 5.54064941 20.32841797 5.56762695 21.34277344 C6.06646185 24.4084533 6.80658736 25.81703973 9 28 C11.32817964 28.36760731 13.6618385 28.70241581 16 29 C16.66 29.99 17.32 30.98 18 32 C13.30307828 33.56564057 8.84102005 33.52028828 4.125 32.1875 C2 31 2 31 0 28 C-0.22705078 25.08911133 -0.22705078 25.08911133 -0.1953125 21.58203125 C-0.18886719 20.32841797 -0.18242188 19.07480469 -0.17578125 17.78320312 C-0.15902344 16.47287109 -0.14226562 15.16253906 -0.125 13.8125 C-0.11496639 12.47722013 -0.1058412 11.14193311 -0.09765625 9.80664062 C-0.07405292 6.53757985 -0.04112594 3.26887972 0 0 Z " fill="#2C2E2F" transform="translate(126,43)"/>
<path d="M0 0 C0.99 0.495 0.99 0.495 2 1 C1.67 6.28 1.34 11.56 1 17 C7.93 17 14.86 17 22 17 C22.66 15.35 23.32 13.7 24 12 C28.54865903 8.51592074 31.980841 6.8547948 37.6875 6.9375 C38.89986328 6.95103516 38.89986328 6.95103516 40.13671875 6.96484375 C41.05904297 6.98224609 41.05904297 6.98224609 42 7 C42 7.33 42 7.66 42 8 C39.36 8 36.72 8 34 8 C34.495 10.475 34.495 10.475 35 13 C34.50628906 13.32613281 34.01257813 13.65226562 33.50390625 13.98828125 C32.54291016 14.64376953 32.54291016 14.64376953 31.5625 15.3125 C30.92441406 15.74175781 30.28632812 16.17101562 29.62890625 16.61328125 C27.7114316 18.0034052 27.7114316 18.0034052 27 21 C26.34 21 25.68 21 25 21 C24.34 24.96 23.68 28.92 23 33 C19.95575313 28.43362969 20.87216834 24.43284541 21 19 C14.07 19 7.14 19 0 19 C0 12.73 0 6.46 0 0 Z " fill="#767777" transform="translate(71,35)"/>
<path d="M0 0 C1.32 0 2.64 0 4 0 C4 13.53 4 27.06 4 41 C3.34 41 2.68 41 2 41 C1.67 41.66 1.34 42.32 1 43 C0.34 41.02 -0.32 39.04 -1 37 C-0.505 36.505 -0.505 36.505 0 36 C-0.01177947 33.91503394 -0.11006961 31.83029847 -0.25 29.75 C-0.31703125 28.61046875 -0.3840625 27.4709375 -0.453125 26.296875 C-1.02604058 22.8430125 -2.09417697 20.88947363 -4 18 C-4 17.34 -4 16.68 -4 16 C-3.01 16.33 -2.02 16.66 -1 17 C-0.67 11.39 -0.34 5.78 0 0 Z " fill="#212121" transform="translate(214,31)"/>
<path d="M0 0 C1.03543945 0.05027344 1.03543945 0.05027344 2.09179688 0.1015625 C3.14463867 0.12863281 3.14463867 0.12863281 4.21875 0.15625 C5.94785123 0.20330037 7.67624893 0.27504377 9.40429688 0.3515625 C9.40429688 1.3415625 9.40429688 2.3315625 9.40429688 3.3515625 C4.45429688 3.3515625 -0.49570313 3.3515625 -5.59570312 3.3515625 C-4.93570313 3.6815625 -4.27570313 4.0115625 -3.59570312 4.3515625 C-3.59570312 13.9215625 -3.59570312 23.4915625 -3.59570312 33.3515625 C-5.24570313 33.3515625 -6.89570313 33.3515625 -8.59570312 33.3515625 C-8.67002291 29.29484567 -8.72438445 25.23839404 -8.76049805 21.18115234 C-8.77555734 19.80185032 -8.79600926 18.42259597 -8.82202148 17.04345703 C-8.85852727 15.05782847 -8.87385166 13.07184632 -8.88867188 11.0859375 C-8.90438232 9.89194336 -8.92009277 8.69794922 -8.9362793 7.46777344 C-8.27269557 1.39610128 -5.98874694 -0.11572458 0 0 Z " fill="#646565" transform="translate(231.595703125,41.6484375)"/>
<path d="M0 0 C0.77601563 -0.00257812 1.55203125 -0.00515625 2.3515625 -0.0078125 C4.375 0.125 4.375 0.125 6.375 1.125 C6.375 1.785 6.375 2.445 6.375 3.125 C5.77171875 3.15078125 5.1684375 3.1765625 4.546875 3.203125 C-0.69481501 3.49888587 -0.69481501 3.49888587 -5.0625 6.1875 C-5.578125 6.826875 -6.09375 7.46625 -6.625 8.125 C-7.285 8.125 -7.945 8.125 -8.625 8.125 C-8.955 13.075 -9.285 18.025 -9.625 23.125 C-10.945 23.455 -12.265 23.785 -13.625 24.125 C-15.53006977 18.40979068 -15.4208096 12.24715895 -13.3125 6.625 C-9.56414226 1.07187742 -6.65477488 -0.02225677 0 0 Z " fill="#17191A" transform="translate(202.625,43.875)"/>
<path d="M0 0 C1.65 1.65 3.3 3.3 5 5 C6.32 3.35 7.64 1.7 9 0 C9.66 0.33 10.32 0.66 11 1 C10.360625 1.763125 9.72125 2.52625 9.0625 3.3125 C6.12356528 7.142021 5.86249212 9.86578953 5.875 14.5625 C5.87242187 15.53316406 5.86984375 16.50382812 5.8671875 17.50390625 C5.83349047 19.99952953 5.83349047 19.99952953 7 22 C9.58450333 19.41549667 9.31109063 18.08927799 9.5 14.5 C9.77777778 9.22222222 9.77777778 9.22222222 12 7 C12.04898438 7.96421875 12.09796875 8.9284375 12.1484375 9.921875 C12.22320312 11.18515625 12.29796875 12.4484375 12.375 13.75 C12.44460937 15.00296875 12.51421875 16.2559375 12.5859375 17.546875 C12.95323304 20.60998121 13.39711286 22.41974266 15 25 C12.525 24.01 12.525 24.01 10 23 C10 24.65 10 26.3 10 28 C8 28 8 28 5.875 26 C5.25625 25.34 4.6375 24.68 4 24 C4.33 25.98 4.66 27.96 5 30 C4.34 30 3.68 30 3 30 C2.98018066 29.23333008 2.96036133 28.46666016 2.93994141 27.67675781 C2.84464554 24.20082781 2.73498402 20.72549494 2.625 17.25 C2.57859375 15.44015625 2.57859375 15.44015625 2.53125 13.59375 C2.49257812 12.43359375 2.45390625 11.2734375 2.4140625 10.078125 C2.3826416 9.00981445 2.3512207 7.94150391 2.31884766 6.84082031 C2.00799852 4.07126402 1.42329468 2.36716379 0 0 Z " fill="#B6B7B9" transform="translate(183,45)"/>
<path d="M0 0 C1.98 0 3.96 0 6 0 C7 3 7 3 6.00390625 5.48046875 C5.52824219 6.37378906 5.05257813 7.26710938 4.5625 8.1875 C4.08941406 9.08855469 3.61632812 9.98960938 3.12890625 10.91796875 C2.57009766 11.94857422 2.57009766 11.94857422 2 13 C1.34 13 0.68 13 0 13 C-0.2475 13.804375 -0.495 14.60875 -0.75 15.4375 C-1.36875 16.7059375 -1.36875 16.7059375 -2 18 C-4.078125 18.66015625 -4.078125 18.66015625 -6 19 C-5.64134677 11.58783319 -3.64079463 6.43520528 0 0 Z " fill="#404040" transform="translate(261,42)"/>
<path d="M0 0 C1.32 0 2.64 0 4 0 C4 1.65 4 3.3 4 5 C3.34 5 2.68 5 2 5 C2.18464366 9.34184202 2.18464366 9.34184202 4 13 C4.08631874 14.34267413 4.10706473 15.68974322 4.09765625 17.03515625 C4.09282227 18.24848633 4.09282227 18.24848633 4.08789062 19.48632812 C4.07951172 20.33646484 4.07113281 21.18660156 4.0625 22.0625 C4.05798828 22.91650391 4.05347656 23.77050781 4.04882812 24.65039062 C4.03700373 26.76695663 4.01906769 28.88348685 4 31 C2.68 31 1.36 31 0 31 C0 20.77 0 10.54 0 0 Z " fill="#131314" transform="translate(159,44)"/>
<path d="M0 0 C0.33 0 0.66 0 1 0 C1.02684679 2.64590014 1.04676357 5.29153096 1.0625 7.9375 C1.07087891 8.69224609 1.07925781 9.44699219 1.08789062 10.22460938 C1.09652441 12.14994313 1.05224333 14.07535581 1 16 C-0.74506615 17.74506615 -3.19039143 17.23282784 -5.56640625 17.31640625 C-6.69111328 17.35830078 -7.81582031 17.40019531 -8.97460938 17.44335938 C-10.15861328 17.48267578 -11.34261719 17.52199219 -12.5625 17.5625 C-13.75037109 17.60568359 -14.93824219 17.64886719 -16.16210938 17.69335938 C-19.10794784 17.79983546 -22.0538743 17.90184841 -25 18 C-24.278125 18.55945313 -23.55625 19.11890625 -22.8125 19.6953125 C-15.32204594 26.16623254 -15.32204594 26.16623254 -14.3359375 31.78125 C-14.37105435 35.23674775 -14.55574047 38.57426542 -15 42 C-15.33 42 -15.66 42 -16 42 C-15.91685547 40.78376953 -15.91685547 40.78376953 -15.83203125 39.54296875 C-15.80097332 34.20721659 -15.86288855 29.89651761 -19.515625 25.79296875 C-21.46686239 23.8340531 -23.52802687 22.0375845 -25.62890625 20.2421875 C-26.80259766 19.13230469 -26.80259766 19.13230469 -28 18 C-28 17.01 -28 16.02 -28 15 C-18.76 15 -9.52 15 0 15 C0 10.05 0 5.1 0 0 Z " fill="#B1B1B3" transform="translate(48,15)"/>
<path d="M0 0 C1.65 0 3.3 0 5 0 C5 6.93 5 13.86 5 21 C3.35 21.33 1.7 21.66 0 22 C0 14.74 0 7.48 0 0 Z " fill="#181818" transform="translate(148,44)"/>
<path d="M0 0 C0.99 0 1.98 0 3 0 C3.0093457 0.64026123 3.01869141 1.28052246 3.02832031 1.94018555 C3.08218847 4.85672375 3.16580199 7.77168625 3.25 10.6875 C3.26417969 11.69490234 3.27835938 12.70230469 3.29296875 13.74023438 C3.44113472 18.22966331 3.55340609 21.22277325 5.8203125 25.16796875 C8.74462086 27.62585516 11.26706988 27.58522999 15 28 C15.66 28.99 16.32 29.98 17 31 C14.32356043 31.89214652 12.74615622 32.13540211 10 32.125 C8.9790625 32.12886719 8.9790625 32.12886719 7.9375 32.1328125 C6 32 6 32 3 31 C1.1290217 27.46597298 0.76727592 24.5434883 0.83984375 20.5859375 C0.85080078 19.57789062 0.86175781 18.56984375 0.87304688 17.53125 C0.89431641 16.4896875 0.91558594 15.448125 0.9375 14.375 C0.97192088 12.29954853 1.00206421 10.22402044 1.02734375 8.1484375 C1.04531006 7.23239746 1.06327637 6.31635742 1.08178711 5.37255859 C1.10696148 2.84862387 1.10696148 2.84862387 0 0 Z " fill="#141616" transform="translate(127,44)"/>
<path d="M0 0 C2.31 0.33 4.62 0.66 7 1 C7 1.99 7 2.98 7 4 C8.32 3.01 9.64 2.02 11 1 C11.66 1.33 12.32 1.66 13 2 C11.35 3.32 9.7 4.64 8 6 C7.34 5.67 6.68 5.34 6 5 C6 4.01 6 3.02 6 2 C4.68 2 3.36 2 2 2 C2 12.23 2 22.46 2 33 C1.34 33 0.68 33 0 33 C0 22.11 0 11.22 0 0 Z " fill="#B8B8B9" transform="translate(157,42)"/>
<path d="M0 0 C2.475 0.99 2.475 0.99 5 2 C5 2.66 5 3.32 5 4 C11.93 3.01 11.93 3.01 19 2 C18 6 18 6 16 7.25 C11.29465153 8.42633712 6.35289126 8.94115651 1.7734375 7.109375 C0 6 0 6 -0.8125 4 C-1 2 -1 2 0 0 Z " fill="#3E3F40" transform="translate(193,68)"/>
<path d="M0 0 C0.66 0.33 1.32 0.66 2 1 C2 8.26 2 15.52 2 23 C0.68 23 -0.64 23 -2 23 C-2.0582253 19.91674642 -2.09367134 16.83363495 -2.125 13.75 C-2.14175781 12.87730469 -2.15851563 12.00460938 -2.17578125 11.10546875 C-2.18222656 10.26113281 -2.18867188 9.41679688 -2.1953125 8.546875 C-2.20578613 7.77182617 -2.21625977 6.99677734 -2.22705078 6.19824219 C-1.97326556 3.74116461 -1.22444152 2.12688458 0 0 Z " fill="#17191B" transform="translate(184,52)"/>
<path d="M0 0 C1.66666667 0 3.33333333 0 5 0 C5.82020418 2.88711871 6.16181621 5.50013311 6.1875 8.5 C6.20167969 9.2528125 6.21585937 10.005625 6.23046875 10.78125 C5.97417278 13.24864173 5.22845153 14.86356256 4 17 C3.34 17 2.68 17 2 17 C1.67 17.66 1.34 18.32 1 19 C0.34 18.67 -0.32 18.34 -1 18 C-0.83628906 17.48953125 -0.67257813 16.9790625 -0.50390625 16.453125 C0.16698481 13.18708172 0.0933456 10.0813253 0.0625 6.75 C0.05347656 5.48671875 0.04445313 4.2234375 0.03515625 2.921875 C0.02355469 1.95765625 0.01195313 0.9934375 0 0 Z " fill="#1D2020" transform="translate(118,51)"/>
<path d="M0 0 C0.125 5.75 0.125 5.75 -1 8 C-1.66 8 -2.32 8 -3 8 C-3.33 12.29 -3.66 16.58 -4 21 C-4.33 21 -4.66 21 -5 21 C-5.33 17.37 -5.66 13.74 -6 10 C-6.99 9.67 -7.98 9.34 -9 9 C-10.1875 5.9375 -10.1875 5.9375 -11 3 C-10.34 3 -9.68 3 -9 3 C-9 2.34 -9 1.68 -9 1 C-8.34 1 -7.68 1 -7 1 C-7 1.99 -7 2.98 -7 4 C-5.824375 3.01 -5.824375 3.01 -4.625 2 C-2 0 -2 0 0 0 Z " fill="#28282A" transform="translate(257,62)"/>
<path d="M0 0 C0.99 0 1.98 0 3 0 C3 13.53 3 27.06 3 41 C2.34 41 1.68 41 1 41 C0.67 41.66 0.34 42.32 0 43 C-0.66 41.02 -1.32 39.04 -2 37 C-1.01 36.34 -0.02 35.68 1 35 C1.22107787 32.2114711 1.28107535 29.65346819 1.1875 26.875 C1.17396484 26.12089844 1.16042969 25.36679687 1.14648438 24.58984375 C1.11109985 22.72625873 1.05729167 20.86304022 1 19 C0.67 19 0.34 19 0 19 C0 12.73 0 6.46 0 0 Z " fill="#181818" transform="translate(215,31)"/>
<path d="M0 0 C2.27024968 -0.08097324 4.54132075 -0.13917704 6.8125 -0.1875 C8.07707031 -0.22230469 9.34164062 -0.25710937 10.64453125 -0.29296875 C14 0 14 0 15.90625 1.28125 C17.63729587 4.00146495 17.70216871 6.84298828 18 10 C17.01 10 16.02 10 15 10 C14.67 8.68 14.34 7.36 14 6 C12.68 6.33 11.36 6.66 10 7 C9.67 5.68 9.34 4.36 9 3 C6.69 3 4.38 3 2 3 C2 2.34 2 1.68 2 1 C1.34 0.67 0.68 0.34 0 0 Z " fill="#414343" transform="translate(227,44)"/>
<path d="M0 0 C4.60388896 -0.32120156 7.38920743 0.00820044 11 3 C12.16190374 6.31972498 12.12383849 7.62848454 11 11 C7.91871267 13.50802457 5.75967594 14.88083515 1.8125 15.5 C-1 15 -1 15 -2.875 13 C-3.24625 12.34 -3.6175 11.68 -4 11 C-3.06027344 11.14308594 -3.06027344 11.14308594 -2.1015625 11.2890625 C-0.87566406 11.45535156 -0.87566406 11.45535156 0.375 11.625 C1.18710937 11.74101563 1.99921875 11.85703125 2.8359375 11.9765625 C3.55007813 11.98429687 4.26421875 11.99203125 5 12 C7.31563087 10.11499729 7.31563087 10.11499729 7.25 7 C7.31563087 3.88500271 7.31563087 3.88500271 5 2 C2.42938689 1.35232207 2.42938689 1.35232207 0 1 C0 0.67 0 0.34 0 0 Z " fill="#525252" transform="translate(279,31)"/>
<path d="M0 0 C0.78503906 0.00644531 1.57007813 0.01289063 2.37890625 0.01953125 C4.4375 0.1875 4.4375 0.1875 6.4375 1.1875 C6.1075 1.8475 5.7775 2.5075 5.4375 3.1875 C4.7775 3.1875 4.1175 3.1875 3.4375 3.1875 C4.0975 3.8475 4.7575 4.5075 5.4375 5.1875 C5.5625 8.3125 5.5625 8.3125 5.4375 11.1875 C4.4475 11.6825 4.4475 11.6825 3.4375 12.1875 C3.47875 11.23875 3.52 10.29 3.5625 9.3125 C3.78723818 6.08505144 3.78723818 6.08505144 1.4375 4.1875 C-2.15929066 4.51076553 -2.15929066 4.51076553 -5.5625 5.1875 C-5.8925 7.1675 -6.2225 9.1475 -6.5625 11.1875 C-7.2225 10.8575 -7.8825 10.5275 -8.5625 10.1875 C-8.07421875 4.1328125 -8.07421875 4.1328125 -7.5625 2.1875 C-4.404724 0.082316 -3.60852866 -0.06539344 0 0 Z " fill="#9A9A9A" transform="translate(281.5625,29.8125)"/>
<path d="M0 0 C0.33 0 0.66 0 1 0 C1 6.27 1 12.54 1 19 C-0.32 18.34 -1.64 17.68 -3 17 C-2.34 18.65 -1.68 20.3 -1 22 C-4.465 20.02 -4.465 20.02 -8 18 C-6.68 17.67 -5.36 17.34 -4 17 C-4 16.34 -4 15.68 -4 15 C-5.79158489 14.97303635 -7.58328473 14.95362083 -9.375 14.9375 C-10.87160156 14.92009766 -10.87160156 14.92009766 -12.3984375 14.90234375 C-14.98432453 14.81993398 -14.98432453 14.81993398 -17 16 C-17.66 15.34 -18.32 14.68 -19 14 C-16.32344199 12.66172099 -14.17565948 12.79421444 -11.1875 12.75 C-10.14980469 12.72421875 -9.11210937 12.6984375 -8.04296875 12.671875 C-5 13 -5 13 0 16 C0 10.72 0 5.44 0 0 Z " fill="#969696" transform="translate(213,30)"/>
<path d="M0 0 C2.84439863 2.84439863 2.44167057 5.10101926 2.6875 9.0625 C2.77386719 10.33222656 2.86023438 11.60195313 2.94921875 12.91015625 C2.96597656 13.92980469 2.98273438 14.94945313 3 16 C2.67 16.33 2.34 16.66 2 17 C1.95919217 18.99958364 1.95745644 21.00045254 2 23 C0 20 0 20 0 18 C-0.639375 18.33 -1.27875 18.66 -1.9375 19 C-6.01236841 20.33056928 -9.75190425 20.16659199 -14 20 C-14 19.34 -14 18.68 -14 18 C-12.783125 18.061875 -11.56625 18.12375 -10.3125 18.1875 C-6.41925275 18.1875 -4.08597952 17.52489234 -1 15 C0.09506492 11.71480525 0.09960608 9.26336585 0.0625 5.8125 C0.04896484 4.18248047 0.04896484 4.18248047 0.03515625 2.51953125 C0.01775391 1.27236328 0.01775391 1.27236328 0 0 Z " fill="#949494" transform="translate(212,52)"/>
<path d="M0 0 C0.66 0 1.32 0 2 0 C2.19448477 2.12437212 2.38038289 4.24953191 2.5625 6.375 C2.66691406 7.55835938 2.77132812 8.74171875 2.87890625 9.9609375 C3 13 3 13 2 15 C1.01 15 0.02 15 -1 15 C-2.58706088 11.82587823 -2.28477127 8.46361333 -2 5 C-1 2 -1 2 0 0 Z " fill="#262626" transform="translate(96,56)"/>
<path d="M0 0 C4.875 2.625 4.875 2.625 6 6 C5.01 7.485 5.01 7.485 4 9 C3.67 9 3.34 9 3 9 C3.02320312 9.77085938 3.04640625 10.54171875 3.0703125 11.3359375 C3.09738281 12.84027344 3.09738281 12.84027344 3.125 14.375 C3.14820312 15.37273438 3.17140625 16.37046875 3.1953125 17.3984375 C3 20 3 20 1 22 C1.02320312 21.32195312 1.04640625 20.64390625 1.0703125 19.9453125 C1.18549755 14.00505474 0.734567 8.67787892 -0.66015625 2.8984375 C-0.77230469 2.27195313 -0.88445312 1.64546875 -1 1 C-0.67 0.67 -0.34 0.34 0 0 Z " fill="#626464" transform="translate(116,45)"/>
<path d="M0 0 C0.33 0 0.66 0 1 0 C1.04898438 0.96421875 1.09796875 1.9284375 1.1484375 2.921875 C1.22320312 4.18515625 1.29796875 5.4484375 1.375 6.75 C1.44460937 8.00296875 1.51421875 9.2559375 1.5859375 10.546875 C1.95323304 13.60998121 2.39711286 15.41974266 4 18 C1.525 17.01 1.525 17.01 -1 16 C-1 17.65 -1 19.3 -1 21 C-1.66 21 -2.32 21 -3 21 C-3.625 18.125 -3.625 18.125 -4 15 C-3.34 14.34 -2.68 13.68 -2 13 C-1.57403392 10.40423759 -1.57403392 10.40423759 -1.4375 7.5 C-1.09516616 2.19033233 -1.09516616 2.19033233 0 0 Z " fill="#8A8C8D" transform="translate(194,52)"/>
<path d="M0 0 C0.33 0 0.66 0 1 0 C1 1.65 1 3.3 1 5 C0.34 5 -0.32 5 -1 5 C-0.83628906 5.97066406 -0.67257813 6.94132812 -0.50390625 7.94140625 C0.11628841 12.28276888 0.11126417 16.55997771 0.0625 20.9375 C0.05798828 21.71673828 0.05347656 22.49597656 0.04882812 23.29882812 C0.03716908 25.19925268 0.01923877 27.09963706 0 29 C-0.66 29 -1.32 29 -2 29 C-2 20.09 -2 11.18 -2 2 C-1.34 2 -0.68 2 0 2 C0 1.34 0 0.68 0 0 Z " fill="#1B1B1D" transform="translate(162,44)"/>
<path d="M0 0 C0.33 0.66 0.66 1.32 1 2 C2.65 1.67 4.3 1.34 6 1 C5.3125 3.375 5.3125 3.375 4 6 C1.375 7.3125 1.375 7.3125 -1 8 C-1.66 7.34 -2.32 6.68 -3 6 C-5.43252661 5.53837573 -5.43252661 5.53837573 -8.125 5.375 C-9.03507812 5.30023438 -9.94515625 5.22546875 -10.8828125 5.1484375 C-11.58148438 5.09945312 -12.28015625 5.05046875 -13 5 C-13 4.34 -13 3.68 -13 3 C-11.96939453 3.05220703 -11.96939453 3.05220703 -10.91796875 3.10546875 C-10.01691406 3.13253906 -9.11585937 3.15960938 -8.1875 3.1875 C-7.29417969 3.22230469 -6.40085937 3.25710937 -5.48046875 3.29296875 C-2.58352485 2.95081002 -1.77444972 2.24606427 0 0 Z " fill="#5B5C5D" transform="translate(116,67)"/>
<path d="M0 0 C1 3 1 3 1 6 C4.39914975 4.86695008 5.05254451 3.87481525 7 1 C6.39301257 5.12751449 4.96189209 8.3321148 3 12 C2.67 10.68 2.34 9.36 2 8 C0.01508358 8.26676204 0.01508358 8.26676204 -2 9 C-2.33 9.99 -2.66 10.98 -3 12 C-3.66 12 -4.32 12 -5 12 C-5.33 10.35 -5.66 8.7 -6 7 C-5.01 7 -4.02 7 -3 7 C-2.01 4.69 -1.02 2.38 0 0 Z " fill="#949494" transform="translate(255,54)"/>
<path d="M0 0 C0 0.33 0 0.66 0 1 C-2.64 1 -5.28 1 -8 1 C-7.67 2.65 -7.34 4.3 -7 6 C-8.98 7.32 -10.96 8.64 -13 10 C-12.34 8.02 -11.68 6.04 -11 4 C-14.54518884 5.39759905 -14.54518884 5.39759905 -18 7 C-16.98485266 3.7289697 -15.96748264 2.98141865 -12.9375 1.25 C-8.67027633 -0.41547759 -4.51423272 -0.27638159 0 0 Z " fill="#7D7D7D" transform="translate(113,42)"/>
<path d="M0 0 C0.77601563 -0.00257812 1.55203125 -0.00515625 2.3515625 -0.0078125 C4.375 0.125 4.375 0.125 6.375 1.125 C6.375 1.785 6.375 2.445 6.375 3.125 C5.77171875 3.17398438 5.1684375 3.22296875 4.546875 3.2734375 C3.34804687 3.38558594 3.34804687 3.38558594 2.125 3.5 C0.94164062 3.60441406 0.94164062 3.60441406 -0.265625 3.7109375 C-2.710877 4.14007113 -4.47336903 4.91100638 -6.625 6.125 C-6.625 5.135 -6.625 4.145 -6.625 3.125 C-7.285 3.125 -7.945 3.125 -8.625 3.125 C-8.625 2.465 -8.625 1.805 -8.625 1.125 C-5.68397771 0.27895249 -3.05733732 -0.01022521 0 0 Z " fill="#252728" transform="translate(202.625,43.875)"/>
<path d="M0 0 C1.46109063 0.25554054 2.91888096 0.53000372 4.375 0.8125 C5.59316406 1.03873047 5.59316406 1.03873047 6.8359375 1.26953125 C9 2 9 2 11 5 C8.35559361 5.8814688 6.71939248 6.16174818 4 6.1875 C3.319375 6.20167969 2.63875 6.21585937 1.9375 6.23046875 C0 6 0 6 -3 4 C-2.34 4 -1.68 4 -1 4 C-0.67 2.68 -0.34 1.36 0 0 Z " fill="#414242" transform="translate(133,70)"/>
<path d="M0 0 C0.33 0 0.66 0 1 0 C1.33 1.65 1.66 3.3 2 5 C2.33 5 2.66 5 3 5 C3.33 9.95 3.66 14.9 4 20 C2.02 20.99 2.02 20.99 0 22 C0 14.74 0 7.48 0 0 Z " fill="#272727" transform="translate(148,44)"/>
<path d="M0 0 C0 0.66 0 1.32 0 2 C-1.32 2.33 -2.64 2.66 -4 3 C-4 3.66 -4 4.32 -4 5 C-6.98879276 5.85394079 -8.71763271 6.07700926 -11.75 5.25 C-14 4 -14 4 -15 1 C-13.84371094 1.01740234 -13.84371094 1.01740234 -12.6640625 1.03515625 C-11.15972656 1.04869141 -11.15972656 1.04869141 -9.625 1.0625 C-8.12839844 1.07990234 -8.12839844 1.07990234 -6.6015625 1.09765625 C-4.04433149 1.00166409 -2.49131904 0 0 0 Z " fill="#505050" transform="translate(289,46)"/>
<path d="M0 0 C-0.375 1.9375 -0.375 1.9375 -1 4 C-3.64458379 5.32229189 -5.67761301 5.09677194 -8.625 5.0625 C-9.62789062 5.05347656 -10.63078125 5.04445313 -11.6640625 5.03515625 C-12.43492187 5.02355469 -13.20578125 5.01195313 -14 5 C-11.35493484 3.23662322 -9.40786033 2.3439149 -6.4375 1.375 C-5.65246094 1.11460938 -4.86742187 0.85421875 -4.05859375 0.5859375 C-2 0 -2 0 0 0 Z " fill="#282929" transform="translate(212,70)"/>
<path d="M0 0 C0.99 0.33 1.98 0.66 3 1 C3 2.65 3 4.3 3 6 C0.69 6.33 -1.62 6.66 -4 7 C-2.92598892 4.08482708 -2.22189824 2.22189824 0 0 Z " fill="#2E3031" transform="translate(193,46)"/>
<path d="M0 0 C2 3 2 3 3 6 C2.01 6.66 1.02 7.32 0 8 C-0.99 7.67 -1.98 7.34 -3 7 C-1.68 6.67 -0.36 6.34 1 6 C1 5.34 1 4.68 1 4 C0.071875 4.37125 -0.85625 4.7425 -1.8125 5.125 C-2.864375 5.41375 -3.91625 5.7025 -5 6 C-5.99 5.34 -6.98 4.68 -8 4 C-6.865625 3.525625 -5.73125 3.05125 -4.5625 2.5625 C-1.24259834 1.36377917 -1.24259834 1.36377917 0 0 Z " fill="#BABABA" transform="translate(288,42)"/>
<path d="M0 0 C3.96 0 7.92 0 12 0 C11.01 1.485 11.01 1.485 10 3 C8.0546875 3.29296875 8.0546875 3.29296875 5.875 3.1875 C4.59625 3.125625 3.3175 3.06375 2 3 C2 2.34 2 1.68 2 1 C1.34 0.67 0.68 0.34 0 0 Z " fill="#151616" transform="translate(227,44)"/>
<path d="M0 0 C1.32 0 2.64 0 4 0 C3.49396008 2.16874252 3.00016187 3.99967627 2 6 C0.68 6 -0.64 6 -2 6 C-1.125 1.125 -1.125 1.125 0 0 Z " fill="#212121" transform="translate(98,46)"/>
<path d="M0 0 C0.33 0 0.66 0 1 0 C1.33 2.97 1.66 5.94 2 9 C2.99 9 3.98 9 5 9 C4.6875 10.9375 4.6875 10.9375 4 13 C3.01 13.33 2.02 13.66 1 14 C-0.04976964 10.85069107 -0.10131595 8.61185544 -0.0625 5.3125 C-0.05347656 4.31863281 -0.04445312 3.32476562 -0.03515625 2.30078125 C-0.02355469 1.54152344 -0.01195312 0.78226563 0 0 Z " fill="#2F3132" transform="translate(188,54)"/>
<path d="M0 0 C0.66 0 1.32 0 2 0 C2 4.62 2 9.24 2 14 C-0.74777401 8.50445198 -1.0196484 6.00459614 0 0 Z " fill="#29292B" transform="translate(2,57)"/>
<path d="M0 0 C3.625 -0.1875 3.625 -0.1875 7 0 C7 0.99 7 1.98 7 3 C4.03 3 1.06 3 -2 3 C-1.34 2.01 -0.68 1.02 0 0 Z " fill="#191919" transform="translate(171,44)"/>
<path d="M0 0 C5.75 -0.125 5.75 -0.125 8 1 C8 1.66 8 2.32 8 3 C5.36 3 2.72 3 0 3 C0 2.01 0 1.02 0 0 Z " fill="#171717" transform="translate(201,44)"/>
<path d="M0 0 C3.53677664 -0.32152515 5.3962104 -0.4131192 8.375 1.625 C10.4131192 4.6037896 10.32152515 6.46322336 10 10 C9.731875 9.4225 9.46375 8.845 9.1875 8.25 C7.9402597 5.88680786 6.82496349 3.96014597 5 2 C2.40144267 1.1957792 2.40144267 1.1957792 0 1 C0 0.67 0 0.34 0 0 Z " fill="#1E1E1E" transform="translate(279,31)"/>
<path d="M0 0 C2.475 0.99 2.475 0.99 5 2 C4.67 3.32 4.34 4.64 4 6 C1.525 5.01 1.525 5.01 -1 4 C-0.67 2.68 -0.34 1.36 0 0 Z " fill="#1F2122" transform="translate(193,68)"/>
<path d="M0 0 C0.66 0.66 1.32 1.32 2 2 C1.625 4.625 1.625 4.625 1 7 C0.01 6.67 -0.98 6.34 -2 6 C-2.33 5.01 -2.66 4.02 -3 3 C-2.01 2.01 -1.02 1.02 0 0 Z " fill="#1F2221" transform="translate(131,67)"/>
<path d="M0 0 C-0.33 0.66 -0.66 1.32 -1 2 C-3.64 2 -6.28 2 -9 2 C-9.33 1.34 -9.66 0.68 -10 0 C-6.30458414 -0.95024979 -3.69541586 -0.95024979 0 0 Z " fill="#181A1B" transform="translate(116,73)"/>
<path d="M0 0 C1.32 1.32 2.64 2.64 4 4 C3.01 4.99 2.02 5.98 1 7 C-0.32 6.34 -1.64 5.68 -3 5 C-2.67 4.01 -2.34 3.02 -2 2 C-1.34 2 -0.68 2 0 2 C0 1.34 0 0.68 0 0 Z " fill="#424242" transform="translate(99,67)"/>
<path d="M0 0 C1.98 0 3.96 0 6 0 C6.33 0.99 6.66 1.98 7 3 C6.34 3.66 5.68 4.32 5 5 C5 4.01 5 3.02 5 2 C3.02 2.33 1.04 2.66 -1 3 C-0.67 2.01 -0.34 1.02 0 0 Z " fill="#B9B9B9" transform="translate(261,42)"/>
<path d="M0 0 C1.98 0 3.96 0 6 0 C6 0.99 6 1.98 6 3 C4.02 3 2.04 3 0 3 C0 2.01 0 1.02 0 0 Z " fill="#1C1E1D" transform="translate(134,72)"/>
<path d="M0 0 C0.66 0 1.32 0 2 0 C2.33 1.98 2.66 3.96 3 6 C2.01 6.66 1.02 7.32 0 8 C-0.79953138 4.71303767 -1.09658936 3.28976808 0 0 Z " fill="#1F2120" transform="translate(245,56)"/>
<path d="M0 0 C-0.33 2.64 -0.66 5.28 -1 8 C-4 4.25 -4 4.25 -4 2 C-1 0 -1 0 0 0 Z " fill="#5D5F5E" transform="translate(242,49)"/>
<path d="M0 0 C0.66 0 1.32 0 2 0 C1.34 2.64 0.68 5.28 0 8 C-0.66 7.67 -1.32 7.34 -2 7 C-1.125 1.125 -1.125 1.125 0 0 Z " fill="#1F1F1F" transform="translate(275,33)"/>
</svg>
