<svg version="1.1" id="Layer_1" xmlns="http://www.w3.org/2000/svg" xmlns:xlink="http://www.w3.org/1999/xlink" x="0px" y="0px"
	 width="100%" viewBox="0 0 1254 1254" enable-background="new 0 0 1254 1254" xml:space="preserve">
<path fill="#1C1E22" opacity="1.000000" stroke="none" 
	d="
M0.999996,1187.000000 
	C1.000000,814.635742 1.000000,442.271515 1.366374,69.386681 
	C2.465862,67.652412 3.682749,66.503571 3.855499,65.214775 
	C5.227619,54.978123 9.629247,45.879974 15.809564,38.020767 
	C21.440004,30.860817 28.559597,24.869453 35.043652,18.383844 
	C43.043251,10.382326 52.884945,6.088676 63.835117,3.861761 
	C65.674660,3.487655 67.284187,1.982531 69.000000,0.999999 
	C441.364258,1.000000 813.728516,1.000000 1186.632080,1.386321 
	C1191.198853,3.144718 1195.355103,4.228137 1199.224121,5.954950 
	C1205.383789,8.704061 1212.137573,10.924838 1217.220947,15.097845 
	C1225.285034,21.717785 1232.583618,29.414251 1239.417603,37.335472 
	C1243.615967,42.201733 1246.760742,48.134750 1249.576660,53.975430 
	C1251.214966,57.373676 1251.077393,61.588734 1252.112549,65.333000 
	C1252.666138,67.335045 1254.011841,69.118073 1255.000000,70.999985 
	C1255.000000,442.697601 1255.000000,814.395203 1254.632324,1186.617310 
	C1253.331665,1190.035156 1252.590332,1193.007690 1251.430542,1195.807129 
	C1247.593872,1205.067871 1243.041382,1213.769043 1237.138916,1222.108643 
	C1231.368286,1230.261963 1223.656616,1235.531128 1216.378662,1241.581177 
	C1213.551147,1243.931641 1210.009644,1245.657104 1206.524048,1246.928955 
	C1200.890259,1248.984863 1195.002930,1250.337524 1189.300781,1252.223145 
	C1188.333496,1252.542847 1187.757080,1254.044434 1187.000000,1255.000000 
	C814.635742,1255.000000 442.271515,1255.000000 69.406403,1254.612061 
	C67.921936,1253.498047 67.040428,1252.457764 65.937340,1252.099487 
	C60.622627,1250.373047 54.968842,1249.422119 49.970528,1247.062500 
	C44.558525,1244.507568 39.896805,1240.412231 34.624729,1237.501465 
	C25.467981,1232.446045 19.335396,1224.507080 14.019876,1215.997314 
	C8.926368,1207.842651 4.428621,1199.260132 3.748240,1189.270142 
	C3.692718,1188.454834 1.955689,1187.754028 0.999996,1187.000000 
M497.600891,1123.809326 
	C498.063568,1123.027222 498.926758,1122.246948 498.930206,1121.462891 
	C499.011536,1103.022095 499.037445,1084.580444 498.909058,1066.140259 
	C498.901672,1065.080566 497.498322,1064.030762 496.227020,1062.423096 
	C495.846375,1060.802734 495.477783,1059.179565 495.083130,1057.562622 
	C491.716156,1043.767578 483.715576,1034.114136 469.438263,1031.463867 
	C456.184021,1029.003784 443.860687,1031.143799 434.843475,1042.661133 
	C434.314575,1043.336670 433.495514,1043.784912 431.823975,1045.138794 
	C431.823975,1040.311279 431.823975,1036.618530 431.823975,1032.943115 
	C424.869141,1032.943115 418.618011,1032.943115 412.255066,1032.943115 
	C412.255066,1063.525513 412.255066,1093.744751 412.255066,1123.922729 
	C419.006409,1123.922729 425.399200,1123.922729 432.230835,1123.922729 
	C432.230835,1108.529175 432.126343,1093.547607 432.298828,1078.569336 
	C432.346344,1074.441650 432.878479,1070.246582 433.786163,1066.217163 
	C435.664673,1057.878174 443.255188,1051.338501 451.695587,1050.274780 
	C461.432159,1049.047974 469.725189,1052.447754 473.198425,1060.266357 
	C475.089478,1064.523315 475.902130,1069.555054 475.995056,1074.261230 
	C476.320343,1090.733032 476.121124,1107.214966 476.121124,1123.927246 
	C483.219910,1123.927246 489.997528,1123.927246 497.600891,1123.809326 
M877.996155,553.937256 
	C878.618591,547.449585 879.400391,540.969727 879.722839,534.467224 
	C879.783813,533.236267 878.020630,531.914856 876.497375,530.432617 
	C875.270691,525.832947 874.287659,521.151611 872.776733,516.647278 
	C864.619202,492.328064 847.905334,475.564514 824.864441,465.561218 
	C809.868774,459.050812 793.735840,457.251526 777.468262,461.220856 
	C773.435364,462.204895 771.306396,461.023865 769.185913,457.336975 
	C751.621277,426.796570 733.787292,396.411133 716.065491,365.960938 
	C705.460022,347.738251 694.940308,329.465546 684.294983,311.266205 
	C682.986084,309.028503 682.361084,307.560913 684.629395,305.286987 
	C696.562317,293.324432 703.693909,278.906158 707.105957,262.293854 
	C710.397583,246.267975 709.246033,230.653229 702.835571,215.950378 
	C690.733521,188.193268 670.170166,170.275604 639.698486,164.518219 
	C616.715210,160.175720 596.170410,165.726913 577.539124,178.979736 
	C561.758362,190.204941 551.203491,205.277679 545.569275,224.021988 
	C540.961182,239.352768 540.934875,254.618622 545.145996,269.719147 
	C548.883179,283.119934 555.799133,295.048462 565.630432,305.163330 
	C566.562195,306.121979 566.840332,308.764862 566.209717,310.013702 
	C563.298584,315.778931 560.019470,321.363068 556.762024,326.947876 
	C531.069214,370.997314 505.340149,415.025635 479.674835,459.091125 
	C478.435089,461.219635 477.276947,462.214966 474.576202,461.551453 
	C460.154724,458.008545 445.805237,458.711029 431.825104,463.557129 
	C401.378998,474.110992 381.963654,494.822632 374.689850,526.512268 
	C368.574890,553.153198 375.773499,576.436584 392.771240,597.049072 
	C395.470825,600.322754 395.749054,602.373901 393.622406,605.937683 
	C377.880981,632.316284 362.288849,658.784607 346.780304,685.301086 
	C335.885712,703.928711 325.211700,722.685181 314.391724,741.356628 
	C313.290833,743.256409 312.610382,745.507263 309.206024,744.612976 
	C289.150330,739.344421 269.590424,741.096436 251.043030,750.339111 
	C227.052994,762.294250 212.027634,781.507507 205.610641,807.662048 
	C201.171875,825.753784 203.137405,843.333374 210.859146,859.724792 
	C222.835861,885.148438 242.604492,901.562317 270.691345,907.694885 
	C286.416168,911.128357 301.644806,909.948242 316.267517,904.365784 
	C343.706329,893.890564 361.369751,874.010742 368.707031,845.476501 
	C369.789612,841.266357 371.356049,840.251526 375.324677,840.282532 
	C407.475311,840.534119 439.627289,840.662354 471.779022,840.714294 
	C493.611633,840.749634 515.445923,840.712769 537.276001,840.435913 
	C541.346436,840.384277 542.932007,842.003052 543.708191,845.595276 
	C547.524353,863.256409 556.697083,877.703552 570.273376,889.472168 
	C583.210999,900.687134 598.456116,907.066772 615.201538,909.153259 
	C626.945801,910.616699 638.694153,909.301331 650.154236,905.397156 
	C678.443481,895.759521 696.387451,876.182434 705.145508,848.147156 
	C706.720764,843.104858 708.575134,842.051941 713.127991,842.065369 
	C766.958557,842.223938 820.789673,842.320068 874.620178,842.204651 
	C879.158325,842.194946 880.421936,844.431946 881.088135,847.918213 
	C883.102051,858.456970 888.172424,867.616943 894.540100,875.951050 
	C907.157349,892.464722 923.438416,903.112183 944.121216,907.595642 
	C960.025208,911.043091 975.443848,910.077332 990.159790,904.390930 
	C1019.046936,893.228882 1036.682861,872.031494 1043.458984,841.559570 
	C1047.592041,822.973083 1045.171387,805.356750 1036.600464,788.842834 
	C1021.987366,760.687378 998.749084,744.282898 966.794983,741.946716 
	C958.339417,741.328552 949.571777,742.901733 941.166199,744.570618 
	C937.092224,745.379517 935.305969,744.979614 933.261902,741.431335 
	C919.651306,717.805542 905.774170,694.333496 892.087158,670.751343 
	C879.667664,649.353210 867.408264,627.862183 854.994141,606.460938 
	C853.584473,604.030823 853.314026,602.439270 855.436646,600.011047 
	C863.353516,590.954468 869.801025,580.965027 873.013855,569.171509 
	C874.355530,564.246277 875.816101,559.353394 877.996155,553.937256 
M373.454254,1006.068604 
	C353.459290,987.472473 329.734833,983.011780 304.327759,990.277832 
	C267.442169,1000.826599 246.615540,1039.927002 257.583771,1076.812012 
	C269.991852,1118.538940 310.464905,1134.176880 346.712341,1123.282959 
	C369.296509,1116.495483 384.657166,1101.291016 391.148743,1078.039551 
	C398.691437,1051.023193 393.279877,1027.120483 373.454254,1006.068604 
M895.011536,1166.302246 
	C914.973877,1162.140869 928.576050,1145.010010 928.630615,1123.687744 
	C928.700928,1096.189453 928.628479,1068.690918 928.617859,1041.192505 
	C928.616821,1038.437378 928.617676,1035.682251 928.617676,1032.917358 
	C921.787415,1032.917358 915.540894,1032.917358 908.658020,1032.917358 
	C908.658020,1036.611816 908.658020,1039.974243 908.658020,1044.298950 
	C906.927246,1042.923706 905.942627,1042.367065 905.252502,1041.558960 
	C894.718872,1029.226196 874.278625,1027.942261 861.024353,1034.352783 
	C830.699524,1049.019531 825.004028,1091.829956 850.370605,1114.064819 
	C865.628418,1127.438843 892.948181,1129.399414 906.318665,1113.073120 
	C906.735474,1112.564209 907.577209,1112.403320 908.339844,1112.020386 
	C910.941406,1128.469360 905.142456,1142.280762 893.525269,1146.613159 
	C886.394897,1149.272095 878.975708,1149.553467 871.429688,1147.431885 
	C863.521606,1145.208618 858.115356,1140.350098 854.721008,1132.836914 
	C848.696045,1136.526611 843.093140,1139.957886 837.560974,1143.345825 
	C846.592163,1164.058716 871.546509,1171.555786 895.011536,1166.302246 
M599.884827,1117.557739 
	C616.404480,1128.820435 633.719666,1129.341431 651.384094,1120.829834 
	C670.078430,1111.822021 679.175720,1088.172485 674.601501,1067.272339 
	C668.116821,1037.643066 637.404968,1023.382324 610.159119,1034.069824 
	C594.172729,1040.340698 584.766113,1052.751221 582.132202,1069.470459 
	C579.182556,1088.193237 583.605957,1104.847168 599.884827,1117.557739 
M822.527527,1073.973633 
	C820.449036,1067.201172 819.458740,1059.824463 816.094910,1053.765625 
	C804.385559,1032.674316 776.859436,1024.531372 754.999878,1034.793335 
	C740.894287,1041.415161 732.239136,1052.472778 729.024231,1067.465942 
	C723.125610,1094.974487 737.745422,1122.376831 769.192627,1126.162598 
	C800.493347,1129.930298 824.639404,1106.430908 822.527527,1073.973633 
M992.732178,1130.477173 
	C1006.216675,1098.159912 1019.701111,1065.842651 1033.563843,1032.618774 
	C1026.622803,1032.618774 1021.306396,1032.830200 1016.017517,1032.540649 
	C1012.773560,1032.363037 1011.326355,1033.646484 1010.217773,1036.526978 
	C1004.021240,1052.627441 997.682190,1068.672974 991.341614,1084.717529 
	C989.826782,1088.550903 988.120483,1092.308716 986.055481,1097.148438 
	C985.073792,1094.882324 984.665649,1094.003174 984.307617,1093.104248 
	C976.818726,1074.299927 969.365234,1055.481201 961.795959,1036.709229 
	C961.178223,1035.177246 959.841187,1032.844116 958.730835,1032.781250 
	C952.163879,1032.408691 945.565125,1032.597534 938.391479,1032.597534 
	C939.270874,1034.995361 939.775024,1036.530640 940.389099,1038.020508 
	C950.644287,1062.901367 960.617371,1087.905762 971.373840,1112.568237 
	C974.296021,1119.268433 974.855957,1124.879639 971.134705,1131.040283 
	C969.941833,1133.015137 969.079834,1135.199585 968.164307,1137.330322 
	C964.269653,1146.394287 960.411743,1155.474121 956.282410,1165.152954 
	C963.408325,1165.152954 969.860962,1165.274658 976.299438,1165.027710 
	C977.316101,1164.988647 978.686279,1163.466187 979.186096,1162.321167 
	C983.697754,1151.984009 988.051697,1141.578247 992.732178,1130.477173 
M560.479736,1051.013184 
	C563.887451,1051.013184 567.295227,1051.013184 570.664185,1051.013184 
	C570.664185,1044.405273 570.664185,1038.681152 570.664185,1032.425781 
	C562.245300,1032.425781 554.174377,1032.425781 545.429749,1032.425781 
	C545.429749,1023.192627 545.429749,1014.485840 545.429749,1005.870056 
	C538.303833,1005.870056 531.877747,1005.870056 524.929382,1005.870056 
	C524.929382,1014.816040 524.929382,1023.397522 524.929382,1032.683716 
	C518.526306,1032.683716 512.642456,1032.683716 506.780487,1032.683716 
	C506.780487,1039.161865 506.780487,1044.910522 506.780487,1051.282227 
	C512.966309,1051.282227 518.844788,1051.282227 524.968628,1051.282227 
	C524.968628,1053.729736 524.966675,1055.547119 524.968933,1057.364380 
	C524.984619,1070.016602 524.763428,1082.675049 525.085632,1095.319458 
	C525.395691,1107.487427 529.202637,1118.009155 541.540161,1123.067993 
	C550.646423,1126.801758 560.076721,1126.522949 569.461304,1124.043213 
	C570.248779,1123.835083 571.290955,1122.466797 571.268738,1121.663452 
	C571.123840,1116.421997 570.717834,1111.187500 570.391968,1105.866089 
	C566.639160,1106.158325 563.511597,1106.576538 560.379517,1106.613525 
	C550.166565,1106.734375 545.760071,1102.338257 545.743042,1092.144531 
	C545.724121,1080.824341 545.748596,1069.504028 545.753723,1058.183838 
	C545.754700,1055.941162 545.753845,1053.698608 545.753845,1051.006714 
	C550.893494,1051.006714 555.192688,1051.006714 560.479736,1051.013184 
M693.325012,988.525940 
	C693.111145,990.140564 692.714417,991.754639 692.710327,993.369812 
	C692.613770,1031.492676 692.558472,1069.615723 692.498535,1107.738647 
	C692.490234,1113.031250 692.497375,1118.323730 692.497375,1123.889648 
	C699.570190,1123.889648 706.086121,1123.889648 712.774902,1123.889648 
	C712.774902,1078.609131 712.774902,1033.734131 712.774902,988.243530 
	C706.385681,988.243530 700.277893,988.243530 693.325012,988.525940 
z"/>
<path fill="#010101" opacity="1.000000" stroke="none" 
	d="
M1187.468628,1255.000000 
	C1187.757080,1254.044434 1188.333496,1252.542847 1189.300781,1252.223145 
	C1195.002930,1250.337524 1200.890259,1248.984863 1206.524048,1246.928955 
	C1210.009644,1245.657104 1213.551147,1243.931641 1216.378662,1241.581177 
	C1223.656616,1235.531128 1231.368286,1230.261963 1237.138916,1222.108643 
	C1243.041382,1213.769043 1247.593872,1205.067871 1251.430542,1195.807129 
	C1252.590332,1193.007690 1253.331665,1190.035156 1254.632324,1187.070923 
	C1255.000000,1209.593506 1255.000000,1232.187012 1255.000000,1255.000000 
	C1232.646240,1255.000000 1210.291748,1255.000000 1187.468628,1255.000000 
z"/>
<path fill="#010101" opacity="1.000000" stroke="none" 
	d="
M1255.000000,70.531326 
	C1254.011841,69.118073 1252.666138,67.335045 1252.112549,65.333000 
	C1251.077393,61.588734 1251.214966,57.373676 1249.576660,53.975430 
	C1246.760742,48.134750 1243.615967,42.201733 1239.417603,37.335472 
	C1232.583618,29.414251 1225.285034,21.717785 1217.220947,15.097845 
	C1212.137573,10.924838 1205.383789,8.704061 1199.224121,5.954950 
	C1195.355103,4.228137 1191.198853,3.144718 1187.085693,1.386321 
	C1209.594604,1.000000 1232.189087,1.000000 1255.000000,1.000000 
	C1255.000000,24.020443 1255.000000,47.041561 1255.000000,70.531326 
z"/>
<path fill="#010101" opacity="1.000000" stroke="none" 
	d="
M0.999996,1187.468628 
	C1.955689,1187.754028 3.692718,1188.454834 3.748240,1189.270142 
	C4.428621,1199.260132 8.926368,1207.842651 14.019876,1215.997314 
	C19.335396,1224.507080 25.467981,1232.446045 34.624729,1237.501465 
	C39.896805,1240.412231 44.558525,1244.507568 49.970528,1247.062500 
	C54.968842,1249.422119 60.622627,1250.373047 65.937340,1252.099487 
	C67.040428,1252.457764 67.921936,1253.498047 68.952774,1254.612061 
	C46.406475,1255.000000 23.812952,1255.000000 1.000000,1255.000000 
	C1.000000,1232.646240 1.000000,1210.291748 0.999996,1187.468628 
z"/>
<path fill="#010101" opacity="1.000000" stroke="none" 
	d="
M68.531342,0.999999 
	C67.284187,1.982531 65.674660,3.487655 63.835117,3.861761 
	C52.884945,6.088676 43.043251,10.382326 35.043652,18.383844 
	C28.559597,24.869453 21.440004,30.860817 15.809564,38.020767 
	C9.629247,45.879974 5.227619,54.978123 3.855499,65.214775 
	C3.682749,66.503571 2.465862,67.652412 1.366374,68.933044 
	C1.000000,46.406483 1.000000,23.812967 1.000000,1.000000 
	C23.353748,1.000000 45.708218,1.000000 68.531342,0.999999 
z"/>
<path fill="#FAFAFA" opacity="1.000000" stroke="none" 
	d="
M877.222534,554.445801 
	C875.816101,559.353394 874.355530,564.246277 873.013855,569.171509 
	C869.801025,580.965027 863.353516,590.954468 855.436646,600.011047 
	C853.314026,602.439270 853.584473,604.030823 854.994141,606.460938 
	C867.408264,627.862183 879.667664,649.353210 892.087158,670.751343 
	C905.774170,694.333496 919.651306,717.805542 933.261902,741.431335 
	C935.305969,744.979614 937.092224,745.379517 941.166199,744.570618 
	C949.571777,742.901733 958.339417,741.328552 966.794983,741.946716 
	C998.749084,744.282898 1021.987366,760.687378 1036.600464,788.842834 
	C1045.171387,805.356750 1047.592041,822.973083 1043.458984,841.559570 
	C1036.682861,872.031494 1019.046936,893.228882 990.159790,904.390930 
	C975.443848,910.077332 960.025208,911.043091 944.121216,907.595642 
	C923.438416,903.112183 907.157349,892.464722 894.540100,875.951050 
	C888.172424,867.616943 883.102051,858.456970 881.088135,847.918213 
	C880.421936,844.431946 879.158325,842.194946 874.620178,842.204651 
	C820.789673,842.320068 766.958557,842.223938 713.127991,842.065369 
	C708.575134,842.051941 706.720764,843.104858 705.145508,848.147156 
	C696.387451,876.182434 678.443481,895.759521 650.154236,905.397156 
	C638.694153,909.301331 626.945801,910.616699 615.201538,909.153259 
	C598.456116,907.066772 583.210999,900.687134 570.273376,889.472168 
	C556.697083,877.703552 547.524353,863.256409 543.708191,845.595276 
	C542.932007,842.003052 541.346436,840.384277 537.276001,840.435913 
	C515.445923,840.712769 493.611633,840.749634 471.779022,840.714294 
	C439.627289,840.662354 407.475311,840.534119 375.324677,840.282532 
	C371.356049,840.251526 369.789612,841.266357 368.707031,845.476501 
	C361.369751,874.010742 343.706329,893.890564 316.267517,904.365784 
	C301.644806,909.948242 286.416168,911.128357 270.691345,907.694885 
	C242.604492,901.562317 222.835861,885.148438 210.859146,859.724792 
	C203.137405,843.333374 201.171875,825.753784 205.610641,807.662048 
	C212.027634,781.507507 227.052994,762.294250 251.043030,750.339111 
	C269.590424,741.096436 289.150330,739.344421 309.206024,744.612976 
	C312.610382,745.507263 313.290833,743.256409 314.391724,741.356628 
	C325.211700,722.685181 335.885712,703.928711 346.780304,685.301086 
	C362.288849,658.784607 377.880981,632.316284 393.622406,605.937683 
	C395.749054,602.373901 395.470825,600.322754 392.771240,597.049072 
	C375.773499,576.436584 368.574890,553.153198 374.689850,526.512268 
	C381.963654,494.822632 401.378998,474.110992 431.825104,463.557129 
	C445.805237,458.711029 460.154724,458.008545 474.576202,461.551453 
	C477.276947,462.214966 478.435089,461.219635 479.674835,459.091125 
	C505.340149,415.025635 531.069214,370.997314 556.762024,326.947876 
	C560.019470,321.363068 563.298584,315.778931 566.209717,310.013702 
	C566.840332,308.764862 566.562195,306.121979 565.630432,305.163330 
	C555.799133,295.048462 548.883179,283.119934 545.145996,269.719147 
	C540.934875,254.618622 540.961182,239.352768 545.569275,224.021988 
	C551.203491,205.277679 561.758362,190.204941 577.539124,178.979736 
	C596.170410,165.726913 616.715210,160.175720 639.698486,164.518219 
	C670.170166,170.275604 690.733521,188.193268 702.835571,215.950378 
	C709.246033,230.653229 710.397583,246.267975 707.105957,262.293854 
	C703.693909,278.906158 696.562317,293.324432 684.629395,305.286987 
	C682.361084,307.560913 682.986084,309.028503 684.294983,311.266205 
	C694.940308,329.465546 705.460022,347.738251 716.065491,365.960938 
	C733.787292,396.411133 751.621277,426.796570 769.185913,457.336975 
	C771.306396,461.023865 773.435364,462.204895 777.468262,461.220856 
	C793.735840,457.251526 809.868774,459.050812 824.864441,465.561218 
	C847.905334,475.564514 864.619202,492.328064 872.776733,516.647278 
	C874.287659,521.151611 875.270691,525.832947 876.676880,530.993042 
	C876.978516,539.184265 877.100525,546.815063 877.222534,554.445801 
M672.959534,525.476135 
	C679.951599,525.379456 686.943604,525.282837 694.594849,525.553894 
	C697.086121,525.429321 699.577332,525.304688 702.929382,525.468567 
	C704.721375,525.464661 706.587646,525.769043 708.281982,525.360291 
	C709.663818,525.026978 710.839905,523.841125 712.556396,522.461426 
	C717.281921,505.424286 725.677917,490.621735 739.659363,479.196564 
	C733.934265,469.424744 728.444702,460.166809 723.061523,450.847382 
	C699.716614,410.432861 676.390747,370.007294 653.112000,329.554626 
	C651.901062,327.450287 650.855835,326.152100 648.082153,327.018951 
	C633.231079,331.660187 618.313782,331.977692 603.423645,327.167145 
	C600.610596,326.258301 598.953430,326.846405 597.370605,329.571442 
	C589.872131,342.480865 582.048645,355.200989 574.491760,368.077118 
	C559.367493,393.847229 544.342834,419.675842 529.274597,445.478912 
	C522.770203,456.617126 516.259705,467.751801 509.913910,478.610931 
	C514.232971,483.226318 518.401733,487.287628 522.114014,491.730408 
	C529.790344,500.917175 534.390076,511.715668 537.628723,523.868652 
	C538.999084,524.400024 540.362854,525.371277 541.740784,525.391663 
	C551.040771,525.529480 560.343811,525.500305 569.645630,525.459961 
	C586.077209,525.388733 602.508667,525.270935 619.656189,525.586060 
	C626.754883,525.614807 633.854309,525.718567 640.952148,525.654419 
	C651.325317,525.560669 661.697388,525.346436 672.959534,525.476135 
M881.138672,801.566833 
	C882.384949,798.320862 883.193542,794.811768 884.957764,791.877197 
	C890.727844,782.279297 896.845825,772.890686 902.830078,763.421570 
	C903.330200,762.528198 902.566223,761.074585 901.743530,759.654907 
	C887.519592,735.107056 873.286438,710.564514 859.059631,686.018372 
	C847.333496,665.786804 835.657349,645.525879 823.788818,625.378113 
	C823.007812,624.052124 820.676575,622.710022 819.239746,622.876038 
	C815.150879,623.348572 811.102173,624.425842 807.126587,625.573303 
	C794.953003,629.086853 782.995972,626.475769 771.202759,623.896851 
	C767.624878,623.114380 766.312195,623.443848 764.568848,626.370667 
	C747.670776,654.739868 730.549316,682.976196 713.691772,711.369263 
	C703.121460,729.172852 692.893250,747.179565 682.885986,764.448914 
	C688.044800,771.571777 693.337585,777.982727 697.582703,785.025146 
	C700.971802,790.647400 703.084900,797.038940 705.613525,803.957581 
	C707.045898,804.653015 708.464905,805.915955 709.912781,805.949951 
	C718.069397,806.141479 726.232910,806.034668 734.394104,806.034607 
	C781.362671,806.034363 828.331177,806.035950 875.299744,806.035278 
	C878.086243,806.035217 881.420776,806.755249 881.138672,801.566833 
M542.235352,562.146240 
	C539.480042,561.798523 537.866943,562.266296 536.953552,565.628723 
	C532.863708,580.684143 525.222656,593.727600 513.864746,604.581421 
	C513.004822,605.403259 513.033203,608.237427 513.765808,609.474670 
	C520.704712,621.193787 527.900452,632.760559 534.994568,644.388184 
	C554.977051,677.140381 574.971436,709.885315 594.873962,742.686096 
	C596.486572,745.343750 597.908875,746.412659 601.215698,745.340027 
	C616.699768,740.317505 632.314575,740.674744 647.850647,745.162048 
	C650.662781,745.974304 652.284851,745.278015 653.547424,742.873718 
	C654.319275,741.403931 655.158936,739.968567 656.000122,738.536499 
	C671.638000,711.912354 687.247681,685.271545 702.933716,658.675781 
	C713.712891,640.399597 724.599609,622.186768 734.904053,604.844788 
	C729.578430,597.089111 724.222107,590.126831 719.823853,582.604370 
	C716.606628,577.101990 714.649048,570.863159 712.278015,564.103638 
	C710.665955,563.441528 709.055237,562.204163 707.441711,562.200623 
	C655.286621,562.086365 603.131287,562.085938 550.975952,562.093567 
	C548.322571,562.093933 545.669250,562.317444 542.235352,562.146240 
M479.499969,804.827332 
	C499.323456,804.788025 519.147156,804.686890 538.970154,804.771484 
	C542.195740,804.785278 544.012451,804.243286 544.979858,800.657410 
	C546.218628,796.066101 547.947388,791.442749 550.367920,787.369812 
	C554.918396,779.712830 560.116150,772.440674 565.294495,764.632019 
	C550.357788,739.914307 535.093323,714.605469 519.778992,689.326843 
	C507.470032,669.009216 495.072021,648.745422 482.789032,628.412170 
	C480.937561,625.347229 479.304504,623.504272 475.021698,624.674988 
	C460.159119,628.737854 445.367676,627.382507 430.893005,622.550110 
	C427.258362,621.336670 425.826538,622.971252 424.244049,625.658691 
	C411.958313,646.522400 399.524323,667.298889 387.274078,688.183228 
	C373.163849,712.238525 359.165436,736.359741 345.255280,760.531006 
	C344.596924,761.675110 344.612854,764.249451 345.414368,765.033325 
	C355.733490,775.125244 363.207397,786.953613 367.582916,800.676697 
	C368.548218,803.704224 370.254120,804.258606 373.086761,804.268799 
	C408.224701,804.395569 443.362305,804.625916 479.499969,804.827332 
M1008.505554,818.321899 
	C1006.597595,812.853638 1005.471680,806.937012 1002.640198,801.998108 
	C992.759338,784.763733 972.158142,775.124817 954.573608,778.609070 
	C930.858826,783.307861 917.437256,798.984192 914.455994,819.328003 
	C911.789673,837.522949 918.599792,852.766907 933.442444,863.777588 
	C947.279114,874.042114 962.593628,875.815796 978.729187,869.775757 
	C996.760315,863.026123 1011.333801,843.800476 1008.505554,818.321899 
M319.667572,790.819641 
	C306.834656,779.925598 292.645844,775.752319 275.741974,779.844971 
	C245.699005,787.118713 230.397339,822.376831 246.308151,848.932739 
	C258.579224,869.413757 282.249298,878.336609 303.370056,870.333862 
	C335.291504,858.238770 346.830750,817.991638 319.667572,790.819641 
M817.629517,584.212219 
	C837.958130,572.148193 847.099304,546.942627 836.567871,523.108887 
	C828.313782,504.429169 804.377502,491.688873 781.752869,497.471222 
	C756.697205,503.874939 739.446167,531.715088 748.746582,558.756531 
	C757.806274,585.097839 789.896729,599.876465 817.629517,584.212219 
M650.644287,865.239197 
	C665.873413,855.538330 675.665466,832.996216 670.727539,814.385681 
	C663.360168,786.618835 632.196350,769.072144 603.379639,783.240295 
	C582.400024,793.555237 571.901611,817.997314 579.372314,840.140320 
	C584.683716,855.883118 595.552429,866.457825 611.776184,871.200806 
	C625.411560,875.187134 638.041077,872.724670 650.644287,865.239197 
M443.892273,588.701782 
	C454.120056,592.226074 464.257935,591.236694 474.060516,587.387512 
	C498.414948,577.824463 509.620239,551.247192 500.364899,526.135071 
	C491.433167,501.900909 464.568604,490.479614 440.941528,498.632202 
	C418.262146,506.457825 403.360138,531.974121 410.802795,556.158264 
	C415.883392,572.667114 427.010712,583.055054 443.892273,588.701782 
M671.960693,254.932343 
	C671.477478,248.038574 671.733093,240.994446 670.366638,234.280457 
	C666.877747,217.138153 648.979492,201.396423 631.224487,199.893494 
	C613.818115,198.420105 599.016602,204.142532 588.358887,218.427765 
	C577.178589,233.413437 575.307617,249.862518 582.901489,266.881409 
	C594.248169,292.310791 626.479858,301.990204 650.008850,287.286865 
	C661.732971,279.960480 668.779663,269.232483 671.960693,254.932343 
z"/>
<path fill="#F7F7F7" opacity="1.000000" stroke="none" 
	d="
M373.704681,1006.317261 
	C393.279877,1027.120483 398.691437,1051.023193 391.148743,1078.039551 
	C384.657166,1101.291016 369.296509,1116.495483 346.712341,1123.282959 
	C310.464905,1134.176880 269.991852,1118.538940 257.583771,1076.812012 
	C246.615540,1039.927002 267.442169,1000.826599 304.327759,990.277832 
	C329.734833,983.011780 353.459290,987.472473 373.704681,1006.317261 
M328.961731,1007.373230 
	C318.329773,1006.567810 308.314362,1008.845886 299.413330,1014.577759 
	C278.155884,1028.266602 270.965057,1056.490112 281.863098,1079.412842 
	C292.979004,1102.793823 320.101837,1112.858765 344.539734,1102.382324 
	C360.075012,1095.722412 368.796753,1082.711548 371.595978,1065.927002 
	C376.042511,1039.264648 361.563599,1011.488159 328.961731,1007.373230 
z"/>
<path fill="#F6F6F6" opacity="1.000000" stroke="none" 
	d="
M894.610657,1166.422363 
	C871.546509,1171.555786 846.592163,1164.058716 837.560974,1143.345825 
	C843.093140,1139.957886 848.696045,1136.526611 854.721008,1132.836914 
	C858.115356,1140.350098 863.521606,1145.208618 871.429688,1147.431885 
	C878.975708,1149.553467 886.394897,1149.272095 893.525269,1146.613159 
	C905.142456,1142.280762 910.941406,1128.469360 908.339844,1112.020386 
	C907.577209,1112.403320 906.735474,1112.564209 906.318665,1113.073120 
	C892.948181,1129.399414 865.628418,1127.438843 850.370605,1114.064819 
	C825.004028,1091.829956 830.699524,1049.019531 861.024353,1034.352783 
	C874.278625,1027.942261 894.718872,1029.226196 905.252502,1041.558960 
	C905.942627,1042.367065 906.927246,1042.923706 908.658020,1044.298950 
	C908.658020,1039.974243 908.658020,1036.611816 908.658020,1032.917358 
	C915.540894,1032.917358 921.787415,1032.917358 928.617676,1032.917358 
	C928.617676,1035.682251 928.616821,1038.437378 928.617859,1041.192505 
	C928.628479,1068.690918 928.700928,1096.189453 928.630615,1123.687744 
	C928.576050,1145.010010 914.973877,1162.140869 894.610657,1166.422363 
M892.104431,1103.904053 
	C902.832764,1099.264160 908.224243,1090.769653 908.862915,1079.422607 
	C909.438354,1069.198730 906.147217,1060.292969 897.171204,1054.500244 
	C888.576599,1048.953735 879.278809,1048.082764 870.108582,1052.790649 
	C857.338318,1059.346680 851.902771,1075.258789 857.329224,1088.809204 
	C862.827942,1102.540161 876.314331,1108.601196 892.104431,1103.904053 
z"/>
<path fill="#F6F6F7" opacity="1.000000" stroke="none" 
	d="
M599.584839,1117.356689 
	C583.605957,1104.847168 579.182556,1088.193237 582.132202,1069.470459 
	C584.766113,1052.751221 594.172729,1040.340698 610.159119,1034.069824 
	C637.404968,1023.382324 668.116821,1037.643066 674.601501,1067.272339 
	C679.175720,1088.172485 670.078430,1111.822021 651.384094,1120.829834 
	C633.719666,1129.341431 616.404480,1128.820435 599.584839,1117.356689 
M643.178406,1102.853394 
	C655.583862,1092.788086 658.959290,1076.214233 651.128174,1063.109253 
	C645.481201,1053.659180 636.995483,1049.097168 626.046631,1050.102417 
	C614.876770,1051.127930 607.490662,1057.453491 603.517029,1067.873047 
	C599.207153,1079.174316 602.697632,1093.720703 611.557922,1101.281494 
	C619.496704,1108.055908 632.501160,1108.851807 643.178406,1102.853394 
z"/>
<path fill="#F7F7F7" opacity="1.000000" stroke="none" 
	d="
M822.606445,1074.424561 
	C824.639404,1106.430908 800.493347,1129.930298 769.192627,1126.162598 
	C737.745422,1122.376831 723.125610,1094.974487 729.024231,1067.465942 
	C732.239136,1052.472778 740.894287,1041.415161 754.999878,1034.793335 
	C776.859436,1024.531372 804.385559,1032.674316 816.094910,1053.765625 
	C819.458740,1059.824463 820.449036,1067.201172 822.606445,1074.424561 
M801.471497,1083.795654 
	C803.893555,1067.610596 794.977722,1053.336548 780.710938,1050.558716 
	C761.575134,1046.832642 746.495728,1061.969849 748.725952,1082.666382 
	C750.246460,1096.776001 760.316528,1106.495605 773.919006,1106.982910 
	C787.996887,1107.487061 798.878418,1098.620361 801.471497,1083.795654 
z"/>
<path fill="#F6F6F7" opacity="1.000000" stroke="none" 
	d="
M992.592041,1130.834839 
	C988.051697,1141.578247 983.697754,1151.984009 979.186096,1162.321167 
	C978.686279,1163.466187 977.316101,1164.988647 976.299438,1165.027710 
	C969.860962,1165.274658 963.408325,1165.152954 956.282410,1165.152954 
	C960.411743,1155.474121 964.269653,1146.394287 968.164307,1137.330322 
	C969.079834,1135.199585 969.941833,1133.015137 971.134705,1131.040283 
	C974.855957,1124.879639 974.296021,1119.268433 971.373840,1112.568237 
	C960.617371,1087.905762 950.644287,1062.901367 940.389099,1038.020508 
	C939.775024,1036.530640 939.270874,1034.995361 938.391479,1032.597534 
	C945.565125,1032.597534 952.163879,1032.408691 958.730835,1032.781250 
	C959.841187,1032.844116 961.178223,1035.177246 961.795959,1036.709229 
	C969.365234,1055.481201 976.818726,1074.299927 984.307617,1093.104248 
	C984.665649,1094.003174 985.073792,1094.882324 986.055481,1097.148438 
	C988.120483,1092.308716 989.826782,1088.550903 991.341614,1084.717529 
	C997.682190,1068.672974 1004.021240,1052.627441 1010.217773,1036.526978 
	C1011.326355,1033.646484 1012.773560,1032.363037 1016.017517,1032.540649 
	C1021.306396,1032.830200 1026.622803,1032.618774 1033.563843,1032.618774 
	C1019.701111,1065.842651 1006.216675,1098.159912 992.592041,1130.834839 
z"/>
<path fill="#F6F6F7" opacity="1.000000" stroke="none" 
	d="
M496.775146,1123.927246 
	C489.997528,1123.927246 483.219910,1123.927246 476.121124,1123.927246 
	C476.121124,1107.214966 476.320343,1090.733032 475.995056,1074.261230 
	C475.902130,1069.555054 475.089478,1064.523315 473.198425,1060.266357 
	C469.725189,1052.447754 461.432159,1049.047974 451.695587,1050.274780 
	C443.255188,1051.338501 435.664673,1057.878174 433.786163,1066.217163 
	C432.878479,1070.246582 432.346344,1074.441650 432.298828,1078.569336 
	C432.126343,1093.547607 432.230835,1108.529175 432.230835,1123.922729 
	C425.399200,1123.922729 419.006409,1123.922729 412.255066,1123.922729 
	C412.255066,1093.744751 412.255066,1063.525513 412.255066,1032.943115 
	C418.618011,1032.943115 424.869141,1032.943115 431.823975,1032.943115 
	C431.823975,1036.618530 431.823975,1040.311279 431.823975,1045.138794 
	C433.495514,1043.784912 434.314575,1043.336670 434.843475,1042.661133 
	C443.860687,1031.143799 456.184021,1029.003784 469.438263,1031.463867 
	C483.715576,1034.114136 491.716156,1043.767578 495.083130,1057.562622 
	C495.477783,1059.179565 495.846375,1060.802734 496.391632,1063.162842 
	C496.629211,1083.910767 496.702179,1103.919067 496.775146,1123.927246 
z"/>
<path fill="#F6F6F6" opacity="1.000000" stroke="none" 
	d="
M559.985779,1051.010010 
	C555.192688,1051.006714 550.893494,1051.006714 545.753845,1051.006714 
	C545.753845,1053.698608 545.754700,1055.941162 545.753723,1058.183838 
	C545.748596,1069.504028 545.724121,1080.824341 545.743042,1092.144531 
	C545.760071,1102.338257 550.166565,1106.734375 560.379517,1106.613525 
	C563.511597,1106.576538 566.639160,1106.158325 570.391968,1105.866089 
	C570.717834,1111.187500 571.123840,1116.421997 571.268738,1121.663452 
	C571.290955,1122.466797 570.248779,1123.835083 569.461304,1124.043213 
	C560.076721,1126.522949 550.646423,1126.801758 541.540161,1123.067993 
	C529.202637,1118.009155 525.395691,1107.487427 525.085632,1095.319458 
	C524.763428,1082.675049 524.984619,1070.016602 524.968933,1057.364380 
	C524.966675,1055.547119 524.968628,1053.729736 524.968628,1051.282227 
	C518.844788,1051.282227 512.966309,1051.282227 506.780487,1051.282227 
	C506.780487,1044.910522 506.780487,1039.161865 506.780487,1032.683716 
	C512.642456,1032.683716 518.526306,1032.683716 524.929382,1032.683716 
	C524.929382,1023.397522 524.929382,1014.816040 524.929382,1005.870056 
	C531.877747,1005.870056 538.303833,1005.870056 545.429749,1005.870056 
	C545.429749,1014.485840 545.429749,1023.192627 545.429749,1032.425781 
	C554.174377,1032.425781 562.245300,1032.425781 570.664185,1032.425781 
	C570.664185,1038.681152 570.664185,1044.405273 570.664185,1051.013184 
	C567.295227,1051.013184 563.887451,1051.013184 559.985779,1051.010010 
z"/>
<path fill="#F8F8F8" opacity="1.000000" stroke="none" 
	d="
M693.747559,988.384766 
	C700.277893,988.243530 706.385681,988.243530 712.774902,988.243530 
	C712.774902,1033.734131 712.774902,1078.609131 712.774902,1123.889648 
	C706.086121,1123.889648 699.570190,1123.889648 692.497375,1123.889648 
	C692.497375,1118.323730 692.490234,1113.031250 692.498535,1107.738647 
	C692.558472,1069.615723 692.613770,1031.492676 692.710327,993.369812 
	C692.714417,991.754639 693.111145,990.140564 693.747559,988.384766 
z"/>
<path fill="#121518" opacity="1.000000" stroke="none" 
	d="
M497.188019,1123.868286 
	C496.702179,1103.919067 496.629211,1083.910767 496.650452,1063.439453 
	C497.498322,1064.030762 498.901672,1065.080566 498.909058,1066.140259 
	C499.037445,1084.580444 499.011536,1103.022095 498.930206,1121.462891 
	C498.926758,1122.246948 498.063568,1123.027222 497.188019,1123.868286 
z"/>
<path fill="#010101" opacity="1.000000" stroke="none" 
	d="
M877.609375,554.191528 
	C877.100525,546.815063 876.978516,539.184265 876.977783,531.094360 
	C878.020630,531.914856 879.783813,533.236267 879.722839,534.467224 
	C879.400391,540.969727 878.618591,547.449585 877.609375,554.191528 
z"/>
<path fill="#1E2023" opacity="1.000000" stroke="none" 
	d="
M537.764832,523.089294 
	C534.390076,511.715668 529.790344,500.917175 522.114014,491.730408 
	C518.401733,487.287628 514.232971,483.226318 509.913910,478.610931 
	C516.259705,467.751801 522.770203,456.617126 529.274597,445.478912 
	C544.342834,419.675842 559.367493,393.847229 574.491760,368.077118 
	C582.048645,355.200989 589.872131,342.480865 597.370605,329.571442 
	C598.953430,326.846405 600.610596,326.258301 603.423645,327.167145 
	C618.313782,331.977692 633.231079,331.660187 648.082153,327.018951 
	C650.855835,326.152100 651.901062,327.450287 653.112000,329.554626 
	C676.390747,370.007294 699.716614,410.432861 723.061523,450.847382 
	C728.444702,460.166809 733.934265,469.424744 739.659363,479.196564 
	C725.677917,490.621735 717.281921,505.424286 711.856201,522.739563 
	C681.709290,523.008545 652.262695,522.996582 622.816040,522.991089 
	C597.029358,522.986267 571.242615,522.985657 545.455933,522.992126 
	C542.892212,522.992798 540.328552,523.055420 537.764832,523.089294 
z"/>
<path fill="#1E2023" opacity="1.000000" stroke="none" 
	d="
M712.130005,564.952576 
	C714.649048,570.863159 716.606628,577.101990 719.823853,582.604370 
	C724.222107,590.126831 729.578430,597.089111 734.904053,604.844788 
	C724.599609,622.186768 713.712891,640.399597 702.933716,658.675781 
	C687.247681,685.271545 671.638000,711.912354 656.000122,738.536499 
	C655.158936,739.968567 654.319275,741.403931 653.547424,742.873718 
	C652.284851,745.278015 650.662781,745.974304 647.850647,745.162048 
	C632.314575,740.674744 616.699768,740.317505 601.215698,745.340027 
	C597.908875,746.412659 596.486572,745.343750 594.873962,742.686096 
	C574.971436,709.885315 554.977051,677.140381 534.994568,644.388184 
	C527.900452,632.760559 520.704712,621.193787 513.765808,609.474670 
	C513.033203,608.237427 513.004822,605.403259 513.864746,604.581421 
	C525.222656,593.727600 532.863708,580.684143 536.953552,565.628723 
	C537.866943,562.266296 539.480042,561.798523 542.659668,562.677490 
	C544.912903,563.805786 546.740845,564.921204 548.570801,564.924561 
	C600.306580,565.019226 652.042603,565.002441 703.778564,565.000305 
	C706.562378,565.000183 709.346191,564.969238 712.130005,564.952576 
z"/>
<path fill="#1E2023" opacity="1.000000" stroke="none" 
	d="
M478.999969,804.828491 
	C443.362305,804.625916 408.224701,804.395569 373.086761,804.268799 
	C370.254120,804.258606 368.548218,803.704224 367.582916,800.676697 
	C363.207397,786.953613 355.733490,775.125244 345.414368,765.033325 
	C344.612854,764.249451 344.596924,761.675110 345.255280,760.531006 
	C359.165436,736.359741 373.163849,712.238525 387.274078,688.183228 
	C399.524323,667.298889 411.958313,646.522400 424.244049,625.658691 
	C425.826538,622.971252 427.258362,621.336670 430.893005,622.550110 
	C445.367676,627.382507 460.159119,628.737854 475.021698,624.674988 
	C479.304504,623.504272 480.937561,625.347229 482.789032,628.412170 
	C495.072021,648.745422 507.470032,669.009216 519.778992,689.326843 
	C535.093323,714.605469 550.357788,739.914307 565.294495,764.632019 
	C560.116150,772.440674 554.918396,779.712830 550.367920,787.369812 
	C547.947388,791.442749 546.218628,796.066101 544.979858,800.657410 
	C544.012451,804.243286 542.195740,804.785278 538.970154,804.771484 
	C519.147156,804.686890 499.323456,804.788025 478.999969,804.828491 
z"/>
<path fill="#1E2023" opacity="1.000000" stroke="none" 
	d="
M705.764343,803.088989 
	C703.084900,797.038940 700.971802,790.647400 697.582703,785.025146 
	C693.337585,777.982727 688.044800,771.571777 682.885986,764.448914 
	C692.893250,747.179565 703.121460,729.172852 713.691772,711.369263 
	C730.549316,682.976196 747.670776,654.739868 764.568848,626.370667 
	C766.312195,623.443848 767.624878,623.114380 771.202759,623.896851 
	C782.995972,626.475769 794.953003,629.086853 807.126587,625.573303 
	C811.102173,624.425842 815.150879,623.348572 819.239746,622.876038 
	C820.676575,622.710022 823.007812,624.052124 823.788818,625.378113 
	C835.657349,645.525879 847.333496,665.786804 859.059631,686.018372 
	C873.286438,710.564514 887.519592,735.107056 901.743530,759.654907 
	C902.566223,761.074585 903.330200,762.528198 902.830078,763.421570 
	C896.845825,772.890686 890.727844,782.279297 884.957764,791.877197 
	C883.193542,794.811768 882.384949,798.320862 880.437561,801.813354 
	C877.279907,802.372253 874.824097,802.950256 872.366760,802.956360 
	C845.881714,803.022766 819.396423,802.999756 792.911194,802.999817 
	C766.425964,802.999878 739.940796,802.995911 713.455566,803.001526 
	C710.891846,803.002075 708.328064,803.058533 705.764343,803.088989 
z"/>
<path fill="#1F2225" opacity="1.000000" stroke="none" 
	d="
M1008.575500,818.753235 
	C1011.333801,843.800476 996.760315,863.026123 978.729187,869.775757 
	C962.593628,875.815796 947.279114,874.042114 933.442444,863.777588 
	C918.599792,852.766907 911.789673,837.522949 914.455994,819.328003 
	C917.437256,798.984192 930.858826,783.307861 954.573608,778.609070 
	C972.158142,775.124817 992.759338,784.763733 1002.640198,801.998108 
	C1005.471680,806.937012 1006.597595,812.853638 1008.575500,818.753235 
z"/>
<path fill="#1F2125" opacity="1.000000" stroke="none" 
	d="
M319.924561,791.065491 
	C346.830750,817.991638 335.291504,858.238770 303.370056,870.333862 
	C282.249298,878.336609 258.579224,869.413757 246.308151,848.932739 
	C230.397339,822.376831 245.699005,787.118713 275.741974,779.844971 
	C292.645844,775.752319 306.834656,779.925598 319.924561,791.065491 
z"/>
<path fill="#1F2125" opacity="1.000000" stroke="none" 
	d="
M817.294617,584.375244 
	C789.896729,599.876465 757.806274,585.097839 748.746582,558.756531 
	C739.446167,531.715088 756.697205,503.874939 781.752869,497.471222 
	C804.377502,491.688873 828.313782,504.429169 836.567871,523.108887 
	C847.099304,546.942627 837.958130,572.148193 817.294617,584.375244 
z"/>
<path fill="#1F2125" opacity="1.000000" stroke="none" 
	d="
M650.338257,865.439087 
	C638.041077,872.724670 625.411560,875.187134 611.776184,871.200806 
	C595.552429,866.457825 584.683716,855.883118 579.372314,840.140320 
	C571.901611,817.997314 582.400024,793.555237 603.379639,783.240295 
	C632.196350,769.072144 663.360168,786.618835 670.727539,814.385681 
	C675.665466,832.996216 665.873413,855.538330 650.338257,865.439087 
z"/>
<path fill="#1F2125" opacity="1.000000" stroke="none" 
	d="
M443.491547,588.627563 
	C427.010712,583.055054 415.883392,572.667114 410.802795,556.158264 
	C403.360138,531.974121 418.262146,506.457825 440.941528,498.632202 
	C464.568604,490.479614 491.433167,501.900909 500.364899,526.135071 
	C509.620239,551.247192 498.414948,577.824463 474.060516,587.387512 
	C464.257935,591.236694 454.120056,592.226074 443.491547,588.627563 
z"/>
<path fill="#1F2124" opacity="1.000000" stroke="none" 
	d="
M671.880432,255.366089 
	C668.779663,269.232483 661.732971,279.960480 650.008850,287.286865 
	C626.479858,301.990204 594.248169,292.310791 582.901489,266.881409 
	C575.307617,249.862518 577.178589,233.413437 588.358887,218.427765 
	C599.016602,204.142532 613.818115,198.420105 631.224487,199.893494 
	C648.979492,201.396423 666.877747,217.138153 670.366638,234.280457 
	C671.733093,240.994446 671.477478,248.038574 671.880432,255.366089 
z"/>
<path fill="#121518" opacity="1.000000" stroke="none" 
	d="
M705.688965,803.523315 
	C708.328064,803.058533 710.891846,803.002075 713.455566,803.001526 
	C739.940796,802.995911 766.425964,802.999878 792.911194,802.999817 
	C819.396423,802.999756 845.881714,803.022766 872.366760,802.956360 
	C874.824097,802.950256 877.279907,802.372253 880.205933,802.040039 
	C881.420776,806.755249 878.086243,806.035217 875.299744,806.035278 
	C828.331177,806.035950 781.362671,806.034363 734.394104,806.034607 
	C726.232910,806.034668 718.069397,806.141479 709.912781,805.949951 
	C708.464905,805.915955 707.045898,804.653015 705.688965,803.523315 
z"/>
<path fill="#121518" opacity="1.000000" stroke="none" 
	d="
M712.203979,564.528076 
	C709.346191,564.969238 706.562378,565.000183 703.778564,565.000305 
	C652.042603,565.002441 600.306580,565.019226 548.570801,564.924561 
	C546.740845,564.921204 544.912903,563.805786 543.049927,562.822876 
	C545.669250,562.317444 548.322571,562.093933 550.975952,562.093567 
	C603.131287,562.085938 655.286621,562.086365 707.441711,562.200623 
	C709.055237,562.204163 710.665955,563.441528 712.203979,564.528076 
z"/>
<path fill="#121518" opacity="1.000000" stroke="none" 
	d="
M537.696777,523.479004 
	C540.328552,523.055420 542.892212,522.992798 545.455933,522.992126 
	C571.242615,522.985657 597.029358,522.986267 622.816040,522.991089 
	C652.262695,522.996582 681.709290,523.008545 711.631592,523.025513 
	C710.839905,523.841125 709.663818,525.026978 708.281982,525.360291 
	C706.587646,525.769043 704.721375,525.464661 702.246094,525.009155 
	C699.020447,524.761902 696.478088,524.973999 693.935669,525.186157 
	C686.943604,525.282837 679.951599,525.379456 672.239258,525.002075 
	C671.055420,524.371521 670.592224,524.079346 670.128174,524.078186 
	C654.089539,524.037476 638.050842,524.002747 622.012390,524.057129 
	C620.987000,524.060547 619.964172,524.784119 618.940125,525.172668 
	C602.508667,525.270935 586.077209,525.388733 569.645630,525.459961 
	C560.343811,525.500305 551.040771,525.529480 541.740784,525.391663 
	C540.362854,525.371277 538.999084,524.400024 537.696777,523.479004 
z"/>
<path fill="#1E2023" opacity="1.000000" stroke="none" 
	d="
M619.298157,525.379395 
	C619.964172,524.784119 620.987000,524.060547 622.012390,524.057129 
	C638.050842,524.002747 654.089539,524.037476 670.128174,524.078186 
	C670.592224,524.079346 671.055420,524.371521 671.794434,524.855774 
	C661.697388,525.346436 651.325317,525.560669 640.952148,525.654419 
	C633.854309,525.718567 626.754883,525.614807 619.298157,525.379395 
z"/>
<path fill="#1E2023" opacity="1.000000" stroke="none" 
	d="
M694.265259,525.369995 
	C696.478088,524.973999 699.020447,524.761902 701.815735,524.864990 
	C699.577332,525.304688 697.086121,525.429321 694.265259,525.369995 
z"/>
<path fill="#1F2124" opacity="1.000000" stroke="none" 
	d="
M329.396423,1007.420044 
	C361.563599,1011.488159 376.042511,1039.264648 371.595978,1065.927002 
	C368.796753,1082.711548 360.075012,1095.722412 344.539734,1102.382324 
	C320.101837,1112.858765 292.979004,1102.793823 281.863098,1079.412842 
	C270.965057,1056.490112 278.155884,1028.266602 299.413330,1014.577759 
	C308.314362,1008.845886 318.329773,1006.567810 329.396423,1007.420044 
z"/>
<path fill="#212326" opacity="1.000000" stroke="none" 
	d="
M891.722778,1103.999512 
	C876.314331,1108.601196 862.827942,1102.540161 857.329224,1088.809204 
	C851.902771,1075.258789 857.338318,1059.346680 870.108582,1052.790649 
	C879.278809,1048.082764 888.576599,1048.953735 897.171204,1054.500244 
	C906.147217,1060.292969 909.438354,1069.198730 908.862915,1079.422607 
	C908.224243,1090.769653 902.832764,1099.264160 891.722778,1103.999512 
z"/>
<path fill="#212326" opacity="1.000000" stroke="none" 
	d="
M642.841064,1103.014404 
	C632.501160,1108.851807 619.496704,1108.055908 611.557922,1101.281494 
	C602.697632,1093.720703 599.207153,1079.174316 603.517029,1067.873047 
	C607.490662,1057.453491 614.876770,1051.127930 626.046631,1050.102417 
	C636.995483,1049.097168 645.481201,1053.659180 651.128174,1063.109253 
	C658.959290,1076.214233 655.583862,1092.788086 642.841064,1103.014404 
z"/>
<path fill="#212326" opacity="1.000000" stroke="none" 
	d="
M801.398560,1084.223145 
	C798.878418,1098.620361 787.996887,1107.487061 773.919006,1106.982910 
	C760.316528,1106.495605 750.246460,1096.776001 748.725952,1082.666382 
	C746.495728,1061.969849 761.575134,1046.832642 780.710938,1050.558716 
	C794.977722,1053.336548 803.893555,1067.610596 801.398560,1084.223145 
z"/>
</svg>